<svg width="398" height="98" viewBox="0 0 398 98" fill="none" xmlns="http://www.w3.org/2000/svg">
<path d="M153.666 46.5V16.9H171.906V21.82H159.586V29.58H170.106V34.5H159.586V46.5H153.666ZM181.672 46.5L191.152 16.9H198.112L207.592 46.5H201.392L197.152 31.1C196.272 28.02 195.432 24.58 194.592 21.42H194.432C193.632 24.62 192.792 28.02 191.912 31.1L187.672 46.5H181.672ZM187.552 38.9V34.34H201.632V38.9H187.552ZM232.593 47.06C224.713 47.06 219.353 41.22 219.353 31.58C219.353 21.94 224.713 16.38 232.593 16.38C240.433 16.38 245.793 21.98 245.793 31.58C245.793 41.22 240.433 47.06 232.593 47.06ZM232.593 42.22C236.993 42.22 239.793 38.26 239.793 31.58C239.793 25.26 236.993 21.46 232.593 21.46C228.153 21.46 225.393 25.26 225.393 31.58C225.393 38.26 228.153 42.22 232.593 42.22ZM242.153 54.54C235.873 54.54 231.553 51.06 229.673 46.34L235.673 45.74C236.793 48.62 239.833 49.82 242.793 49.82C244.113 49.82 245.193 49.62 246.073 49.3L247.153 53.66C246.073 54.18 244.313 54.54 242.153 54.54Z" fill="#3C2C25"/>
<path d="M17.16 74.66L18.74 76.54C15.64 77.4 11.32 77.88 7.66 78.08C7.58 77.54 7.28 76.68 7.04 76.16C10.62 75.92 14.68 75.4 17.16 74.66ZM7.32 79L9.22 78.5C9.82 79.68 10.4 81.24 10.56 82.26L8.52 82.86C8.38 81.84 7.88 80.22 7.32 79ZM11.2 78.38L13.2 78C13.66 79.18 14.04 80.68 14.1 81.66L11.96 82.08C11.94 81.14 11.62 79.58 11.2 78.38ZM17.02 77.66L19.28 78.48C18.42 80.18 17.38 82.06 16.54 83.26L14.68 82.5C15.48 81.24 16.48 79.18 17.02 77.66ZM7.3 84.52H19.12V86.6H7.3V84.52ZM12 82.46H14.28V93.16H12V82.46ZM11.28 85.72L13.16 86.38C11.94 88.86 9.86 91.18 7.6 92.44C7.24 91.86 6.52 91.02 6 90.58C8.16 89.6 10.22 87.68 11.28 85.72ZM14.98 85.82C15.94 87.66 17.82 89.54 19.7 90.54C19.18 90.96 18.46 91.78 18.12 92.32C16.16 91.08 14.26 88.78 13.16 86.46L14.98 85.82ZM0.4 84.58C2 84.22 4.38 83.58 6.64 82.94L6.96 85.1C4.9 85.74 2.7 86.38 0.94 86.88L0.4 84.58ZM0.72 78.32H6.84V80.52H0.72V78.32ZM2.84 74.54H5.04V90.76C5.04 91.88 4.84 92.5 4.22 92.86C3.62 93.24 2.76 93.32 1.46 93.32C1.4 92.72 1.12 91.74 0.84 91.08C1.56 91.12 2.26 91.12 2.5 91.1C2.74 91.1 2.84 91.04 2.84 90.76V74.54ZM29.4 75.86H41.68V78.14H29.4V75.86ZM29.4 80.46H41.72V82.7H29.4V80.46ZM29.36 85.18H41.8V87.44H29.36V85.18ZM28.02 75.86H30.4V83.06C30.4 86.24 30 90.74 27.54 93.42C27.16 92.96 26.18 92.16 25.66 91.86C27.84 89.44 28.02 85.86 28.02 83.04V75.86ZM40.84 75.86H43.22V90.48C43.22 91.76 42.94 92.4 42.14 92.78C41.3 93.16 40.1 93.2 38.28 93.18C38.18 92.54 37.82 91.5 37.5 90.88C38.64 90.96 39.96 90.94 40.32 90.94C40.7 90.92 40.84 90.8 40.84 90.46V75.86ZM34.18 76.76H36.62V93.06H34.18V76.76ZM54.3 77.18C55.78 77.34 57.66 77.42 59.76 77.42C61.72 77.42 64.02 77.3 65.56 77.14V79.8C64.16 79.92 61.68 80.04 59.78 80.04C57.68 80.04 55.94 79.94 54.3 79.82V77.18ZM56 85.64C55.8 86.36 55.66 87 55.66 87.68C55.66 88.96 56.86 89.88 59.76 89.88C62.46 89.88 65 89.58 66.78 89.1L66.8 91.9C65.06 92.32 62.66 92.58 59.84 92.58C55.26 92.58 52.96 91.04 52.96 88.3C52.96 87.14 53.2 86.16 53.36 85.42L56 85.64ZM66.08 75.1C66.58 75.84 67.28 77.12 67.66 77.86L66.06 78.54C65.64 77.72 65.02 76.52 64.48 75.76L66.08 75.1ZM68.44 74.2C68.96 74.96 69.7 76.22 70.06 76.92L68.46 77.62C68.06 76.78 67.4 75.62 66.86 74.86L68.44 74.2ZM76.12 84.68C77.94 84.3 80.62 83.64 83.16 83L83.44 85.2C81.14 85.84 78.66 86.48 76.74 86.98L76.12 84.68ZM76.36 78.32H83.3V80.56H76.36V78.32ZM78.86 74.52H81.2V90.62C81.2 91.76 80.98 92.36 80.3 92.72C79.64 93.08 78.66 93.14 77.24 93.14C77.18 92.54 76.86 91.56 76.58 90.96C77.36 91 78.22 90.98 78.46 90.98C78.74 90.98 78.86 90.88 78.86 90.6V74.52ZM82.52 90.4H94.9V92.62H82.52V90.4ZM86.2 83.2V86.2H91.26V83.2H86.2ZM86.2 78.02V80.96H91.26V78.02H86.2ZM83.9 75.8H93.66V88.42H83.9V75.8ZM109.46 74.52H112.12V82.72H109.46V74.52ZM102.9 76.16L105.1 75.3C106.14 76.7 107.14 78.56 107.56 79.82L105.24 80.82C104.88 79.52 103.88 77.58 102.9 76.16ZM116.18 75.12L118.86 75.9C118 77.7 116.94 79.62 116.1 80.88L113.96 80.14C114.76 78.78 115.7 76.7 116.18 75.12ZM103.38 81.46H118.52V93.3H115.96V83.86H103.38V81.46ZM104.06 85.7H116.88V88.02H104.06V85.7ZM102.92 90.08H117.3V92.48H102.92V90.08ZM126.98 80.58H144.98V82.7H126.98V80.58ZM128.72 76.68H140.16V78.76H128.72V76.68ZM132.24 87.56H141.18V89.36H132.24V87.56ZM132.24 90.7H141.18V92.72H132.24V90.7ZM133.44 74.52H135.8V81.76H133.44V74.52ZM142.24 75.1L144.3 76.16C140.38 81.62 134.28 85.64 127.8 88.02C127.52 87.5 126.8 86.5 126.36 86.02C132.86 83.94 138.74 80.12 142.24 75.1ZM130.9 84.3H142.7V93.24H140.2V86.26H133.3V93.32H130.9V84.3ZM159.14 76.74H170.12V78.64H159.14V76.74ZM159.68 79.42H169.7V81.22H159.68V79.42ZM158.76 82.08H170.48V84.04H158.76V82.08ZM166.84 74.48L169.22 75.06C168.68 75.96 168.14 76.84 167.74 77.42L165.86 76.88C166.22 76.18 166.64 75.18 166.84 74.48ZM160.42 75.18L162.3 74.56C162.76 75.24 163.26 76.16 163.44 76.78L161.44 77.5C161.28 76.88 160.84 75.9 160.42 75.18ZM168.58 84.42L170.38 85.7C169.5 86.62 168.44 87.6 167.64 88.24L166.1 87.06C166.88 86.4 167.96 85.26 168.58 84.42ZM159.14 85.56L160.78 84.48C161.5 85.22 162.38 86.24 162.78 86.94L161.06 88.14C160.7 87.42 159.86 86.34 159.14 85.56ZM157.98 90.08C159.18 89.54 160.94 88.64 162.66 87.76L163.28 89.7C161.88 90.52 160.3 91.4 159.02 92.1L157.98 90.08ZM163.48 78.02H165.78V90.92C165.78 92 165.6 92.58 164.96 92.94C164.3 93.3 163.34 93.34 162.08 93.34C162.02 92.72 161.74 91.78 161.46 91.22C162.14 91.24 162.92 91.24 163.16 91.24C163.4 91.24 163.48 91.14 163.48 90.92V78.02ZM165.66 84.42C166.54 87.1 168.3 89.4 170.86 90.44C170.38 90.88 169.68 91.76 169.34 92.38C166.74 90.94 165.04 88.14 164.1 84.78L165.66 84.42ZM152.08 78.66H158.7V80.88H152.08V78.66ZM154.52 74.52H156.7V93.3H154.52V74.52ZM154.48 80.18L155.82 80.64C155.24 83.8 154.1 87.66 152.68 89.72C152.48 89.08 151.96 88.16 151.62 87.6C152.9 85.86 154.02 82.72 154.48 80.18ZM156.6 81.64C157.04 82.18 158.68 84.7 159.02 85.26L157.78 86.98C157.34 85.82 156.14 83.54 155.6 82.6L156.6 81.64ZM185.62 75.72C185.5 76.24 185.38 76.88 185.26 77.38C185.08 78.28 184.82 79.52 184.62 80.54C183.96 83.36 182.34 89.06 180.26 92.44L177.64 91.4C180.02 88.2 181.52 82.92 182.08 80.4C182.46 78.6 182.68 76.9 182.66 75.4L185.62 75.72ZM192.52 77.58C193.74 79.32 195.42 83.12 196.04 85.04L193.5 86.22C192.98 83.98 191.56 80.38 190.12 78.6L192.52 77.58ZM177.52 79.82C178.24 79.86 178.92 79.84 179.66 79.82C181.26 79.78 185.04 79.34 186.54 79.34C188.64 79.34 190.14 80.28 190.14 83.18C190.14 85.54 189.86 88.78 189.02 90.5C188.34 91.9 187.24 92.34 185.74 92.34C184.96 92.34 184.02 92.22 183.32 92.06L182.9 89.42C183.68 89.64 184.82 89.84 185.34 89.84C186.02 89.84 186.52 89.64 186.84 88.98C187.4 87.86 187.66 85.42 187.66 83.46C187.66 81.86 186.96 81.62 185.72 81.62C184.52 81.62 181.08 82.06 179.98 82.2C179.4 82.28 178.36 82.42 177.76 82.52L177.52 79.82ZM208.26 75.4C210.16 76 214.52 76.78 216.28 76.96L215.68 79.42C213.64 79.14 209.2 78.22 207.64 77.82L208.26 75.4ZM208.4 79.42C208.12 80.54 207.78 82.96 207.64 84.12C209.44 82.8 211.44 82.2 213.54 82.2C217.04 82.2 219.08 84.36 219.08 86.78C219.08 90.44 216.18 93.24 207.88 92.52L207.1 89.9C213.12 90.74 216.28 89.28 216.28 86.72C216.28 85.42 215.06 84.48 213.3 84.48C211.04 84.48 209.02 85.32 207.76 86.84C207.4 87.26 207.18 87.58 207.02 87.98L204.7 87.42C205.1 85.46 205.58 81.54 205.7 79.06L208.4 79.42ZM238.18 75.48C238.1 76.06 238.04 77.04 238 77.82C237.98 78.78 238 79.92 238 81.06C238 83.28 238.38 87.58 238.38 89.26C238.38 91.04 237.46 92.72 234.12 92.72C231.24 92.72 228.9 91.78 228.9 89.08C228.9 86.98 230.7 85.34 234.36 85.34C238.54 85.34 242.28 87.44 244.32 89.32L242.78 91.72C240.8 89.72 237.62 87.56 234 87.56C232.44 87.56 231.5 88.08 231.5 88.96C231.5 89.92 232.5 90.3 233.9 90.3C235.18 90.3 235.66 89.72 235.66 88.4C235.66 87 235.42 82.96 235.42 81.06C235.42 79.86 235.4 78.68 235.38 77.82C235.36 76.82 235.3 75.96 235.18 75.48H238.18ZM236.66 79.3C237.84 79.3 241.34 79.22 243.58 78.98L243.68 81.36C241.42 81.56 237.9 81.66 236.66 81.66V79.3ZM266.68 77.1C266.04 77.56 265.38 78.08 264.92 78.46C263.62 79.5 260.98 81.54 259.64 82.7C258.58 83.6 258.6 83.84 259.68 84.78C261.18 86.04 264.98 89.02 267.02 91L264.7 93.16C264.14 92.52 263.54 91.9 262.94 91.3C261.74 90.04 258.8 87.52 256.96 85.98C254.98 84.28 255.14 83.2 257.14 81.54C258.7 80.26 261.46 78.04 262.8 76.72C263.38 76.16 264.02 75.5 264.34 75.02L266.68 77.1ZM287.12 75.42C287 75.8 286.92 76.16 286.84 76.48C286.46 78.34 286.12 81.22 286.12 83.7C286.12 86.86 286.7 89.1 287.36 91.12L285.06 91.8C284.46 90 283.88 87.04 283.88 84.1C283.88 81.48 284.24 78.54 284.46 76.56C284.5 76.16 284.54 75.7 284.52 75.34L287.12 75.42ZM283.54 77.62C287.34 77.62 290.36 77.44 293.42 76.7L293.44 79C290.7 79.5 286.5 79.8 283.48 79.8C282.42 79.8 280.86 79.7 279.92 79.66L279.86 77.36C280.58 77.46 282.32 77.62 283.54 77.62ZM292.18 80.56C292.02 80.92 291.72 81.84 291.58 82.26C290.44 85.86 288.38 88.56 286.48 89.96C285.18 90.92 283.44 91.8 281.7 91.8C280.24 91.8 279.02 90.92 279.02 88.88C279.02 86.06 281.54 83.12 284.72 81.96C286.04 81.48 287.68 81.18 289.18 81.18C292.92 81.18 295.68 83.34 295.68 86.46C295.68 89.3 294 92.04 289.1 92.8L287.76 90.68C291.62 90.26 293.2 88.32 293.2 86.34C293.2 84.64 291.74 83.2 289.04 83.2C287.22 83.2 285.78 83.72 284.8 84.16C282.8 85.1 281.38 87.02 281.38 88.36C281.38 89.02 281.64 89.36 282.3 89.36C283.24 89.36 284.58 88.7 285.8 87.56C287.26 86.22 288.62 84.44 289.42 81.68C289.56 81.26 289.7 80.4 289.72 79.96L292.18 80.56ZM306.8 76.28C307.36 76.34 308.04 76.38 308.6 76.38C309.68 76.38 313.94 76.28 315.08 76.18C315.92 76.12 316.38 76.04 316.62 75.96L317.9 77.76C317.44 78.06 316.96 78.34 316.52 78.68C315.44 79.44 313.34 81.2 312.06 82.2C312.74 82.02 313.34 81.98 313.96 81.98C317.36 81.98 319.94 84.1 319.94 87C319.94 90.16 317.54 92.66 312.7 92.66C309.92 92.66 307.82 91.4 307.82 89.38C307.82 87.76 309.3 86.28 311.42 86.28C314.16 86.28 315.68 88.12 315.74 90.32L313.4 90.62C313.36 89.18 312.6 88.18 311.42 88.18C310.68 88.18 310.18 88.64 310.18 89.16C310.18 89.9 311 90.4 312.22 90.4C315.6 90.4 317.32 89.12 317.32 86.98C317.32 85.16 315.52 83.94 313.18 83.94C310.1 83.94 308.12 85.58 305.98 88L304.16 86.12C305.58 85 308 82.96 309.16 81.98C310.28 81.06 312.38 79.38 313.36 78.5C312.34 78.54 309.58 78.64 308.5 78.72C307.96 78.76 307.34 78.8 306.88 78.88L306.8 76.28ZM331.5 77.18C332.98 77.34 334.86 77.42 336.96 77.42C338.92 77.42 341.22 77.3 342.76 77.14V79.8C341.36 79.92 338.88 80.04 336.98 80.04C334.88 80.04 333.14 79.94 331.5 79.82V77.18ZM333.2 85.64C333 86.36 332.86 87 332.86 87.68C332.86 88.96 334.06 89.88 336.96 89.88C339.66 89.88 342.2 89.58 343.98 89.1L344 91.9C342.26 92.32 339.86 92.58 337.04 92.58C332.46 92.58 330.16 91.04 330.16 88.3C330.16 87.14 330.4 86.16 330.56 85.42L333.2 85.64ZM343.28 75.1C343.78 75.84 344.48 77.12 344.86 77.86L343.26 78.54C342.84 77.72 342.22 76.52 341.68 75.76L343.28 75.1ZM345.64 74.2C346.16 74.96 346.9 76.22 347.26 76.92L345.66 77.62C345.26 76.78 344.6 75.62 344.06 74.86L345.64 74.2ZM360.86 74.54L362.32 75.94C360.62 76.46 358.28 76.76 356.32 76.9C356.26 76.5 356.02 75.84 355.8 75.44C357.6 75.26 359.66 74.92 360.86 74.54ZM369.54 74.54L371 75.96C369.16 76.48 366.64 76.78 364.52 76.92C364.44 76.5 364.2 75.86 364 75.46C365.96 75.28 368.22 74.94 369.54 74.54ZM355.14 74.96L357.7 75.6C357.68 75.78 357.56 75.86 357.22 75.94V76.9C357.22 78.48 356.84 80.9 355 82.6C354.68 82.12 353.92 81.38 353.44 81.1C354.92 79.76 355.14 78.12 355.14 76.8V74.96ZM363.42 74.98L365.98 75.58C365.96 75.76 365.84 75.86 365.5 75.9V76.92C365.5 78.36 365.06 80.44 362.94 81.84C362.66 81.34 361.96 80.56 361.48 80.24C363.14 79.2 363.42 77.96 363.42 76.82V74.98ZM356.08 77.5H362.72V79.26H356.08V77.5ZM364.32 77.5H371.8V79.26H364.32V77.5ZM358.72 78.1H360.84V81.34H358.72V78.1ZM367.12 78.1H369.26V81.36H367.12V78.1ZM358.52 85.38V86.24H367.24V85.38H358.52ZM358.52 87.6V88.48H367.24V87.6H358.52ZM358.52 83.16V84.02H367.24V83.16H358.52ZM356.2 81.72H369.66V89.92H356.2V81.72ZM363.92 90.96L365.92 89.82C368.02 90.58 370.5 91.58 371.92 92.28L369.12 93.36C368 92.68 365.94 91.72 363.92 90.96ZM359.48 89.76L361.68 90.74C360.04 91.8 357.44 92.8 355.4 93.38C354.98 92.9 354.16 92.02 353.62 91.62C355.74 91.22 358.12 90.52 359.48 89.76ZM385.06 84.16H391.82V90.46H385.06V88.5H389.58V86.12H385.06V84.16ZM384.04 84.16H386.26V91.6H384.04V84.16ZM380.76 78.18H385.78V79.82H380.76V78.18ZM390.04 78.18H395.1V79.82H390.04V78.18ZM394.1 75.28H396.52V90.42C396.52 91.78 396.24 92.46 395.42 92.86C394.58 93.26 393.32 93.3 391.48 93.3C391.4 92.62 391 91.48 390.66 90.86C391.82 90.92 393.2 90.9 393.58 90.9C393.96 90.9 394.1 90.76 394.1 90.4V75.28ZM380.96 75.28H387.28V82.78H380.96V80.94H385.04V77.12H380.96V75.28ZM395.4 75.28V77.1H390.92V80.98H395.4V82.8H388.64V75.28H395.4ZM379.58 75.28H381.96V93.3H379.58V75.28Z" fill="#3C2C25"/>
</svg>
