<svg width="347" height="260" viewBox="0 0 347 260" fill="none" xmlns="http://www.w3.org/2000/svg">
<path d="M55.7868 19.3936L77 40.6068" stroke="black" stroke-width="2" stroke-linecap="round"/>
<path d="M92.2 22.08L94.46 22.78C93.2 26.18 91.18 29.8 89.04 32.1C88.82 31.5 88.16 30.18 87.76 29.6C89.52 27.78 91.22 24.94 92.2 22.08ZM90.24 27.64L92.5 25.36L92.52 25.38V40.78H90.24V27.64ZM93.96 26.04H106.24V35.46H103.86V28.26H96.24V35.62H93.96V26.04ZM95.24 32.2H105.12V34.4H95.24V32.2ZM98.82 22.26H101.2V40.78H98.82V22.26ZM122.52 24.42C120.96 26.98 117.9 29.74 114.54 31.52C114.24 30.92 113.56 30.02 113.04 29.52C116.6 27.82 119.72 24.62 121.1 21.96H123.7C125.76 25.34 128.94 27.98 132.22 29.24C131.6 29.88 131.06 30.7 130.62 31.44C127.42 29.82 124.14 27.02 122.52 24.42ZM124.74 29.34H127.24V40.8H124.74V29.34ZM117.84 29.44H120.3V31.92C120.3 34.76 119.9 38.34 115.96 40.8C115.54 40.28 114.6 39.48 113.96 39.1C117.48 37 117.84 34.18 117.84 31.86V29.44ZM153.44 21.98L155.18 23.96C151.06 25.02 145.3 25.52 140.4 25.68C140.34 25.08 140.04 24.1 139.82 23.58C144.64 23.38 150.16 22.86 153.44 21.98ZM140 27.66H155.82V29.96H140V27.66ZM138.62 32.32H157V34.66H138.62V32.32ZM146.58 24.8H149.08V37.94C149.08 39.36 148.72 40 147.76 40.36C146.8 40.74 145.34 40.8 143.3 40.78C143.14 40.1 142.68 39.02 142.32 38.4C143.8 38.46 145.48 38.44 145.94 38.44C146.4 38.44 146.58 38.3 146.58 37.9V24.8ZM163.58 32.46H173.7V34.38H163.58V32.46ZM163.82 25.4H173.64V27.28H163.82V25.4ZM167.18 31.02L169.4 31.5C168.42 33.56 167.12 36 166.16 37.6L164.06 36.96C165 35.42 166.32 32.92 167.18 31.02ZM170.02 33.8L172.22 33.98C171.5 38.18 169.4 39.86 164.64 40.82C164.5 40.16 164.06 39.32 163.66 38.84C167.64 38.34 169.38 37.08 170.02 33.8ZM171.44 22.26L173.46 23.06C172.8 23.96 172.16 24.88 171.64 25.5L170.1 24.8C170.56 24.1 171.12 23.02 171.44 22.26ZM167.62 22H169.82V31.3H167.62V22ZM164.3 23.06L166.02 22.34C166.56 23.1 167.06 24.12 167.24 24.84L165.4 25.64C165.26 24.94 164.8 23.88 164.3 23.06ZM167.68 26.34L169.24 27.28C168.24 28.86 166.32 30.6 164.64 31.54C164.36 31.02 163.84 30.22 163.4 29.78C165.02 29.12 166.82 27.7 167.68 26.34ZM169.62 26.92C170.34 27.26 172.62 28.6 173.18 28.98L171.9 30.64C171.16 29.9 169.38 28.48 168.5 27.86L169.62 26.92ZM175.02 25.64H182.36V27.86H175.02V25.64ZM175.24 22L177.66 22.34C177.04 26.48 175.84 30.32 174 32.76C173.62 32.32 172.64 31.46 172.1 31.06C173.78 29.02 174.76 25.58 175.24 22ZM178.86 27L181.32 27.22C180.46 34.06 178.4 38.34 173.34 40.88C173.1 40.3 172.4 39.2 171.96 38.68C176.52 36.68 178.26 32.92 178.86 27ZM176.38 27.42C177.18 32.48 178.94 36.8 182.62 38.68C182.06 39.16 181.3 40.12 180.94 40.78C176.92 38.38 175.18 33.74 174.2 27.76L176.38 27.42ZM165.82 36.98L167.1 35.34C169.46 36.24 171.96 37.64 173.32 38.72L171.66 40.42C170.38 39.3 168.06 37.9 165.82 36.98ZM191.98 22.12H194.2V40.76H191.98V22.12ZM188.96 28.68H197.16V30.92H188.96V28.68ZM191.56 29.88L192.88 30.52C192.24 33.2 191 36.68 189.68 38.6C189.46 37.86 188.94 36.8 188.58 36.12C189.78 34.64 191 31.86 191.56 29.88ZM194.16 31.04C194.74 31.56 196.68 33.88 197.12 34.44L195.64 36.32C195.12 35.18 193.78 32.96 193.06 31.98L194.16 31.04ZM188.92 23.66L190.6 23.22C191.12 24.68 191.52 26.58 191.62 27.84L189.82 28.32C189.78 27.06 189.4 25.12 188.92 23.66ZM195.52 23.12L197.54 23.56C197.02 25.18 196.42 27.08 195.92 28.26L194.42 27.84C194.82 26.56 195.3 24.54 195.52 23.12ZM203.08 22H205.34V40.78H203.08V22ZM197.1 34.52L207.38 32.68L207.74 34.9L197.48 36.76L197.1 34.52ZM198.24 24.74L199.42 23.1C200.54 23.78 201.96 24.78 202.62 25.52L201.36 27.34C200.76 26.56 199.36 25.46 198.24 24.74ZM197.34 29.78L198.46 28.06C199.62 28.68 201.12 29.64 201.84 30.38L200.64 32.28C199.96 31.54 198.5 30.46 197.34 29.78ZM214.16 29.9H232.68V32.52H214.16V29.9ZM246.2 23.94H256.78V31.92H246.12V29.98H254.5V25.88H246.2V23.94ZM250.08 22H252.38V40.78H250.08V22ZM245.4 26.9H258V28.94H245.4V26.9ZM245.04 35.96H257.78V38.02H245.04V35.96ZM245.84 32.92H256.98V34.88H245.84V32.92ZM243.68 26.46L245.72 27.32C244.3 29.72 242.04 32.38 240.08 34.04C239.92 33.52 239.32 32.22 238.98 31.62C240.64 30.36 242.54 28.4 243.68 26.46ZM243.22 22.06L245.5 22.96C244.2 24.8 242.2 26.78 240.36 28C240.12 27.44 239.54 26.46 239.16 25.98C240.7 25.02 242.4 23.38 243.22 22.06ZM241.8 30.92L243.94 28.78L244.04 28.84V40.8H241.8V30.92Z" fill="#3C2C25"/>
<path d="M269 40.6064L290.213 19.3932" stroke="black" stroke-width="2" stroke-linecap="round"/>
<path d="M169.41 108H189.41V117L169.41 108Z" fill="#3C2C25"/>
<rect x="42.8718" y="67" width="260.256" height="41.5094" rx="19" fill="#3C2C25"/>
<path d="M108.572 81.1809C109.496 81.6849 111.036 82.6649 111.764 83.1829L110.728 84.7229C109.944 84.1769 108.488 83.2389 107.564 82.7209L108.572 81.1809ZM105.982 91.1209C107.55 90.8549 109.216 90.3789 110.742 89.5389C113.122 88.2089 115.082 86.2909 116.188 84.2889L117.266 86.1929C115.978 88.1389 113.99 89.9029 111.708 91.2329C110.28 92.0309 108.264 92.7309 107.032 92.9549L105.982 91.1209ZM106.416 84.3729C107.354 84.8769 108.894 85.8289 109.622 86.3469L108.586 87.9149C107.802 87.3549 106.346 86.4169 105.408 85.9129L106.416 84.3729ZM124.266 82.7489C124.784 82.8049 125.428 82.8329 125.918 82.8329C127.094 82.8329 130.944 82.8329 131.714 82.8329C132.274 82.8329 132.862 82.8049 133.268 82.7489V84.7789C132.862 84.7649 132.204 84.7369 131.714 84.7369C130.972 84.7369 126.702 84.7369 125.918 84.7369C125.386 84.7369 124.742 84.7649 124.266 84.7789V82.7489ZM123.09 89.6089C123.636 89.6369 124.294 89.6929 124.854 89.6929C125.736 89.6929 132.008 89.6929 132.89 89.6929C133.352 89.6929 133.954 89.6509 134.43 89.6089V91.7509C133.926 91.6949 133.296 91.6529 132.89 91.6529C132.008 91.6529 125.736 91.6529 124.854 91.6529C124.294 91.6529 123.622 91.6949 123.09 91.7509V89.6089ZM152.896 82.7909C152.756 82.9729 152.49 83.3089 152.364 83.5049C151.706 84.5969 150.376 86.3749 148.99 87.3549L147.534 86.1929C148.668 85.5069 149.76 84.2749 150.124 83.5889C149.27 83.5889 143.698 83.5889 142.816 83.5889C142.242 83.5889 141.766 83.6169 141.108 83.6869V81.7269C141.654 81.8109 142.242 81.8809 142.816 81.8809C143.698 81.8809 149.634 81.8809 150.362 81.8809C150.754 81.8809 151.524 81.8249 151.79 81.7549L152.896 82.7909ZM147.198 84.6669C147.198 88.1389 147.114 90.9949 143.306 93.0529L141.668 91.7229C142.13 91.5689 142.634 91.3309 143.152 90.9389C144.916 89.7069 145.252 88.2369 145.252 85.9409C145.252 85.4929 145.238 85.1289 145.168 84.6669H147.198ZM163.004 80.7049H164.922C164.796 83.0569 164.614 89.8889 158.888 93.4029C158.594 92.9689 158.048 92.4509 157.474 92.0589C163.102 88.9369 162.906 82.5389 163.004 80.7049ZM164.866 81.0689C164.908 82.2869 165.202 89.2729 170.942 91.9609C170.41 92.3669 169.906 92.9269 169.654 93.3889C163.62 90.3929 163.354 82.6789 163.242 81.2369L164.866 81.0689ZM181.47 83.2669H188.344V84.8629H181.47V83.2669ZM185.222 80.3829H187V91.4569C187 92.4089 186.804 92.8709 186.23 93.1369C185.656 93.4169 184.774 93.4589 183.556 93.4589C183.472 92.9829 183.22 92.2269 182.982 91.7649C183.752 91.7929 184.62 91.7789 184.872 91.7789C185.124 91.7789 185.222 91.6949 185.222 91.4569V80.3829ZM185.082 84.0369L186.44 84.8629C185.418 87.2989 183.458 89.9589 181.484 91.4429C181.204 90.9949 180.686 90.4069 180.266 90.0709C182.226 88.8249 184.144 86.3189 185.082 84.0369ZM175.45 83.2529H181.078V84.8629H175.45V83.2529ZM177.606 80.3689H179.3V93.5149H177.606V80.3689ZM177.55 84.3309L178.642 84.7229C178.11 87.0329 177.116 89.7349 175.912 91.2049C175.744 90.6869 175.324 89.9729 175.044 89.5249C176.136 88.2929 177.116 86.1509 177.55 84.3309ZM179.174 85.1149C179.622 85.4649 181.148 87.0189 181.484 87.3969L180.504 88.8389C180.014 88.0409 178.894 86.5849 178.348 85.9409L179.174 85.1149ZM198.718 82.4689C200.44 82.7069 203.24 82.6369 204.738 82.4549V84.2609C203.03 84.4289 200.482 84.4289 198.732 84.2609L198.718 82.4689ZM199.838 88.4469C199.726 88.9229 199.67 89.2589 199.67 89.6229C199.67 90.2529 200.216 90.6309 201.644 90.6309C202.89 90.6309 203.926 90.5189 205.144 90.2529L205.186 92.1429C204.276 92.3249 203.142 92.4229 201.56 92.4229C199.152 92.4229 197.99 91.5549 197.99 90.1269C197.99 89.5669 198.074 89.0209 198.242 88.3069L199.838 88.4469ZM196.562 81.5309C196.464 81.8249 196.282 82.5389 196.226 82.7909C196.03 83.7149 195.54 86.5149 195.54 87.9149C195.54 88.1949 195.554 88.5449 195.596 88.8249C195.806 88.3489 196.03 87.8729 196.24 87.3969L197.108 88.0829C196.702 89.2589 196.24 90.7709 196.1 91.5129C196.058 91.7229 196.016 92.0309 196.016 92.1709C196.03 92.3249 196.03 92.5629 196.044 92.7589L194.434 92.8569C194.154 91.9049 193.888 90.1969 193.888 88.2929C193.888 86.1789 194.308 83.8269 194.462 82.7349C194.518 82.3569 194.588 81.8249 194.602 81.3769L196.562 81.5309ZM217.17 83.5609H222V84.9329H217.17V83.5609ZM214.762 91.6669C216.036 91.4849 217.996 91.1349 219.872 90.7989L219.998 92.2549C218.374 92.6329 216.652 93.0109 215.322 93.3049L214.762 91.6669ZM216.218 80.9989H217.856V92.0589H216.218V80.9989ZM217.17 80.9989H222.756V87.5369H217.17V86.0949H221.104V82.4409H217.17V80.9989ZM220.096 86.5849C220.6 89.0769 221.678 91.1489 223.736 92.0589C223.372 92.3809 222.882 93.0389 222.644 93.4729C220.39 92.2829 219.298 89.9029 218.696 86.8089L220.096 86.5849ZM222.112 87.6349L223.428 88.5589C222.658 89.2869 221.762 90.0709 221.062 90.5749L220.012 89.7629C220.684 89.2169 221.594 88.3349 222.112 87.6349ZM211.122 80.9709H214.622V82.4689H212.69V93.5289H211.122V80.9709ZM214.16 80.9709H214.454L214.692 80.9149L215.826 81.5729C215.448 82.7909 214.944 84.3449 214.51 85.4369C215.434 86.5289 215.616 87.4949 215.616 88.3069C215.616 89.2449 215.406 89.8329 214.944 90.1549C214.72 90.3229 214.44 90.4209 214.118 90.4629C213.852 90.5049 213.488 90.5049 213.152 90.4909C213.138 90.0709 213.012 89.4129 212.774 88.9929C213.04 89.0209 213.236 89.0209 213.418 89.0209C213.572 89.0069 213.712 88.9789 213.838 88.8949C214.02 88.7689 214.09 88.4889 214.09 88.0969C214.09 87.4389 213.88 86.5709 213.054 85.6189C213.46 84.3589 213.936 82.3709 214.16 81.4749V80.9709ZM232.794 81.0129C232.598 81.6989 232.304 83.1409 232.22 83.9249C232.892 82.8469 234.124 81.6569 235.692 81.6569C237.638 81.6569 239.15 83.5749 239.15 86.6549C239.15 90.6169 236.728 92.4929 233.018 93.1789L231.954 91.5549C235.076 91.0789 237.26 90.0429 237.26 86.6549C237.26 84.4989 236.532 83.2949 235.37 83.2949C233.718 83.2949 232.262 85.7869 232.206 87.6209C232.178 88.0129 232.192 88.4609 232.262 89.1049L230.54 89.2309C230.456 88.6849 230.372 87.8309 230.372 86.8929C230.372 85.5769 230.554 83.8549 230.764 82.3989C230.82 81.8809 230.862 81.3209 230.876 80.9429L232.794 81.0129Z" fill="white"/>
<path d="M31.0096 176V171.92H26.7616V170.192H31.0096V168.632H26.7616V166.856H30.2176L26.1136 158.696H29.7376L31.3216 162.608C31.8016 163.784 32.2576 165.008 32.7616 166.208H32.8576C33.3616 164.984 33.8176 163.784 34.3216 162.608L35.8816 158.696H39.4336L35.2816 166.856H38.7856V168.632H34.5136V170.192H38.7856V171.92H34.5136V176H31.0096ZM51.2859 176V168.384H61.5259V138.432H52.8859V132.608C57.6859 131.712 60.8859 130.496 63.9579 128.64H70.9339V168.384H79.8299V176H51.2859ZM105.996 176.896C98.5079 176.896 93.5159 173.952 89.9319 170.432L94.3479 164.48C96.9719 167.104 100.364 169.28 104.716 169.28C109.708 169.28 113.1 166.144 113.1 160.512C113.1 155.008 109.9 151.936 105.164 151.936C102.348 151.936 100.812 152.64 98.0599 154.432L93.7079 151.616L95.0519 128.64H120.396V136.512H103.18L102.284 146.56C104.14 145.728 105.804 145.28 107.98 145.28C115.916 145.28 122.572 149.952 122.572 160.32C122.572 170.816 114.7 176.896 105.996 176.896ZM149.442 176.896C139.778 176.896 133.378 168.512 133.378 152.128C133.378 135.808 139.778 127.808 149.442 127.808C159.042 127.808 165.442 135.808 165.442 152.128C165.442 168.512 159.042 176.896 149.442 176.896ZM149.442 169.536C153.538 169.536 156.546 165.44 156.546 152.128C156.546 138.88 153.538 135.04 149.442 135.04C145.346 135.04 142.274 138.88 142.274 152.128C142.274 165.44 145.346 169.536 149.442 169.536ZM178.104 189.696L176.184 184.576C181.176 182.72 183.928 179.328 183.864 175.552L183.544 168.896L186.872 174.4C185.912 175.36 184.632 175.808 183.224 175.808C180.152 175.808 177.336 173.76 177.336 170.24C177.336 166.848 180.088 164.672 183.48 164.672C187.768 164.672 190.2 168.128 190.2 173.888C190.2 181.44 185.912 187.136 178.104 189.696ZM216.964 176.896C207.3 176.896 200.9 168.512 200.9 152.128C200.9 135.808 207.3 127.808 216.964 127.808C226.564 127.808 232.964 135.808 232.964 152.128C232.964 168.512 226.564 176.896 216.964 176.896ZM216.964 169.536C221.06 169.536 224.068 165.44 224.068 152.128C224.068 138.88 221.06 135.04 216.964 135.04C212.868 135.04 209.796 138.88 209.796 152.128C209.796 165.44 212.868 169.536 216.964 169.536ZM259.194 176.896C249.53 176.896 243.13 168.512 243.13 152.128C243.13 135.808 249.53 127.808 259.194 127.808C268.794 127.808 275.194 135.808 275.194 152.128C275.194 168.512 268.794 176.896 259.194 176.896ZM259.194 169.536C263.29 169.536 266.298 165.44 266.298 152.128C266.298 138.88 263.29 135.04 259.194 135.04C255.098 135.04 252.026 138.88 252.026 152.128C252.026 165.44 255.098 169.536 259.194 169.536ZM301.424 176.896C291.76 176.896 285.36 168.512 285.36 152.128C285.36 135.808 291.76 127.808 301.424 127.808C311.024 127.808 317.424 135.808 317.424 152.128C317.424 168.512 311.024 176.896 301.424 176.896ZM301.424 169.536C305.52 169.536 308.528 165.44 308.528 152.128C308.528 138.88 305.52 135.04 301.424 135.04C297.328 135.04 294.256 138.88 294.256 152.128C294.256 165.44 297.328 169.536 301.424 169.536Z" fill="#F7931E"/>
<path d="M11.5561 208.44C11.3161 207.32 11.0361 206.36 10.7161 205.44L16.3961 204.52C16.4761 205.28 16.6361 206.64 16.7961 207.6C17.1961 210.24 21.1561 230.48 21.9961 234.56C22.2761 235.72 22.6361 237.16 22.9961 238.48L17.2361 239.48C17.0361 238 16.9561 236.64 16.6761 235.44C16.0761 231.84 12.1961 211.68 11.5561 208.44ZM0.636094 213.56C1.87609 213.48 3.07609 213.4 4.35609 213.24C7.75609 212.84 21.7561 210.68 25.3561 209.96C26.5961 209.76 28.1161 209.4 29.0761 209.12L30.0761 214.4C29.1961 214.44 27.5561 214.68 26.3561 214.84C22.1161 215.52 8.35609 217.72 5.35609 218.24C4.11609 218.48 3.07609 218.72 1.71609 219.08L0.636094 213.56ZM0.676094 225.28C1.71609 225.24 3.55609 225.04 4.79609 224.84C9.07609 224.24 23.6761 221.88 28.2761 221C29.8361 220.72 31.3161 220.36 32.3961 220.08L33.4361 225.36C32.3561 225.44 30.7161 225.72 29.2361 225.96C24.1561 226.72 9.75609 229.08 5.79609 229.84C4.07609 230.16 2.67609 230.4 1.79609 230.64L0.676094 225.28ZM75.7961 211.6C75.9161 212.56 76.1961 213.6 76.4361 214.64C77.7961 219.44 81.5561 233.2 82.5561 236.52C82.7561 237.24 83.3161 239 83.5961 239.8L78.1961 241.16C78.0361 240.08 77.7961 238.76 77.4761 237.64C76.4761 234.16 72.8361 219.88 71.5561 215.72C71.2761 214.72 70.8361 213.72 70.3961 212.88L75.7961 211.6ZM94.9961 217.8C93.2761 221.28 89.2761 227.32 86.4761 230.28L82.0361 228.08C84.1161 226.24 86.8761 222.88 87.9561 220.92C85.8761 221.28 69.5961 224.68 66.3161 225.4L65.0761 220.64C66.3161 220.52 67.4361 220.4 68.7561 220.16C70.9161 219.84 86.9161 216.8 89.7561 216.16C90.4361 216 91.2361 215.76 91.7561 215.52L94.9961 217.8ZM132.236 206.6C134.996 208.48 140.196 212.64 142.556 215.08L138.476 219.24C136.396 217 131.356 212.64 128.436 210.64L132.236 206.6ZM127.196 233.24C133.476 232.36 138.636 230.32 142.516 228.04C149.356 223.96 154.556 217.88 157.116 212.48L160.196 218.08C157.196 223.52 151.876 229.04 145.436 232.92C141.356 235.36 136.196 237.56 130.596 238.52L127.196 233.24ZM214.276 212.52C214.276 213.92 215.436 215.08 216.836 215.08C218.236 215.08 219.356 213.92 219.356 212.52C219.356 211.12 218.236 210 216.836 210C215.436 210 214.276 211.12 214.276 212.52ZM211.636 212.52C211.636 209.64 213.956 207.32 216.836 207.32C219.716 207.32 222.036 209.64 222.036 212.52C222.036 215.4 219.716 217.72 216.836 217.72C213.956 217.72 211.636 215.4 211.636 212.52ZM186.796 225.64C187.956 224.64 188.836 223.8 190.076 222.56C191.876 220.76 194.996 216.84 197.756 213.56C200.156 210.72 202.516 210.28 205.596 213.2C208.316 215.76 211.356 218.92 213.756 221.52C216.436 224.4 220.556 228.8 223.636 232.08L219.196 236.84C216.516 233.52 213.156 229.36 210.796 226.6C208.436 223.84 204.916 219.96 203.476 218.48C202.156 217.2 201.316 217.28 200.196 218.72C198.596 220.76 195.796 224.68 194.156 226.88C193.236 228.12 192.316 229.56 191.596 230.6L186.796 225.64ZM251.836 218.48C253.316 218.6 256.196 218.76 258.276 218.76C262.996 218.76 276.196 218.76 279.756 218.76C281.636 218.76 283.396 218.56 284.476 218.48V224.8C283.516 224.76 281.476 224.56 279.796 224.56C276.156 224.56 262.996 224.56 258.276 224.56C256.036 224.56 253.356 224.68 251.836 224.8V218.48ZM318.644 206.6C321.404 208.48 326.604 212.64 328.964 215.08L324.884 219.24C322.804 217 317.764 212.64 314.844 210.64L318.644 206.6ZM313.604 233.24C319.884 232.36 325.044 230.32 328.924 228.04C335.764 223.96 340.964 217.88 343.524 212.48L346.604 218.08C343.604 223.52 338.284 229.04 331.844 232.92C327.764 235.36 322.604 237.56 317.004 238.52L313.604 233.24Z" fill="#3C2C25"/>
</svg>
