<svg width="353" height="52" viewBox="0 0 353 52" fill="none" xmlns="http://www.w3.org/2000/svg">
<path d="M251.825 35.92C251.825 32.8 253.089 30.272 255.009 28.32L255.969 28.816C254.113 30.72 252.977 33.072 252.977 35.92C252.977 38.784 254.113 41.136 255.969 43.04L255.009 43.536C253.089 41.584 251.825 39.056 251.825 35.92ZM341.569 35.92C341.569 39.056 340.305 41.584 338.385 43.536L337.425 43.04C339.281 41.136 340.417 38.784 340.417 35.92C340.417 33.072 339.281 30.72 337.425 28.816L338.385 28.32C340.305 30.272 341.569 32.8 341.569 35.92Z" fill="#444444"/>
<path d="M264.785 37.984H271.409V39.024H264.785V37.984ZM263.793 41.808H272.129V42.88H263.793V41.808ZM264.513 29.36H270.689V30.432H264.513V29.36ZM267.489 35.904H268.673V42.448H267.489V35.904ZM270.353 29.36H270.577L270.801 29.312L271.553 29.632C270.417 33.376 267.649 35.584 264.513 36.64C264.385 36.336 264.097 35.904 263.857 35.648C266.737 34.816 269.425 32.704 270.353 29.584V29.36ZM266.225 30.4C267.249 32.912 269.425 34.848 272.321 35.6C272.065 35.84 271.729 36.272 271.569 36.592C268.577 35.664 266.369 33.568 265.217 30.688L266.225 30.4ZM257.521 30.288H264.177V31.36H257.521V30.288ZM257.329 39.424H264.305V40.496H257.329V39.424ZM260.289 28.56H261.377V32.96H260.289V28.56ZM260.401 33.008H261.281V37.664H261.377V43.312H260.289V37.664H260.401V33.008ZM258.705 35.76V37.248H262.993V35.76H258.705ZM258.705 33.456V34.912H262.993V33.456H258.705ZM257.793 32.56H263.937V38.128H257.793V32.56ZM280.497 31.248H288.081V32.4H279.937L280.497 31.248ZM282.497 34.72H287.713V35.824H282.497V34.72ZM282.481 38.24H287.937V39.376H282.481V38.24ZM281.889 31.616H283.121V43.28H281.889V31.616ZM281.105 28.752L282.273 29.056C281.361 31.6 279.969 34.112 278.497 35.76C278.321 35.552 277.841 35.12 277.569 34.928C279.025 33.44 280.321 31.104 281.105 28.752ZM277.265 28.624L278.417 28.992C277.361 31.696 275.713 34.432 273.969 36.224C273.857 35.936 273.489 35.296 273.265 35.008C274.865 33.456 276.353 31.056 277.265 28.624ZM275.553 32.752L276.737 31.552L276.769 31.568V43.264H275.553V32.752ZM289.713 38.448H303.729V39.456H289.713V38.448ZM289.777 31.424H303.665V32.448H289.777V31.424ZM290.417 34.16H303.089V35.152H290.417V34.16ZM291.233 36.32H302.305V37.248H291.233V36.32ZM296.081 34.624H297.265V43.296H296.081V34.624ZM294.609 28.56H295.745V31.904H294.609V28.56ZM297.633 28.56H298.785V31.856H297.633V28.56ZM295.697 38.848L296.657 39.296C295.169 40.96 292.465 42.352 290.081 43.024C289.905 42.72 289.553 42.256 289.297 42C291.665 41.472 294.337 40.24 295.697 38.848ZM297.649 38.816C299.009 40.256 301.697 41.488 304.129 42C303.857 42.256 303.489 42.736 303.313 43.072C300.881 42.4 298.209 40.944 296.705 39.216L297.649 38.816ZM301.345 28.752L302.577 29.088C302.113 29.968 301.537 30.912 301.089 31.536L300.113 31.216C300.545 30.544 301.073 29.488 301.345 28.752ZM299.201 32.144L300.449 32.448C300.049 33.168 299.633 33.904 299.281 34.416L298.273 34.112C298.593 33.552 299.009 32.72 299.201 32.144ZM291.073 29.088L292.097 28.72C292.641 29.44 293.233 30.448 293.457 31.104L292.385 31.504C292.161 30.864 291.585 29.84 291.073 29.088ZM293.153 32.56L294.289 32.336C294.657 32.864 295.025 33.584 295.169 34.064L293.985 34.32C293.857 33.84 293.505 33.088 293.153 32.56ZM314.305 29.52H319.105V30.656H315.473V43.296H314.305V29.52ZM305.777 30.336H313.425V31.408H305.777V30.336ZM305.361 34.768H313.633V35.872H305.361V34.768ZM308.993 28.624H310.161V30.992H308.993V28.624ZM306.769 31.968L307.777 31.744C308.129 32.544 308.433 33.616 308.529 34.32L307.457 34.576C307.377 33.872 307.105 32.784 306.769 31.968ZM311.361 31.632L312.513 31.904C312.161 32.848 311.777 33.92 311.425 34.624L310.465 34.368C310.785 33.632 311.169 32.448 311.361 31.632ZM306.865 41.296H312.129V42.368H306.865V41.296ZM306.433 37.264H312.737V43.216H311.585V38.336H307.553V43.296H306.433V37.264ZM318.785 29.52H319.025L319.217 29.472L320.097 30.032C319.441 31.536 318.609 33.392 317.873 34.864C319.489 36.352 319.873 37.616 319.889 38.768C319.889 39.744 319.665 40.496 319.105 40.88C318.817 41.056 318.465 41.168 318.049 41.232C317.649 41.28 317.121 41.264 316.657 41.248C316.641 40.912 316.529 40.4 316.321 40.064C316.785 40.096 317.249 40.112 317.569 40.096C317.841 40.08 318.065 40.016 318.257 39.904C318.609 39.696 318.721 39.232 318.721 38.64C318.705 37.632 318.241 36.432 316.625 35.024C317.441 33.376 318.305 31.168 318.785 29.904V29.52ZM322.737 31.744H327.185V32.656H322.737V31.744ZM330.097 31.744H334.625V32.656H330.097V31.744ZM334.113 29.328H335.313V41.648C335.313 42.464 335.121 42.848 334.577 43.04C334.017 43.248 333.073 43.264 331.617 43.264C331.553 42.928 331.345 42.368 331.169 42.016C332.273 42.08 333.377 42.064 333.697 42.048C334.017 42.032 334.113 41.952 334.113 41.648V29.328ZM322.833 29.328H327.889V35.2H322.833V34.192H326.753V30.336H322.833V29.328ZM334.737 29.328V30.336H330.545V34.208H334.737V35.216H329.393V29.328H334.737ZM322.161 29.328H323.345V43.28H322.161V29.328Z" fill="#3C2C25"/>
<path d="M11.317 42.504C5.88096 42.504 2.28096 37.788 2.28096 28.572C2.28096 19.392 5.88096 14.892 11.317 14.892C16.717 14.892 20.317 19.392 20.317 28.572C20.317 37.788 16.717 42.504 11.317 42.504ZM11.317 38.364C13.621 38.364 15.313 36.06 15.313 28.572C15.313 21.12 13.621 18.96 11.317 18.96C9.01296 18.96 7.28496 21.12 7.28496 28.572C7.28496 36.06 9.01296 38.364 11.317 38.364ZM31.7593 42.504C27.5473 42.504 24.7033 40.956 22.8313 38.796L25.3513 35.448C26.9353 36.996 28.8433 38.22 31.2553 38.22C33.9913 38.22 35.8273 36.852 35.8273 34.476C35.8273 31.848 34.2793 30.228 28.4833 30.228V26.412C33.3793 26.412 34.9633 24.756 34.9633 22.38C34.9633 20.292 33.6673 19.032 31.3993 19.032C29.4913 19.032 27.9433 19.932 26.3593 21.408L23.6593 18.132C25.9633 16.152 28.5193 14.892 31.6153 14.892C36.7633 14.892 40.2553 17.412 40.2553 21.984C40.2553 24.828 38.6713 26.952 35.8273 28.032V28.212C38.8513 29.076 41.1553 31.272 41.1553 34.8C41.1553 39.696 36.8713 42.504 31.7593 42.504ZM44.8937 33.612V29.832H54.7577V33.612H44.8937ZM66.4259 42.504C62.2139 42.504 59.4059 40.848 57.3899 38.868L59.8739 35.52C61.3499 36.996 63.2579 38.22 65.7059 38.22C68.5139 38.22 70.4219 36.456 70.4219 33.288C70.4219 30.192 68.6219 28.464 65.9579 28.464C64.3739 28.464 63.5099 28.86 61.9619 29.868L59.5139 28.284L60.2699 15.36H74.5259V19.788H64.8419L64.3379 25.44C65.3819 24.972 66.3179 24.72 67.5419 24.72C72.0059 24.72 75.7499 27.348 75.7499 33.18C75.7499 39.084 71.3219 42.504 66.4259 42.504ZM89.0643 42.504C84.0243 42.504 79.4883 38.436 79.4883 29.04C79.4883 19.14 84.4203 14.892 89.8203 14.892C93.0603 14.892 95.4363 16.224 97.0563 17.916L94.2123 21.048C93.3123 20.004 91.6563 19.14 90.1443 19.14C86.9043 19.14 84.3483 21.624 84.3483 29.04C84.3483 35.952 86.3643 38.508 88.9923 38.508C90.9723 38.508 92.5923 36.852 92.5923 33.612C92.5923 30.444 91.0803 29.004 88.8123 29.004C87.3363 29.004 85.6443 29.796 84.3123 31.992L84.0963 28.392C85.5003 26.412 87.9843 25.26 89.7843 25.26C94.2483 25.26 97.4523 27.888 97.4523 33.612C97.4523 39.084 93.6003 42.504 89.0643 42.504ZM109.543 42.504C104.431 42.504 100.651 39.588 100.651 35.412C100.651 31.992 102.739 29.724 105.187 28.428V28.284C103.171 26.808 101.659 24.756 101.659 21.948C101.659 17.664 105.079 14.928 109.723 14.928C114.439 14.928 117.463 17.736 117.463 21.984C117.463 24.648 115.771 26.844 114.043 28.104V28.284C116.491 29.616 118.507 31.74 118.507 35.412C118.507 39.444 114.907 42.504 109.543 42.504ZM111.235 26.808C112.531 25.44 113.143 23.928 113.143 22.344C113.143 20.148 111.811 18.636 109.615 18.636C107.779 18.636 106.339 19.824 106.339 21.948C106.339 24.432 108.427 25.692 111.235 26.808ZM109.651 38.76C111.955 38.76 113.575 37.5 113.575 35.196C113.575 32.424 111.091 31.308 107.671 29.868C106.195 31.02 105.187 32.82 105.187 34.8C105.187 37.212 107.167 38.76 109.651 38.76ZM132.289 42V25.62C132.289 24.072 132.433 21.66 132.505 20.076H132.361C131.677 21.516 130.957 22.992 130.201 24.432L126.097 31.056H140.389V35.124H120.949V31.488L130.849 15.36H137.221V42H132.289ZM143.155 33.612V29.832H153.019V33.612H143.155ZM156.264 42V38.976C163.536 32.46 167.784 27.456 167.784 23.352C167.784 20.688 166.38 19.032 163.824 19.032C161.844 19.032 160.296 20.292 158.928 21.804L156.012 18.924C158.46 16.296 160.872 14.892 164.508 14.892C169.512 14.892 172.896 18.096 172.896 23.064C172.896 27.924 168.864 33.108 164.004 37.86C165.336 37.716 167.1 37.536 168.36 37.536H174.12V42H156.264ZM182.646 42C183.15 32.784 184.662 26.844 189.774 19.788H177.786V15.36H195.462V18.564C189.27 26.124 188.478 31.596 188.01 42H182.646ZM206.4 42.504C203.052 42.504 200.676 41.136 199.056 39.48L201.864 36.276C202.872 37.392 204.492 38.22 206.076 38.22C209.208 38.22 211.764 35.7 211.764 28.068C211.764 21.264 209.712 18.852 207.12 18.852C205.104 18.852 203.484 20.472 203.484 23.784C203.484 26.88 204.996 28.392 207.264 28.392C208.776 28.392 210.432 27.564 211.728 25.368L212.016 28.968C210.576 30.948 208.164 32.136 206.292 32.136C201.828 32.136 198.66 29.436 198.66 23.784C198.66 18.276 202.476 14.892 207.012 14.892C212.088 14.892 216.624 18.852 216.624 28.068C216.624 38.148 211.692 42.504 206.4 42.504ZM230.551 42V25.62C230.551 24.072 230.695 21.66 230.767 20.076H230.623C229.939 21.516 229.219 22.992 228.463 24.432L224.359 31.056H238.651V35.124H219.211V31.488L229.111 15.36H235.483V42H230.551Z" fill="#F7931E"/>
</svg>
