<svg width="348" height="54" viewBox="0 0 348 54" fill="none" xmlns="http://www.w3.org/2000/svg">
<path d="M85.077 35.26H94.995V37.222H85.077V35.26ZM86.931 30.832H94.545V32.794H86.931V30.832ZM89.037 27.718H91.143V44.62H89.037V27.718ZM88.461 36.268L90.135 36.772C89.109 39.634 87.399 42.298 85.329 43.81C85.005 43.288 84.357 42.532 83.889 42.154C85.833 40.948 87.579 38.608 88.461 36.268ZM91.827 36.358C92.565 38.482 94.005 40.732 95.499 41.992C95.013 42.37 94.293 43.126 93.933 43.684C92.439 42.118 91.107 39.4 90.315 36.826L91.827 36.358ZM86.319 28.6L88.281 28.942C87.939 31.264 87.237 33.55 86.301 34.99C85.923 34.684 85.077 34.144 84.591 33.91C85.491 32.632 86.031 30.616 86.319 28.6ZM78.435 31.084H84.933V33.064H78.435V31.084ZM80.775 27.718H82.881V44.62H80.775V27.718ZM80.757 32.56L81.909 33.01C81.405 35.998 80.325 39.508 79.083 41.38C78.867 40.75 78.399 39.76 78.039 39.184C79.245 37.672 80.289 34.828 80.757 32.56ZM82.791 33.478C83.205 34 84.699 36.34 85.005 36.88L83.763 38.338C83.367 37.258 82.341 35.152 81.837 34.234L82.791 33.478ZM108.531 28.906L109.971 27.718C110.781 28.276 111.843 29.122 112.347 29.716L110.835 31.012C110.367 30.4 109.359 29.5 108.531 28.906ZM96.615 30.778H112.815V32.884H96.615V30.778ZM97.281 34.954H105.075V37.042H97.281V34.954ZM100.017 36.142H102.177V42.244H100.017V36.142ZM96.597 41.938C98.775 41.614 102.303 41.002 105.543 40.39L105.705 42.316C102.735 42.964 99.549 43.63 97.209 44.116L96.597 41.938ZM105.453 27.79H107.775C107.613 35.188 108.981 42.37 110.691 42.37C111.087 42.37 111.285 41.38 111.393 39.112C111.879 39.616 112.671 40.138 113.283 40.354C112.959 43.792 112.221 44.638 110.511 44.638C106.605 44.638 105.471 36.124 105.453 27.79ZM115.353 41.974C118.575 41.884 123.579 41.704 128.115 41.506L128.043 43.486C123.633 43.738 118.881 43.954 115.641 44.08L115.353 41.974ZM115.263 36.61H130.239V38.626H115.263V36.61ZM118.467 33.154H126.909V35.134H118.467V33.154ZM119.673 37.924L122.139 38.608C121.293 40.3 120.321 42.172 119.511 43.378L117.621 42.748C118.359 41.434 119.223 39.436 119.673 37.924ZM124.137 39.778L126.045 38.788C127.665 40.174 129.339 42.064 130.167 43.432L128.169 44.638C127.413 43.27 125.685 41.218 124.137 39.778ZM122.679 29.824C121.221 31.876 118.413 34.18 115.425 35.602C115.173 35.08 114.597 34.27 114.147 33.802C117.225 32.452 120.105 29.878 121.437 27.754H123.723C125.631 30.4 128.493 32.452 131.355 33.478C130.833 34.018 130.347 34.792 129.951 35.44C127.251 34.18 124.209 31.912 122.679 29.824ZM139.059 41.992H149.319V44.116H139.059V41.992ZM139.797 33.298H148.887V35.368H139.797V33.298ZM143.235 27.898H145.449V43.018H143.235V27.898ZM132.597 31.048H138.501V33.01H132.597V31.048ZM135.171 37.204L137.313 34.648V44.638H135.171V37.204ZM135.171 27.736H137.313V31.966H135.171V27.736ZM137.097 35.26C137.727 35.692 139.761 37.492 140.247 37.942L138.933 39.688C138.231 38.752 136.719 37.096 135.909 36.304L137.097 35.26ZM137.709 31.048H138.141L138.519 30.976L139.725 31.768C138.357 35.278 135.639 38.428 132.957 40.12C132.759 39.544 132.255 38.482 131.931 38.068C134.379 36.736 136.755 34.09 137.709 31.444V31.048ZM162.819 29.194C163.323 29.95 164.061 31.138 164.457 31.966L162.909 32.65C162.369 31.516 161.973 30.742 161.307 29.806L162.819 29.194ZM165.303 28.312C165.861 29.032 166.563 30.22 166.995 31.012L165.447 31.696C164.871 30.562 164.439 29.86 163.773 28.96L165.303 28.312ZM155.007 28.834C156.195 29.482 158.175 30.76 159.111 31.408L157.761 33.406C156.771 32.704 154.881 31.48 153.693 30.814L155.007 28.834ZM151.677 41.614C153.675 41.272 155.835 40.678 157.797 39.598C160.857 37.888 163.359 35.422 164.799 32.848L166.185 35.296C164.511 37.78 161.973 40.066 159.021 41.758C157.203 42.802 154.611 43.702 153.027 43.99L151.677 41.614ZM152.235 32.938C153.441 33.586 155.421 34.828 156.339 35.476L155.025 37.492C153.999 36.79 152.145 35.566 150.921 34.936L152.235 32.938ZM171.513 32.848C171.981 32.884 173.079 32.92 173.745 32.92C175.221 32.92 179.073 32.92 180.567 32.92C180.981 32.92 181.647 32.902 181.935 32.884C181.917 33.136 181.917 33.73 181.917 34.108C181.917 34.828 181.917 41.704 181.917 43.126C181.917 43.414 181.935 44.044 181.935 44.35H179.685C179.703 44.062 179.703 43.378 179.703 43.018C179.703 41.182 179.703 35.548 179.703 34.954C179.001 34.954 175.203 34.954 173.745 34.954C173.079 34.954 171.963 34.99 171.513 35.008V32.848ZM171.981 37.06C172.449 37.096 173.277 37.114 173.961 37.114C174.843 37.114 180.261 37.114 180.747 37.114V39.166C180.243 39.166 174.843 39.166 173.961 39.166C173.277 39.166 172.413 39.166 171.981 39.202V37.06ZM171.333 41.47C171.621 41.506 172.233 41.542 172.881 41.542C173.997 41.542 179.991 41.542 180.765 41.542V43.648C179.775 43.648 173.997 43.648 172.881 43.648C172.359 43.648 171.621 43.684 171.333 43.684V41.47ZM186.813 36.016C190.035 35.188 192.663 34.018 194.679 32.776C196.515 31.642 198.567 29.842 199.737 28.42L201.681 30.256C200.043 31.912 197.847 33.604 195.723 34.882C193.689 36.088 190.773 37.438 187.929 38.284L186.813 36.016ZM194.301 33.946L196.857 33.334V41.452C196.857 42.244 196.893 43.36 197.019 43.81H194.157C194.229 43.378 194.301 42.244 194.301 41.452V33.946ZM208.035 29.32C209.277 30.166 211.617 32.038 212.679 33.136L210.843 35.008C209.907 34 207.639 32.038 206.325 31.138L208.035 29.32ZM205.767 41.308C208.593 40.912 210.915 39.994 212.661 38.968C215.739 37.132 218.079 34.396 219.231 31.966L220.617 34.486C219.267 36.934 216.873 39.418 213.975 41.164C212.139 42.262 209.817 43.252 207.297 43.684L205.767 41.308ZM227.331 41.29C227.331 39.904 227.331 32.452 227.331 30.94C227.331 30.292 227.277 29.41 227.151 28.762H229.959C229.887 29.41 229.797 30.184 229.797 30.94C229.797 32.92 229.815 39.958 229.815 41.29C229.815 41.794 229.887 43.054 229.977 43.792H227.151C227.277 43.09 227.331 41.992 227.331 41.29ZM229.275 33.424C231.669 34.09 235.557 35.512 237.321 36.376L236.313 38.878C234.261 37.816 231.237 36.664 229.275 36.016V33.424ZM250.083 28.312C250.011 28.726 249.957 29.41 249.957 29.968C249.957 30.508 249.957 31.426 249.957 31.966H247.599C247.599 31.426 247.599 30.598 247.599 29.968C247.599 29.392 247.581 28.744 247.509 28.312H250.083ZM255.105 32.164C254.655 32.632 254.097 33.226 253.719 33.658C252.711 34.81 251.199 36.304 249.561 37.456C247.617 38.842 244.863 40.03 242.073 40.876L240.687 38.752C244.161 37.978 246.465 36.736 248.013 35.728C249.399 34.846 250.515 33.784 251.055 33.046C250.083 33.046 245.295 33.046 244.539 33.046C243.891 33.046 242.757 33.082 242.181 33.136V30.778C242.865 30.868 243.873 30.886 244.485 30.886C245.295 30.886 251.055 30.886 252.117 30.886C252.675 30.886 253.197 30.832 253.611 30.724L255.105 32.164ZM249.921 36.088C249.921 37.384 249.921 40.282 249.921 41.74C249.921 42.442 249.975 43.468 250.029 44.026H247.455C247.509 43.522 247.581 42.442 247.581 41.74C247.581 40.354 247.581 38.14 247.581 37.06L249.921 36.088ZM255.375 41.038C253.809 39.814 252.621 39.058 251.073 38.176L252.549 36.466C254.205 37.348 255.141 37.888 256.869 39.058L255.375 41.038ZM266.769 32.326C267.111 33.082 267.993 35.44 268.245 36.268L266.103 37.006C265.869 36.142 265.077 33.964 264.645 33.028L266.769 32.326ZM273.411 33.622C273.213 34.216 273.105 34.594 272.997 34.954C272.529 36.772 271.755 38.644 270.531 40.21C268.857 42.388 266.625 43.882 264.519 44.692L262.629 42.766C264.591 42.226 267.111 40.858 268.587 38.986C269.811 37.474 270.693 35.08 270.891 32.812L273.411 33.622ZM262.593 33.262C263.043 34.18 263.925 36.376 264.267 37.384L262.071 38.194C261.783 37.24 260.865 34.828 260.433 34.054L262.593 33.262ZM281.331 41.29C281.331 39.904 281.331 32.452 281.331 30.94C281.331 30.292 281.277 29.41 281.151 28.762H283.959C283.887 29.41 283.797 30.184 283.797 30.94C283.797 32.92 283.815 39.958 283.815 41.29C283.815 41.794 283.887 43.054 283.977 43.792H281.151C281.277 43.09 281.331 41.992 281.331 41.29ZM283.275 33.424C285.669 34.09 289.557 35.512 291.321 36.376L290.313 38.878C288.261 37.816 285.237 36.664 283.275 36.016V33.424ZM309.933 30.94C309.825 31.21 309.645 31.912 309.609 32.164C309.285 34.036 308.871 36.664 307.467 38.842C305.973 41.182 303.525 42.982 300.627 43.99L298.629 41.956C301.041 41.344 303.831 39.868 305.235 37.618C306.153 36.16 306.693 34.144 306.873 32.218C305.739 32.218 299.529 32.218 298.251 32.218C298.251 32.758 298.251 34.486 298.251 35.206C298.251 35.476 298.251 36.124 298.305 36.682H295.659C295.713 36.142 295.749 35.692 295.749 35.206C295.749 34.486 295.749 32.254 295.749 31.408C295.749 30.922 295.731 30.382 295.677 29.914C296.235 29.95 297.045 29.968 297.873 29.968C298.593 29.968 305.199 29.968 306.477 29.968C307.089 29.968 307.701 29.932 308.187 29.842L309.933 30.94ZM313.335 34.666C314.001 34.72 315.297 34.792 316.233 34.792C318.357 34.792 324.297 34.792 325.899 34.792C326.745 34.792 327.537 34.702 328.023 34.666V37.51C327.591 37.492 326.673 37.402 325.917 37.402C324.279 37.402 318.357 37.402 316.233 37.402C315.225 37.402 314.019 37.456 313.335 37.51V34.666ZM345.879 31.822C345.681 32.164 345.429 32.65 345.285 33.1C344.799 34.72 343.773 37.114 342.135 39.112C340.425 41.2 338.265 42.856 334.881 44.188L332.757 42.298C336.429 41.182 338.427 39.616 340.011 37.834C341.235 36.43 342.279 34.27 342.567 32.938H336.501L337.329 30.886C338.121 30.886 341.901 30.886 342.459 30.886C343.017 30.886 343.629 30.814 344.025 30.67L345.879 31.822ZM340.011 28.96C339.579 29.59 339.111 30.418 338.913 30.796C337.689 32.974 335.547 35.512 332.955 37.276L330.939 35.782C334.089 33.856 335.673 31.534 336.555 29.986C336.825 29.554 337.203 28.726 337.365 28.096L340.011 28.96Z" fill="#3C2C25"/>
<path d="M0.836975 22.535H2.17698V24.255C2.17698 24.965 2.44698 25.485 2.97698 25.805C3.49698 26.125 4.33698 26.285 5.51697 26.285C6.69697 26.285 7.42698 26.085 7.85698 25.685C8.28697 25.285 8.49697 24.515 8.49697 23.395V16.215H9.85698V23.785C9.85698 25.155 9.50698 26.135 8.79698 26.715C8.08698 27.305 6.90697 27.595 5.24697 27.595C3.76697 27.595 2.66698 27.325 1.94698 26.785C1.21698 26.235 0.856975 25.415 0.856975 24.305V22.535H0.836975Z" fill="#D22D25"/>
<path d="M28.937 27.295V18.725H29.617L35.027 24.735V18.725H36.307V27.295H35.617L30.217 21.295V27.295H28.937Z" fill="#D22D25"/>
<path d="M41.247 27.295V19.925H37.647V18.725H46.147V19.925H42.557V27.295H41.247Z" fill="#D22D25"/>
<path d="M24.337 34.925V28.995H24.717L28.507 33.425V28.995H29.237V34.925H28.867L25.057 30.495V34.925H24.327H24.337Z" fill="#211815"/>
<path d="M30.887 34.925V30.335H35.137V31.025H31.587V32.155H33.917V32.825H31.587V34.255H35.337V34.925H30.877H30.887Z" fill="#211815"/>
<path d="M37.437 34.925V30.975H35.507V30.335H40.057V30.975H38.137V34.925H37.437Z" fill="#211815"/>
<path d="M41.637 34.925L40.087 30.335H40.797L41.897 33.705L43.047 30.335H43.647L44.787 33.705L45.897 30.335H46.597L45.077 34.925H44.557L43.357 31.405L42.137 34.925H41.647H41.637Z" fill="#211815"/>
<path d="M49.817 35.065C49.017 35.065 48.357 34.835 47.827 34.365C47.297 33.905 47.037 33.325 47.037 32.625C47.037 31.925 47.297 31.365 47.827 30.895C48.347 30.435 49.007 30.215 49.817 30.215C50.627 30.215 51.307 30.435 51.817 30.885C52.337 31.335 52.597 31.905 52.597 32.625C52.597 33.345 52.337 33.895 51.817 34.365C51.297 34.825 50.627 35.065 49.817 35.065ZM49.817 34.375C50.427 34.375 50.927 34.205 51.307 33.875C51.687 33.545 51.877 33.135 51.877 32.625C51.877 32.115 51.687 31.715 51.307 31.375C50.917 31.035 50.427 30.865 49.817 30.865C49.207 30.865 48.727 31.035 48.347 31.365C47.967 31.705 47.777 32.125 47.777 32.625C47.777 33.125 47.967 33.545 48.357 33.875C48.737 34.205 49.227 34.375 49.817 34.375Z" fill="#211815"/>
<path d="M54.477 32.915V34.915H53.777V30.325H56.897C57.347 30.325 57.707 30.435 57.977 30.665C58.247 30.895 58.377 31.215 58.377 31.615C58.377 31.945 58.277 32.235 58.077 32.475C57.867 32.715 57.597 32.865 57.257 32.915L58.527 34.915H57.757L56.457 32.915H54.487H54.477ZM54.477 32.245H56.897C57.147 32.245 57.337 32.195 57.467 32.085C57.597 31.975 57.657 31.815 57.657 31.625C57.657 31.435 57.587 31.275 57.457 31.165C57.327 31.055 57.137 31.005 56.887 31.005H54.467V32.245H54.477Z" fill="#211815"/>
<path d="M59.677 34.925V30.335H60.377V32.375L62.777 30.335H63.717L61.807 31.965L63.987 34.925H63.197L61.297 32.385L60.367 33.195V34.925H59.667H59.677Z" fill="#211815"/>
<path d="M22.027 24.885C22.297 24.315 22.447 23.695 22.447 23.015C22.447 21.685 21.967 20.595 20.997 19.765C20.037 18.925 18.787 18.505 17.257 18.505C15.727 18.505 14.517 18.935 13.547 19.785C12.567 20.655 12.077 21.735 12.077 23.015C12.077 24.295 12.567 25.415 13.547 26.265C14.027 26.695 14.577 27.015 15.177 27.225C15.247 28.315 15.717 29.305 16.607 30.195C17.507 31.095 18.497 31.575 19.597 31.635C20.687 31.695 21.617 31.345 22.387 30.575C23.177 29.785 23.537 28.855 23.457 27.785C23.387 26.745 22.907 25.775 22.047 24.885H22.027ZM13.437 23.005C13.437 22.065 13.787 21.275 14.497 20.655C15.217 20.035 16.127 19.725 17.247 19.725C18.367 19.725 19.307 20.045 20.027 20.675C20.747 21.295 21.097 22.075 21.097 23.005C21.097 23.365 21.027 23.695 20.927 24.005C20.317 23.635 19.687 23.415 19.007 23.375C17.907 23.305 16.977 23.655 16.217 24.415C15.787 24.845 15.497 25.335 15.327 25.855C15.037 25.715 14.757 25.545 14.507 25.335C13.787 24.725 13.417 23.945 13.417 23.005H13.437ZM20.437 24.915C20.317 25.065 20.187 25.205 20.037 25.335C19.327 25.965 18.397 26.275 17.257 26.275C16.967 26.275 16.687 26.255 16.427 26.205C16.547 25.845 16.747 25.515 17.047 25.225C17.607 24.665 18.287 24.415 19.077 24.465C19.557 24.505 20.017 24.665 20.457 24.925L20.437 24.915ZM21.587 29.765C21.027 30.325 20.357 30.575 19.567 30.515C18.777 30.465 18.037 30.105 17.367 29.425C16.777 28.835 16.447 28.195 16.347 27.495C16.647 27.535 16.947 27.565 17.267 27.565C18.787 27.565 20.037 27.135 21.007 26.265C21.177 26.115 21.317 25.945 21.457 25.775C21.997 26.385 22.297 27.045 22.347 27.755C22.397 28.545 22.147 29.225 21.597 29.775L21.587 29.765Z" fill="#D22D25"/>
<path d="M26.297 20.175C26.267 19.735 25.897 19.385 25.447 19.385C24.997 19.385 24.627 19.735 24.597 20.175V27.365H26.307V20.175H26.297Z" fill="#211815"/>
<path d="M26.477 17.335C26.477 17.925 25.997 18.405 25.407 18.405C24.817 18.405 24.337 17.925 24.337 17.335C24.337 16.745 24.817 16.265 25.407 16.265C25.997 16.265 26.477 16.745 26.477 17.335Z" fill="#211815"/>
<path d="M21.907 13.835C21.727 14.155 21.827 14.555 22.147 14.745C22.467 14.925 22.867 14.825 23.057 14.505C27.487 6.935 35.687 2.225 44.447 2.225C58.117 2.225 69.227 13.345 69.227 27.005C69.227 40.665 58.107 51.785 44.447 51.785C34.137 51.785 24.797 45.295 21.207 35.635C21.077 35.295 20.697 35.115 20.357 35.245C20.017 35.375 19.837 35.755 19.967 36.095C23.747 46.275 33.587 53.105 44.447 53.105C58.847 53.105 70.557 41.395 70.557 26.995C70.557 12.595 58.847 0.895 44.447 0.895C35.217 0.895 26.577 5.855 21.897 13.835H21.907Z" fill="#D22D25" stroke="#D22D25" stroke-width="1.01"/>
</svg>
