<svg width="335" height="52" viewBox="0 0 335 52" fill="none" xmlns="http://www.w3.org/2000/svg">
<path d="M249.283 35.92C249.283 32.8 250.547 30.272 252.467 28.32L253.427 28.816C251.571 30.72 250.435 33.072 250.435 35.92C250.435 38.784 251.571 41.136 253.427 43.04L252.467 43.536C250.547 41.584 249.283 39.056 249.283 35.92ZM323.027 35.92C323.027 39.056 321.763 41.584 319.843 43.536L318.883 43.04C320.739 41.136 321.875 38.784 321.875 35.92C321.875 33.072 320.739 30.72 318.883 28.816L319.843 28.32C321.763 30.272 323.027 32.8 323.027 35.92Z" fill="black"/>
<path d="M261.491 28.56H262.707V41.936C262.707 42.688 262.499 42.976 262.003 43.152C261.491 43.312 260.659 43.328 259.315 43.328C259.251 43.04 259.059 42.592 258.899 42.32C259.859 42.352 260.819 42.336 261.107 42.336C261.395 42.32 261.491 42.224 261.491 41.936V28.56ZM255.235 29.84H269.123V30.832H255.235V29.84ZM258.051 32.624V33.776H266.307V32.624H258.051ZM256.915 31.792H267.523V34.624H256.915V31.792ZM256.451 35.744H267.763V41.568H266.563V36.64H256.451V35.744ZM254.931 37.744H269.427V38.704H254.931V37.744ZM256.291 39.92H267.187V40.848H256.291V39.92ZM271.075 29.36H276.531V30.4H271.075V29.36ZM277.251 37.536H284.195V38.576H277.251V37.536ZM270.899 34.192H276.915V35.264H270.899V34.192ZM273.699 34.624H274.851V41.888C274.851 42.512 274.739 42.832 274.307 43.04C273.907 43.216 273.283 43.232 272.291 43.232C272.259 42.928 272.099 42.432 271.939 42.112C272.627 42.128 273.267 42.128 273.459 42.128C273.635 42.112 273.699 42.064 273.699 41.888V34.624ZM283.779 37.536H285.011C285.011 37.536 284.995 37.888 284.963 38.064C284.659 41.072 284.371 42.288 283.907 42.768C283.619 43.056 283.331 43.152 282.899 43.184C282.531 43.216 281.827 43.216 281.107 43.168C281.075 42.848 280.963 42.368 280.787 42.048C281.475 42.112 282.115 42.128 282.371 42.128C282.627 42.128 282.771 42.112 282.915 41.968C283.251 41.648 283.539 40.528 283.779 37.728V37.536ZM280.243 35.952H281.443C281.139 39.184 280.355 41.888 276.739 43.296C276.595 43.008 276.275 42.576 276.019 42.368C279.347 41.136 279.971 38.72 280.243 35.952ZM271.635 32.032L272.387 31.264C273.731 31.824 275.395 32.768 276.227 33.504L275.427 34.384C274.627 33.648 272.995 32.64 271.635 32.032ZM276.595 34.192H276.771L276.947 34.144L277.683 34.4C277.347 35.744 276.867 37.28 276.371 38.272L275.523 37.856C275.939 36.976 276.339 35.552 276.595 34.4V34.192ZM283.011 30.736L284.243 30.944C283.171 33.84 280.771 35.44 277.747 36.384C277.603 36.128 277.235 35.632 276.995 35.376C279.907 34.64 282.147 33.216 283.011 30.736ZM279.587 28.56L280.723 28.864C279.971 30.576 278.739 32.176 277.507 33.2C277.299 32.992 276.819 32.656 276.515 32.496C277.779 31.552 278.947 30.096 279.587 28.56ZM279.299 31.072C280.451 33.2 282.835 34.8 285.683 35.424C285.427 35.664 285.075 36.128 284.915 36.448C281.987 35.664 279.587 33.872 278.307 31.408L279.299 31.072ZM273.555 34.544L274.371 34.848C273.763 36.96 272.611 39.44 271.363 40.688C271.235 40.352 270.947 39.856 270.739 39.568C271.891 38.48 273.027 36.384 273.555 34.544ZM279.235 30.256H285.347V31.28H278.739L279.235 30.256ZM276.243 29.36H276.499L276.691 29.312L277.475 29.808C276.739 30.928 275.491 32.144 274.387 32.88C274.179 32.688 273.811 32.432 273.571 32.288C274.595 31.616 275.715 30.448 276.243 29.584V29.36ZM295.763 29.52H300.563V30.656H296.931V43.296H295.763V29.52ZM287.235 30.336H294.883V31.408H287.235V30.336ZM286.819 34.768H295.091V35.872H286.819V34.768ZM290.451 28.624H291.619V30.992H290.451V28.624ZM288.227 31.968L289.235 31.744C289.587 32.544 289.891 33.616 289.987 34.32L288.915 34.576C288.835 33.872 288.563 32.784 288.227 31.968ZM292.819 31.632L293.971 31.904C293.619 32.848 293.235 33.92 292.883 34.624L291.923 34.368C292.243 33.632 292.627 32.448 292.819 31.632ZM288.323 41.296H293.587V42.368H288.323V41.296ZM287.891 37.264H294.195V43.216H293.043V38.336H289.011V43.296H287.891V37.264ZM300.243 29.52H300.483L300.675 29.472L301.555 30.032C300.899 31.536 300.067 33.392 299.331 34.864C300.947 36.352 301.331 37.616 301.347 38.768C301.347 39.744 301.123 40.496 300.563 40.88C300.275 41.056 299.923 41.168 299.507 41.232C299.107 41.28 298.579 41.264 298.115 41.248C298.099 40.912 297.987 40.4 297.779 40.064C298.243 40.096 298.707 40.112 299.027 40.096C299.299 40.08 299.523 40.016 299.715 39.904C300.067 39.696 300.179 39.232 300.179 38.64C300.163 37.632 299.699 36.432 298.083 35.024C298.899 33.376 299.763 31.168 300.243 29.904V29.52ZM304.195 31.744H308.643V32.656H304.195V31.744ZM311.555 31.744H316.083V32.656H311.555V31.744ZM315.571 29.328H316.771V41.648C316.771 42.464 316.579 42.848 316.035 43.04C315.475 43.248 314.531 43.264 313.075 43.264C313.011 42.928 312.803 42.368 312.627 42.016C313.731 42.08 314.835 42.064 315.155 42.048C315.475 42.032 315.571 41.952 315.571 41.648V29.328ZM304.291 29.328H309.347V35.2H304.291V34.192H308.211V30.336H304.291V29.328ZM316.195 29.328V30.336H312.003V34.208H316.195V35.216H310.851V29.328H316.195ZM303.619 29.328H304.803V43.28H303.619V29.328Z" fill="#3C2C25"/>
<path d="M11.325 42.504C5.88902 42.504 2.28902 37.788 2.28902 28.572C2.28902 19.392 5.88902 14.892 11.325 14.892C16.725 14.892 20.325 19.392 20.325 28.572C20.325 37.788 16.725 42.504 11.325 42.504ZM11.325 38.364C13.629 38.364 15.321 36.06 15.321 28.572C15.321 21.12 13.629 18.96 11.325 18.96C9.02102 18.96 7.29302 21.12 7.29302 28.572C7.29302 36.06 9.02102 38.364 11.325 38.364ZM31.7674 42.504C27.5554 42.504 24.7114 40.956 22.8394 38.796L25.3594 35.448C26.9434 36.996 28.8514 38.22 31.2634 38.22C33.9994 38.22 35.8354 36.852 35.8354 34.476C35.8354 31.848 34.2874 30.228 28.4914 30.228V26.412C33.3874 26.412 34.9714 24.756 34.9714 22.38C34.9714 20.292 33.6754 19.032 31.4074 19.032C29.4994 19.032 27.9514 19.932 26.3674 21.408L23.6674 18.132C25.9714 16.152 28.5274 14.892 31.6234 14.892C36.7714 14.892 40.2634 17.412 40.2634 21.984C40.2634 24.828 38.6794 26.952 35.8354 28.032V28.212C38.8594 29.076 41.1634 31.272 41.1634 34.8C41.1634 39.696 36.8794 42.504 31.7674 42.504ZM44.9018 33.612V29.832H54.7658V33.612H44.9018ZM66.434 42.504C62.222 42.504 59.414 40.848 57.398 38.868L59.882 35.52C61.358 36.996 63.266 38.22 65.714 38.22C68.522 38.22 70.43 36.456 70.43 33.288C70.43 30.192 68.63 28.464 65.966 28.464C64.382 28.464 63.518 28.86 61.97 29.868L59.522 28.284L60.278 15.36H74.534V19.788H64.85L64.346 25.44C65.39 24.972 66.326 24.72 67.55 24.72C72.014 24.72 75.758 27.348 75.758 33.18C75.758 39.084 71.33 42.504 66.434 42.504ZM89.0724 42.504C84.0324 42.504 79.4964 38.436 79.4964 29.04C79.4964 19.14 84.4284 14.892 89.8284 14.892C93.0684 14.892 95.4444 16.224 97.0644 17.916L94.2204 21.048C93.3204 20.004 91.6644 19.14 90.1524 19.14C86.9124 19.14 84.3564 21.624 84.3564 29.04C84.3564 35.952 86.3724 38.508 89.0004 38.508C90.9804 38.508 92.6004 36.852 92.6004 33.612C92.6004 30.444 91.0884 29.004 88.8204 29.004C87.3444 29.004 85.6524 29.796 84.3204 31.992L84.1044 28.392C85.5084 26.412 87.9924 25.26 89.7924 25.26C94.2564 25.26 97.4604 27.888 97.4604 33.612C97.4604 39.084 93.6084 42.504 89.0724 42.504ZM109.551 42.504C104.439 42.504 100.659 39.588 100.659 35.412C100.659 31.992 102.747 29.724 105.195 28.428V28.284C103.179 26.808 101.667 24.756 101.667 21.948C101.667 17.664 105.087 14.928 109.731 14.928C114.447 14.928 117.471 17.736 117.471 21.984C117.471 24.648 115.779 26.844 114.051 28.104V28.284C116.499 29.616 118.515 31.74 118.515 35.412C118.515 39.444 114.915 42.504 109.551 42.504ZM111.243 26.808C112.539 25.44 113.151 23.928 113.151 22.344C113.151 20.148 111.819 18.636 109.623 18.636C107.787 18.636 106.347 19.824 106.347 21.948C106.347 24.432 108.435 25.692 111.243 26.808ZM109.659 38.76C111.963 38.76 113.583 37.5 113.583 35.196C113.583 32.424 111.099 31.308 107.679 29.868C106.203 31.02 105.195 32.82 105.195 34.8C105.195 37.212 107.175 38.76 109.659 38.76ZM132.297 42V25.62C132.297 24.072 132.441 21.66 132.513 20.076H132.369C131.685 21.516 130.965 22.992 130.209 24.432L126.105 31.056H140.397V35.124H120.957V31.488L130.857 15.36H137.229V42H132.297ZM143.163 33.612V29.832H153.027V33.612H143.163ZM156.272 42V38.976C163.544 32.46 167.792 27.456 167.792 23.352C167.792 20.688 166.388 19.032 163.832 19.032C161.852 19.032 160.304 20.292 158.936 21.804L156.02 18.924C158.468 16.296 160.88 14.892 164.516 14.892C169.52 14.892 172.904 18.096 172.904 23.064C172.904 27.924 168.872 33.108 164.012 37.86C165.344 37.716 167.108 37.536 168.368 37.536H174.128V42H156.272ZM182.654 42C183.158 32.784 184.67 26.844 189.782 19.788H177.794V15.36H195.47V18.564C189.278 26.124 188.486 31.596 188.018 42H182.654ZM206.408 42.504C203.06 42.504 200.684 41.136 199.064 39.48L201.872 36.276C202.88 37.392 204.5 38.22 206.084 38.22C209.216 38.22 211.772 35.7 211.772 28.068C211.772 21.264 209.72 18.852 207.128 18.852C205.112 18.852 203.492 20.472 203.492 23.784C203.492 26.88 205.004 28.392 207.272 28.392C208.784 28.392 210.44 27.564 211.736 25.368L212.024 28.968C210.584 30.948 208.172 32.136 206.3 32.136C201.836 32.136 198.668 29.436 198.668 23.784C198.668 18.276 202.484 14.892 207.02 14.892C212.096 14.892 216.632 18.852 216.632 28.068C216.632 38.148 211.7 42.504 206.408 42.504ZM228.399 42.504C224.187 42.504 221.379 40.848 219.363 38.868L221.847 35.52C223.323 36.996 225.231 38.22 227.679 38.22C230.487 38.22 232.395 36.456 232.395 33.288C232.395 30.192 230.595 28.464 227.931 28.464C226.347 28.464 225.483 28.86 223.935 29.868L221.487 28.284L222.243 15.36H236.499V19.788H226.815L226.311 25.44C227.355 24.972 228.291 24.72 229.515 24.72C233.979 24.72 237.723 27.348 237.723 33.18C237.723 39.084 233.295 42.504 228.399 42.504Z" fill="#F7931E"/>
</svg>
