<svg width="558" height="130" viewBox="0 0 558 130" fill="none" xmlns="http://www.w3.org/2000/svg">
<circle cx="348.5" cy="2" r="2" fill="#F7931E"/>
<circle cx="368.5" cy="2" r="2" fill="#F7931E"/>
<circle cx="388.5" cy="2" r="2" fill="#F7931E"/>
<circle cx="408.5" cy="2" r="2" fill="#F7931E"/>
<circle cx="428.5" cy="2" r="2" fill="#F7931E"/>
<circle cx="448.5" cy="2" r="2" fill="#F7931E"/>
<path d="M111.164 13.8352C111.612 14.5072 112.268 15.5632 112.62 16.2992L111.244 16.9072C110.764 15.8992 110.412 15.2112 109.82 14.3792L111.164 13.8352ZM113.372 13.0512C113.868 13.6912 114.492 14.7472 114.876 15.4512L113.5 16.0592C112.988 15.0512 112.604 14.4272 112.012 13.6272L113.372 13.0512ZM104.22 13.5152C105.276 14.0912 107.036 15.2272 107.868 15.8032L106.668 17.5792C105.788 16.9552 104.108 15.8672 103.052 15.2752L104.22 13.5152ZM101.26 24.8752C103.036 24.5712 104.956 24.0432 106.7 23.0832C109.42 21.5632 111.644 19.3712 112.924 17.0832L114.156 19.2592C112.668 21.4672 110.412 23.4992 107.788 25.0032C106.172 25.9312 103.868 26.7312 102.46 26.9872L101.26 24.8752ZM101.756 17.1632C102.828 17.7392 104.588 18.8432 105.404 19.4192L104.236 21.2112C103.324 20.5872 101.676 19.4992 100.588 18.9392L101.756 17.1632ZM123.052 17.0832C123.468 17.1152 124.444 17.1472 125.036 17.1472C126.348 17.1472 129.772 17.1472 131.1 17.1472C131.468 17.1472 132.06 17.1312 132.316 17.1152C132.3 17.3392 132.3 17.8672 132.3 18.2032C132.3 18.8432 132.3 24.9552 132.3 26.2192C132.3 26.4752 132.316 27.0352 132.316 27.3072H130.316C130.332 27.0512 130.332 26.4432 130.332 26.1232C130.332 24.4912 130.332 19.4832 130.332 18.9552C129.708 18.9552 126.332 18.9552 125.036 18.9552C124.444 18.9552 123.452 18.9872 123.052 19.0032V17.0832ZM123.468 20.8272C123.884 20.8592 124.62 20.8752 125.228 20.8752C126.012 20.8752 130.828 20.8752 131.26 20.8752V22.6992C130.812 22.6992 126.012 22.6992 125.228 22.6992C124.62 22.6992 123.852 22.6992 123.468 22.7312V20.8272ZM122.892 24.7472C123.148 24.7792 123.692 24.8112 124.268 24.8112C125.26 24.8112 130.588 24.8112 131.276 24.8112V26.6832C130.396 26.6832 125.26 26.6832 124.268 26.6832C123.804 26.6832 123.148 26.7152 122.892 26.7152V24.7472ZM140.812 19.8992C143.676 19.1632 146.012 18.1232 147.804 17.0192C149.436 16.0112 151.26 14.4112 152.3 13.1472L154.028 14.7792C152.572 16.2512 150.62 17.7552 148.732 18.8912C146.924 19.9632 144.332 21.1632 141.804 21.9152L140.812 19.8992ZM147.468 18.0592L149.74 17.5152V24.7312C149.74 25.4352 149.772 26.4272 149.884 26.8272H147.34C147.404 26.4432 147.468 25.4352 147.468 24.7312V18.0592ZM163.836 13.9472C164.94 14.6992 167.02 16.3632 167.964 17.3392L166.332 19.0032C165.5 18.1072 163.484 16.3632 162.316 15.5632L163.836 13.9472ZM161.82 24.6032C164.332 24.2512 166.396 23.4352 167.948 22.5232C170.684 20.8912 172.764 18.4592 173.788 16.2992L175.02 18.5392C173.82 20.7152 171.692 22.9232 169.116 24.4752C167.484 25.4512 165.42 26.3312 163.18 26.7152L161.82 24.6032ZM185.148 24.5872C185.148 23.3552 185.148 16.7312 185.148 15.3872C185.148 14.8112 185.1 14.0272 184.988 13.4512H187.484C187.42 14.0272 187.34 14.7152 187.34 15.3872C187.34 17.1472 187.356 23.4032 187.356 24.5872C187.356 25.0352 187.42 26.1552 187.5 26.8112H184.988C185.1 26.1872 185.148 25.2112 185.148 24.5872ZM186.876 17.5952C189.004 18.1872 192.46 19.4512 194.028 20.2192L193.132 22.4432C191.308 21.4992 188.62 20.4752 186.876 19.8992V17.5952ZM209.532 13.0512C209.468 13.4192 209.42 14.0272 209.42 14.5232C209.42 15.0032 209.42 15.8192 209.42 16.2992H207.324C207.324 15.8192 207.324 15.0832 207.324 14.5232C207.324 14.0112 207.308 13.4352 207.244 13.0512H209.532ZM213.996 16.4752C213.596 16.8912 213.1 17.4192 212.764 17.8032C211.868 18.8272 210.524 20.1552 209.068 21.1792C207.34 22.4112 204.892 23.4672 202.412 24.2192L201.18 22.3312C204.268 21.6432 206.316 20.5392 207.692 19.6432C208.924 18.8592 209.916 17.9152 210.396 17.2592C209.532 17.2592 205.276 17.2592 204.604 17.2592C204.028 17.2592 203.02 17.2912 202.508 17.3392V15.2432C203.116 15.3232 204.012 15.3392 204.556 15.3392C205.276 15.3392 210.396 15.3392 211.34 15.3392C211.836 15.3392 212.3 15.2912 212.668 15.1952L213.996 16.4752ZM209.388 19.9632C209.388 21.1152 209.388 23.6912 209.388 24.9872C209.388 25.6112 209.436 26.5232 209.484 27.0192H207.196C207.244 26.5712 207.308 25.6112 207.308 24.9872C207.308 23.7552 207.308 21.7872 207.308 20.8272L209.388 19.9632ZM214.236 24.3632C212.844 23.2752 211.788 22.6032 210.412 21.8192L211.724 20.2992C213.196 21.0832 214.028 21.5632 215.564 22.6032L214.236 24.3632ZM228.524 16.6192C228.828 17.2912 229.612 19.3872 229.836 20.1232L227.932 20.7792C227.724 20.0112 227.02 18.0752 226.636 17.2432L228.524 16.6192ZM234.428 17.7712C234.252 18.2992 234.156 18.6352 234.06 18.9552C233.644 20.5712 232.956 22.2352 231.868 23.6272C230.38 25.5632 228.396 26.8912 226.524 27.6112L224.844 25.8992C226.588 25.4192 228.828 24.2032 230.14 22.5392C231.228 21.1952 232.012 19.0672 232.188 17.0512L234.428 17.7712ZM224.812 17.4512C225.212 18.2672 225.996 20.2192 226.3 21.1152L224.348 21.8352C224.092 20.9872 223.276 18.8432 222.892 18.1552L224.812 17.4512ZM245.628 24.5872C245.628 23.3552 245.628 16.7312 245.628 15.3872C245.628 14.8112 245.58 14.0272 245.468 13.4512H247.964C247.9 14.0272 247.82 14.7152 247.82 15.3872C247.82 17.1472 247.836 23.4032 247.836 24.5872C247.836 25.0352 247.9 26.1552 247.98 26.8112H245.468C245.58 26.1872 245.628 25.2112 245.628 24.5872ZM247.356 17.5952C249.484 18.1872 252.94 19.4512 254.508 20.2192L253.612 22.4432C251.788 21.4992 249.1 20.4752 247.356 19.8992V17.5952ZM275.212 15.3872C275.116 15.6272 274.956 16.2512 274.924 16.4752C274.636 18.1392 274.268 20.4752 273.02 22.4112C271.692 24.4912 269.516 26.0912 266.94 26.9872L265.164 25.1792C267.308 24.6352 269.788 23.3232 271.036 21.3232C271.852 20.0272 272.332 18.2352 272.492 16.5232C271.484 16.5232 265.964 16.5232 264.828 16.5232C264.828 17.0032 264.828 18.5392 264.828 19.1792C264.828 19.4192 264.828 19.9952 264.876 20.4912H262.524C262.572 20.0112 262.604 19.6112 262.604 19.1792C262.604 18.5392 262.604 16.5552 262.604 15.8032C262.604 15.3712 262.588 14.8912 262.54 14.4752C263.036 14.5072 263.756 14.5232 264.492 14.5232C265.132 14.5232 271.004 14.5232 272.14 14.5232C272.684 14.5232 273.228 14.4912 273.66 14.4112L275.212 15.3872ZM282.396 18.6992C282.988 18.7472 284.14 18.8112 284.972 18.8112C286.86 18.8112 292.14 18.8112 293.564 18.8112C294.316 18.8112 295.02 18.7312 295.452 18.6992V21.2272C295.068 21.2112 294.252 21.1312 293.58 21.1312C292.124 21.1312 286.86 21.1312 284.972 21.1312C284.076 21.1312 283.004 21.1792 282.396 21.2272V18.6992ZM315.484 16.1712C315.308 16.4752 315.084 16.9072 314.956 17.3072C314.524 18.7472 313.612 20.8752 312.156 22.6512C310.636 24.5072 308.716 25.9792 305.708 27.1632L303.82 25.4832C307.084 24.4912 308.86 23.0992 310.268 21.5152C311.356 20.2672 312.284 18.3472 312.54 17.1632H307.148L307.884 15.3392C308.588 15.3392 311.948 15.3392 312.444 15.3392C312.94 15.3392 313.484 15.2752 313.836 15.1472L315.484 16.1712ZM310.268 13.6272C309.884 14.1872 309.468 14.9232 309.292 15.2592C308.204 17.1952 306.3 19.4512 303.996 21.0192L302.204 19.6912C305.004 17.9792 306.412 15.9152 307.196 14.5392C307.436 14.1552 307.772 13.4192 307.916 12.8592L310.268 13.6272ZM328.524 13.5952C328.428 14.0112 328.332 14.5232 328.252 14.9232C328.092 15.6432 327.9 16.6352 327.724 17.4512C327.196 19.7072 325.916 24.2672 324.236 26.9712L322.14 26.1392C324.044 23.5792 325.244 19.3552 325.692 17.3392C325.996 15.8992 326.172 14.5392 326.156 13.3392L328.524 13.5952ZM334.044 15.1952C335.02 16.5872 336.364 19.5632 336.86 21.0832L334.828 22.0272C334.412 20.2512 333.276 17.4352 332.124 16.0112L334.044 15.1952ZM322.044 16.8752C322.62 16.9072 323.164 16.8912 323.756 16.8752C325.036 16.8432 328.076 16.4912 329.26 16.4912C330.956 16.4912 332.156 17.2432 332.156 19.5632C332.156 21.4512 331.916 24.0432 331.244 25.4192C330.716 26.5392 329.82 26.8912 328.62 26.8912C327.996 26.8912 327.244 26.7952 326.7 26.6672L326.348 24.5552C326.972 24.7312 327.884 24.8912 328.3 24.8912C328.844 24.8912 329.26 24.7312 329.5 24.2032C329.948 23.3072 330.156 21.3552 330.156 19.7872C330.156 18.5072 329.612 18.3152 328.604 18.3152C327.66 18.3152 324.892 18.6672 324.012 18.7792C323.548 18.8432 322.716 18.9552 322.236 19.0352L322.044 16.8752ZM333.756 12.9872C334.156 13.5632 334.716 14.5872 335.02 15.1792L333.74 15.7232C333.404 15.0672 332.908 14.1232 332.476 13.4992L333.756 12.9872ZM335.644 12.2512C336.06 12.8592 336.652 13.8832 336.94 14.4432L335.66 14.9872C335.34 14.3152 334.812 13.3872 334.38 12.7792L335.644 12.2512ZM345.452 18.7632V24.6512H343.66V20.5392H341.996V18.7632H345.452ZM345.452 23.9152C346.076 25.0032 347.244 25.4672 348.892 25.5472C350.876 25.6272 354.812 25.5792 357.084 25.4032C356.876 25.8192 356.588 26.6672 356.508 27.1952C354.46 27.2912 350.908 27.3232 348.908 27.2432C346.956 27.1632 345.644 26.6832 344.684 25.4352C344.076 26.0752 343.436 26.6832 342.684 27.4032L341.772 25.5632C342.412 25.1152 343.18 24.5072 343.852 23.9152H345.452ZM341.9 13.8512L343.404 12.8912C344.252 13.6592 345.244 14.7472 345.676 15.5312L344.044 16.6032C343.676 15.8352 342.716 14.6672 341.9 13.8512ZM346.428 19.0672H356.236V20.4592H346.428V19.0672ZM345.948 21.5312H356.732V22.9552H345.948V21.5312ZM348.556 18.2192H350.364V22.2192H348.556V18.2192ZM352.22 18.2192H354.044V22.2192H352.22V18.2192ZM346.86 14.8912H349.196V14.2192H346.156V13.0192H350.812V16.1072H346.86V14.8912ZM346.38 14.8912H347.964V16.4432C347.964 16.7792 348.028 16.8432 348.444 16.8432C348.62 16.8432 349.436 16.8432 349.676 16.8432C349.996 16.8432 350.06 16.7472 350.124 16.2192C350.412 16.4272 351.02 16.6352 351.452 16.7152C351.292 17.8032 350.86 18.1072 349.884 18.1072C349.58 18.1072 348.508 18.1072 348.204 18.1072C346.78 18.1072 346.38 17.7392 346.38 16.4592V14.8912ZM352.124 14.8912H354.476V14.2192H351.356V13.0192H356.108V16.1072H352.124V14.8912ZM351.644 14.8912H353.228V16.4432C353.228 16.7792 353.308 16.8432 353.724 16.8432C353.916 16.8432 354.764 16.8432 355.004 16.8432C355.34 16.8432 355.404 16.7472 355.468 16.2032C355.756 16.4112 356.364 16.6032 356.796 16.6992C356.636 17.8032 356.204 18.1072 355.212 18.1072C354.908 18.1072 353.788 18.1072 353.484 18.1072C352.044 18.1072 351.644 17.7392 351.644 16.4432V14.8912ZM351.948 23.6272L353.356 22.8432C354.508 23.3712 355.916 24.1392 356.716 24.6832L354.732 25.4032C354.14 24.8912 353.004 24.1712 351.948 23.6272ZM349.148 22.8432L350.828 23.4352C349.996 24.2032 348.652 24.9392 347.548 25.3872C347.244 25.0672 346.556 24.4912 346.156 24.2352C347.276 23.8992 348.46 23.3872 349.148 22.8432ZM367.372 16.4752C368.3 16.5712 369.228 16.6192 370.172 16.6192C372.14 16.6192 374.14 16.4432 375.804 16.1072V18.0912C374.124 18.3472 372.124 18.4752 370.172 18.4752C369.244 18.4752 368.332 18.4432 367.388 18.3792L367.372 16.4752ZM373.468 13.7712C373.404 14.0912 373.372 14.4752 373.356 14.8112C373.324 15.3392 373.308 16.4272 373.308 17.5952C373.308 20.5392 373.564 22.6032 373.564 24.1232C373.564 25.8032 372.732 27.0512 370.428 27.0512C368.22 27.0512 366.844 26.1072 366.844 24.4272C366.844 22.8112 368.204 21.6912 370.38 21.6912C373.388 21.6912 375.34 23.1952 376.572 24.3472L375.5 26.0272C373.644 24.2992 372.044 23.2432 370.22 23.2432C369.324 23.2432 368.7 23.6112 368.7 24.2192C368.7 24.8752 369.356 25.1472 370.188 25.1472C371.18 25.1472 371.516 24.6352 371.516 23.6912C371.516 22.5872 371.308 19.8992 371.308 17.5952C371.308 16.3792 371.292 15.3072 371.292 14.8272C371.292 14.5872 371.228 14.0912 371.18 13.7712H373.468ZM365.66 13.9472C365.532 14.2832 365.324 15.0832 365.276 15.3712C365.036 16.4432 364.508 19.9792 364.508 21.5632C364.508 21.8832 364.524 22.2832 364.588 22.6032C364.796 22.0432 365.052 21.4992 365.292 20.9712L366.284 21.7552C365.836 23.0672 365.308 24.6992 365.116 25.5792C365.068 25.8032 365.036 26.1392 365.036 26.3152C365.036 26.4752 365.052 26.7472 365.068 26.9872L363.26 27.1152C362.94 25.9952 362.636 24.1712 362.636 21.9952C362.636 19.5792 363.116 16.5552 363.292 15.3232C363.356 14.8912 363.436 14.2672 363.436 13.7552L365.66 13.9472ZM374.78 13.1312C375.068 13.7712 375.436 14.6992 375.612 15.3232L374.508 15.6912C374.268 14.9872 373.996 14.1232 373.676 13.4672L374.78 13.1312ZM376.428 12.6192C376.732 13.2592 377.1 14.1872 377.292 14.7952L376.188 15.1632C375.964 14.4592 375.66 13.6112 375.34 12.9712L376.428 12.6192ZM397.34 25.2752C396.588 25.9632 395.628 26.4752 394.316 26.4752C393.116 26.4752 392.316 25.6112 392.316 24.0592C392.316 22.3152 392.892 19.9792 392.892 18.5072C392.892 17.7232 392.492 17.3392 391.804 17.3392C390.316 17.3392 387.932 19.6912 386.652 21.3232L386.636 18.8592C387.612 17.8352 390.284 15.4352 392.396 15.4352C394.124 15.4352 394.908 16.4592 394.908 17.8032C394.908 19.4512 394.38 21.8032 394.38 23.4672C394.38 23.8832 394.604 24.1712 395.004 24.1712C395.596 24.1712 396.348 23.7552 397.068 23.0352L397.34 25.2752ZM386.284 17.6592C385.564 17.7392 384.044 17.9312 382.988 18.0912L382.78 16.0272C383.228 16.0432 383.596 16.0432 384.172 16.0112C385.18 15.9632 387.228 15.6592 387.948 15.4192L388.588 16.2512C388.316 16.6192 387.82 17.4032 387.548 17.8192L386.62 20.8272C385.916 21.8512 384.492 23.9952 383.644 25.1632L382.396 23.4032C383.404 22.1552 385.324 19.6272 386.124 18.3632L386.156 17.9472L386.284 17.6592ZM386.092 14.5712C386.092 14.1232 386.108 13.6432 386.012 13.1472L388.348 13.2112C388.076 14.4912 387.548 18.6832 387.548 21.5472C387.548 22.8432 387.548 24.2032 387.644 25.6912C387.66 25.9792 387.724 26.5712 387.756 26.9232H385.564C385.596 26.5552 385.612 25.9952 385.612 25.7392C385.628 24.1872 385.644 23.1152 385.692 21.1152C385.74 19.6912 386.092 15.2112 386.092 14.5712ZM405.42 13.9312C405.868 13.9792 406.412 14.0112 406.86 14.0112C407.724 14.0112 411.132 13.9312 412.044 13.8512C412.716 13.8032 413.084 13.7392 413.276 13.6752L414.3 15.1152C413.932 15.3552 413.548 15.5792 413.196 15.8512C412.332 16.4592 410.652 17.8672 409.628 18.6672C410.172 18.5232 410.652 18.4912 411.148 18.4912C413.868 18.4912 415.932 20.1872 415.932 22.5072C415.932 25.0352 414.012 27.0352 410.14 27.0352C407.916 27.0352 406.236 26.0272 406.236 24.4112C406.236 23.1152 407.42 21.9312 409.116 21.9312C411.308 21.9312 412.524 23.4032 412.572 25.1632L410.7 25.4032C410.668 24.2512 410.06 23.4512 409.116 23.4512C408.524 23.4512 408.124 23.8192 408.124 24.2352C408.124 24.8272 408.78 25.2272 409.756 25.2272C412.46 25.2272 413.836 24.2032 413.836 22.4912C413.836 21.0352 412.396 20.0592 410.524 20.0592C408.06 20.0592 406.476 21.3712 404.764 23.3072L403.308 21.8032C404.444 20.9072 406.38 19.2752 407.308 18.4912C408.204 17.7552 409.884 16.4112 410.668 15.7072C409.852 15.7392 407.644 15.8192 406.78 15.8832C406.348 15.9152 405.852 15.9472 405.484 16.0112L405.42 13.9312ZM430.268 17.6752V19.0512H435.116V17.6752H430.268ZM430.268 14.8272V16.1712H435.116V14.8272H430.268ZM428.54 13.1952H436.94V20.6672H428.54V13.1952ZM428.428 22.0432H437.116V23.7712H428.428V22.0432ZM427.308 25.3072H437.644V27.0352H427.308V25.3072ZM422.62 13.4352H427.932V15.2272H422.62V13.4352ZM422.78 18.0432H427.66V19.8192H422.78V18.0432ZM422.444 24.1232C423.82 23.7712 425.868 23.1312 427.788 22.5072L428.124 24.3472C426.332 24.9552 424.412 25.5792 422.876 26.0752L422.444 24.1232ZM424.396 14.1392H426.22V23.9792L424.396 24.2672V14.1392ZM431.916 13.8832H433.532V19.9152H433.708V26.1232H431.74V19.9152H431.916V13.8832ZM444.78 20.1872H455.58V22.0752H444.78V20.1872ZM444.78 24.7952H455.564V26.6992H444.78V24.7952ZM443.82 15.5632H456.668V27.5312H454.652V17.4992H445.74V27.5632H443.82V15.5632ZM449.148 12.5392H451.116V25.8032H449.148V12.5392Z" fill="#3C2C25"/>
<path d="M16.692 45.4192C16.468 44.6832 16.084 43.5312 15.7 42.4752L20.02 41.9632C20.5 44.4272 21.268 46.9552 22.036 49.0032C23.028 51.6912 24.532 54.4432 25.588 55.9152C26.132 56.7152 26.708 57.3872 27.284 58.0592L25.332 60.9072C23.54 60.5552 19.476 60.1392 16.788 59.9152L17.108 56.5232C18.676 56.6832 20.788 56.8432 21.78 56.9392C20.628 55.0512 19.22 52.3632 18.228 49.7072C17.524 47.9472 17.076 46.4752 16.692 45.4192ZM5.044 46.9232C11.028 47.6272 15.892 47.5952 19.732 47.1792C22.58 46.8272 25.396 46.2832 27.924 45.5152L28.404 49.5152C26.292 50.1232 23.54 50.6032 20.98 50.8912C16.724 51.4032 11.668 51.5312 5.108 50.9872L5.044 46.9232ZM11.476 57.8032C10.42 59.3392 9.908 60.7472 9.908 62.1232C9.908 64.8432 12.308 65.9632 16.692 65.9952C20.18 65.9952 22.996 65.6432 25.236 65.1952L25.012 69.2592C23.188 69.5792 20.308 69.9952 16.436 69.9952C9.876 69.9952 5.78 67.4672 5.78 62.8272C5.78 60.8752 6.388 59.0512 7.476 56.8752L11.476 57.8032ZM59.924 42.2512C59.828 42.8912 59.732 43.6912 59.7 44.5232C59.636 46.1552 59.604 50.6992 59.604 53.3872C59.604 56.9072 60.116 62.6992 60.116 65.2272C60.116 67.9792 58.036 70.0912 53.844 70.0912C48.724 70.0912 46.036 68.1392 46.036 64.7472C46.036 61.5152 49.012 59.2432 53.908 59.2432C60.948 59.2432 66.196 62.6992 68.852 64.9392L66.548 68.5232C63.508 65.6432 58.868 62.5392 53.396 62.5392C51.156 62.5392 49.908 63.4032 49.908 64.5232C49.908 65.7392 51.028 66.4752 53.236 66.4752C54.932 66.4752 56.084 65.9952 56.084 64.1392C56.084 62.2192 55.732 56.4912 55.732 53.3872C55.732 50.3152 55.764 46.2512 55.764 44.4272C55.764 43.8512 55.7 42.8592 55.572 42.2512H59.924ZM46.644 45.2272C48.916 45.6112 52.596 45.9312 54.548 45.9312C58.9 45.9312 63.092 45.7072 67.764 44.9712L67.732 48.6192C64.468 49.0672 59.38 49.4512 54.58 49.4512C52.532 49.4512 48.82 49.1632 46.708 48.9072L46.644 45.2272ZM46.452 52.1392C48.564 52.5232 52.468 52.7472 54.164 52.7472C60.084 52.7472 64.212 52.3632 68.148 51.8512L68.116 55.6272C63.7 56.1392 60.212 56.3312 54.132 56.3312C52.244 56.3312 48.628 56.1712 46.516 55.9152L46.452 52.1392ZM106.132 41.5792C106.932 42.7632 108.052 44.8112 108.66 45.9952L106.1 47.0832C105.428 45.7712 104.436 43.8832 103.572 42.6352L106.132 41.5792ZM109.94 40.2032C110.772 41.4192 111.956 43.4672 112.532 44.5872L109.972 45.6752C109.3 44.3312 108.276 42.4752 107.412 41.2592L109.94 40.2032ZM96.724 45.6112C96.468 44.8752 96.116 43.7232 95.732 42.6672L100.052 42.1552C100.532 44.6192 101.3 47.1472 102.068 49.1952C103.06 51.8832 104.564 54.6032 105.62 56.1072C106.164 56.8752 106.74 57.5792 107.316 58.2512L105.364 61.0992C103.54 60.7472 99.508 60.3312 96.82 60.1072L97.14 56.7152C98.708 56.8752 100.82 57.0352 101.812 57.1312C100.66 55.2432 99.252 52.5232 98.228 49.8992C97.556 48.1392 97.076 46.6672 96.724 45.6112ZM85.076 47.0832C91.06 47.8192 95.924 47.7872 99.764 47.3392C102.612 47.0192 105.428 46.4752 107.956 45.7072L108.436 49.7072C106.324 50.3152 103.572 50.7952 101.012 51.0832C96.756 51.5952 91.7 51.7232 85.14 51.1792L85.076 47.0832ZM91.508 57.9952C90.452 59.5312 89.94 60.9392 89.94 62.3152C89.94 65.0032 92.308 66.1552 96.724 66.1552C100.212 66.1872 103.028 65.8352 105.268 65.3872L105.044 69.4512C103.22 69.7712 100.34 70.1872 96.468 70.1872C89.908 70.1552 85.812 67.6272 85.812 63.0192C85.812 61.0672 86.388 59.2432 87.476 57.0672L91.508 57.9952ZM140.564 42.2512C140.468 42.8912 140.372 43.6912 140.34 44.5232C140.276 46.1552 140.244 50.6992 140.244 53.3872C140.244 56.9072 140.756 62.6992 140.756 65.2272C140.756 67.9792 138.676 70.0912 134.484 70.0912C129.364 70.0912 126.676 68.1392 126.676 64.7472C126.676 61.5152 129.652 59.2432 134.548 59.2432C141.588 59.2432 146.836 62.6992 149.492 64.9392L147.188 68.5232C144.148 65.6432 139.508 62.5392 134.036 62.5392C131.796 62.5392 130.548 63.4032 130.548 64.5232C130.548 65.7392 131.668 66.4752 133.876 66.4752C135.572 66.4752 136.724 65.9952 136.724 64.1392C136.724 62.2192 136.372 56.4912 136.372 53.3872C136.372 50.3152 136.404 46.2512 136.404 44.4272C136.404 43.8512 136.34 42.8592 136.212 42.2512H140.564ZM127.284 45.2272C129.556 45.6112 133.236 45.9312 135.188 45.9312C139.54 45.9312 143.732 45.7072 148.404 44.9712L148.372 48.6192C145.108 49.0672 140.02 49.4512 135.22 49.4512C133.172 49.4512 129.46 49.1632 127.348 48.9072L127.284 45.2272ZM127.092 52.1392C129.204 52.5232 133.108 52.7472 134.804 52.7472C140.724 52.7472 144.852 52.3632 148.788 51.8512L148.756 55.6272C144.34 56.1392 140.852 56.3312 134.772 56.3312C132.884 56.3312 129.268 56.1712 127.156 55.9152L127.092 52.1392ZM164.404 47.1472C165.78 47.3072 167.508 47.3712 168.66 47.3712C172.628 47.3712 176.948 46.6992 180.052 45.7072L180.148 49.4192C177.396 50.1872 172.788 51.0192 168.692 50.9872C167.412 50.9872 166.068 50.9552 164.692 50.8912L164.404 47.1472ZM176.852 42.3472C176.436 44.0432 175.668 47.1792 174.804 49.8992C173.332 54.5072 170.452 60.4592 167.732 64.2352L163.86 62.2512C166.74 58.7312 169.62 53.1312 170.868 49.6752C171.636 47.3712 172.34 44.3952 172.436 41.9312L176.852 42.3472ZM184.372 52.3312C184.276 53.6752 184.308 55.0192 184.34 56.4272C184.404 58.3152 184.692 63.0832 184.692 64.8752C184.692 67.8512 183.092 70.1872 178.516 70.1872C174.548 70.1872 171.412 68.3952 171.412 64.8752C171.412 61.7712 174.036 59.3392 178.484 59.3392C184.084 59.3392 188.5 62.1552 191.156 64.5552L189.044 68.0112C186.74 65.8672 183.092 62.5712 178.26 62.5712C176.404 62.5712 175.188 63.3712 175.188 64.4912C175.188 65.6752 176.212 66.5072 177.972 66.5072C180.148 66.5072 180.852 65.2912 180.852 63.4992C180.852 61.5792 180.5 55.6912 180.34 52.3312H184.372ZM189.876 54.0272C188.02 52.5232 184.372 50.4432 182.164 49.4512L184.244 46.3152C186.548 47.3072 190.484 49.4512 192.148 50.6352L189.876 54.0272ZM216.404 59.9152H222.164V62.4112H216.404V59.9152ZM214.42 43.8832H224.244V46.6992H214.42V43.8832ZM213.78 50.9872H233.14V53.9632H213.78V50.9872ZM217.236 55.3712H223.828V66.9552H217.236V64.3312H220.852V58.0272H217.236V55.3712ZM214.964 55.3712H217.908V68.8112H214.964V55.3712ZM217.684 41.0352H220.98V45.7712H217.684V41.0352ZM229.78 55.1472L232.852 55.8192C230.964 62.5072 227.444 67.7552 222.612 71.0512C222.196 70.4112 221.108 69.1312 220.436 68.5552C225.076 65.8032 228.212 61.0672 229.78 55.1472ZM215.06 47.1472L217.524 46.5712C218.004 47.8192 218.356 49.5152 218.388 50.6352L215.796 51.2752C215.796 50.1872 215.476 48.4592 215.06 47.1472ZM227.636 43.5952L230.164 42.2832C231.476 43.8512 232.724 45.9632 233.3 47.4032L230.644 48.9072C230.132 47.4352 228.852 45.1952 227.636 43.5952ZM220.756 46.5712L223.668 47.1152C223.156 48.5872 222.676 50.0912 222.292 51.1472L219.924 50.6352C220.244 49.4512 220.628 47.7552 220.756 46.5712ZM203.476 42.1552H214.548V45.5152H203.476V42.1552ZM206.26 49.0032H211.86V52.1072H206.26V49.0032ZM206.26 55.5312H211.86V58.6352H206.26V55.5312ZM204.756 43.9792H207.892V64.0752H204.756V43.9792ZM209.972 43.9472H213.172V70.9872H209.972V43.9472ZM202.868 63.3392C205.14 63.0192 208.436 62.4112 211.732 61.8352L211.988 65.0672C209.044 65.7072 206.004 66.3472 203.508 66.8592L202.868 63.3392ZM224.724 40.9392H228.116C227.988 54.4752 228.852 66.4752 230.292 66.5392C230.676 66.5392 230.932 65.0352 231.06 62.4752C231.604 63.2432 232.98 64.2672 233.524 64.6192C232.724 69.8352 231.188 70.9872 230.1 70.9552C225.62 70.8912 224.884 58.7312 224.724 40.9392ZM262.228 43.6592H265.908V69.0032H262.228V43.6592ZM255.028 46.5392H272.852V49.5152H255.028V46.5392ZM254.068 67.4352H273.524V70.4752H254.068V67.4352ZM255.86 63.0512H272.34V65.9632H255.86V63.0512ZM270.612 41.1952L272.82 44.0432C268.18 44.9392 261.62 45.3232 256.18 45.3872C256.116 44.5552 255.7 43.2752 255.348 42.5072C260.628 42.3472 266.836 41.9312 270.612 41.1952ZM259.412 57.3232V58.9552H268.852V57.3232H259.412ZM259.412 53.4832V55.0832H268.852V53.4832H259.412ZM256.084 50.8272H272.34V61.6112H256.084V50.8272ZM248.308 43.9152H252.052V70.9552H248.308V43.9152ZM243.7 49.9312H255.444V53.5152H243.7V49.9312ZM248.532 51.3712L250.772 52.3632C249.556 56.9392 247.284 62.6352 244.82 65.8032C244.468 64.6832 243.636 63.0832 243.028 62.1232C245.268 59.5632 247.508 54.9232 248.532 51.3712ZM253.3 41.2592L255.86 44.2352C252.596 45.4832 248.148 46.3472 244.404 46.8272C244.244 45.9952 243.764 44.7152 243.316 43.9152C246.868 43.3072 250.836 42.3792 253.3 41.2592ZM251.956 54.3792C252.756 55.0512 255.54 57.9312 256.148 58.6672L253.972 61.6752C253.204 60.1392 251.284 57.2272 250.292 55.8832L251.956 54.3792ZM301.652 46.1872C301.204 49.4512 300.564 53.1952 299.444 56.9712C297.524 63.4352 294.772 67.4032 291.284 67.4032C287.7 67.4032 284.756 63.4672 284.756 58.0592C284.756 50.6992 291.188 44.3632 299.476 44.3632C307.38 44.3632 312.404 49.8672 312.404 56.8752C312.404 63.5952 308.276 68.3632 300.212 69.6112L297.78 65.8352C299.028 65.6752 299.924 65.5152 300.788 65.3232C304.852 64.3312 308.052 61.4192 308.052 56.7152C308.052 51.6912 304.916 48.1072 299.38 48.1072C292.596 48.1072 288.884 53.6432 288.884 57.6752C288.884 60.9072 290.164 62.4752 291.38 62.4752C292.756 62.4752 293.972 60.4272 295.316 56.1072C296.244 53.0992 296.948 49.4192 297.268 46.0592L301.652 46.1872ZM329.3 45.1952C331.668 45.4512 334.676 45.5792 338.036 45.5792C341.172 45.5792 344.852 45.3872 347.316 45.1312V49.3872C345.076 49.5792 341.108 49.7712 338.068 49.7712C334.708 49.7712 331.924 49.6112 329.3 49.4192V45.1952ZM332.02 58.7312C331.7 59.8832 331.476 60.9072 331.476 61.9952C331.476 64.0432 333.396 65.5152 338.036 65.5152C342.356 65.5152 346.42 65.0352 349.268 64.2672L349.3 68.7472C346.516 69.4192 342.676 69.8352 338.164 69.8352C330.836 69.8352 327.156 67.3712 327.156 62.9872C327.156 61.1312 327.54 59.5632 327.796 58.3792L332.02 58.7312ZM348.148 41.8672C348.948 43.0512 350.068 45.0992 350.676 46.2832L348.116 47.3712C347.444 46.0592 346.452 44.1392 345.588 42.9232L348.148 41.8672ZM351.924 40.4272C352.756 41.6432 353.94 43.6592 354.516 44.7792L351.956 45.8992C351.316 44.5552 350.26 42.6992 349.396 41.4832L351.924 40.4272ZM380.116 66.1872H391.156V69.5792H380.116V66.1872ZM378.324 57.3552H393.012V70.8272H389.3V60.7472H381.844V70.9552H378.324V57.3552ZM377.204 42.4432H391.86V45.9632H377.204V42.4432ZM390.068 42.4432H393.652C393.652 42.4432 393.62 43.3712 393.588 43.8192C393.428 50.5072 393.204 53.2912 392.404 54.3152C391.732 55.1472 391.028 55.4032 390.004 55.5312C389.14 55.6592 387.668 55.6592 386.1 55.6592C386.004 54.5392 385.588 53.0672 384.98 52.1072C386.324 52.2352 387.636 52.2352 388.244 52.2352C388.692 52.2352 389.012 52.1712 389.268 51.8832C389.748 51.3392 389.94 49.0352 390.068 42.9872V42.4432ZM381.78 43.8832H385.556C385.076 49.2912 383.828 53.8032 378.164 56.4912C377.716 55.5952 376.692 54.2512 375.892 53.6112C380.692 51.5312 381.428 48.0112 381.78 43.8832ZM369.14 40.9712L372.468 42.2192C371.156 44.6512 369.684 47.4992 368.436 49.2912L365.876 48.1712C367.028 46.2832 368.404 43.2112 369.14 40.9712ZM372.82 44.7472L375.924 46.1552C373.62 49.8352 370.484 54.2832 368.052 57.0672L365.844 55.8192C368.212 52.9072 371.156 48.2032 372.82 44.7472ZM364.212 48.5552L366.036 45.9312C367.732 47.4032 369.716 49.4192 370.548 50.8912L368.564 53.8672C367.796 52.3312 365.844 50.0912 364.212 48.5552ZM371.86 52.3952L374.388 51.3392C375.636 53.4832 376.852 56.2992 377.236 58.1552L374.516 59.3712C374.164 57.5152 373.076 54.6032 371.86 52.3952ZM364.18 55.0512C367.124 54.9552 371.444 54.7952 375.668 54.6032L375.636 57.6432C371.7 57.9312 367.604 58.1872 364.5 58.4112L364.18 55.0512ZM372.564 60.3632L375.252 59.4992C376.052 61.3232 376.884 63.7232 377.236 65.3232L374.42 66.3152C374.1 64.7152 373.268 62.2512 372.564 60.3632ZM365.556 59.7552L368.724 60.2992C368.404 63.3712 367.7 66.5712 366.772 68.6192C366.1 68.2032 364.66 67.5312 363.86 67.2112C364.788 65.3232 365.3 62.4752 365.556 59.7552ZM369.14 56.7472H372.5V71.0192H369.14V56.7472ZM419.572 44.7792C417.076 48.8752 412.18 53.2912 406.804 56.1392C406.324 55.1792 405.236 53.7392 404.404 52.9392C410.1 50.2192 415.092 45.0992 417.3 40.8432H421.46C424.756 46.2512 429.844 50.4752 435.092 52.4912C434.1 53.5152 433.236 54.8272 432.532 56.0112C427.412 53.4192 422.164 48.9392 419.572 44.7792ZM423.124 52.6512H427.124V70.9872H423.124V52.6512ZM412.084 52.8112H416.02V56.7792C416.02 61.3232 415.38 67.0512 409.076 70.9872C408.404 70.1552 406.9 68.8752 405.876 68.2672C411.508 64.9072 412.084 60.3952 412.084 56.6832V52.8112ZM458.548 43.0832C458.356 43.9152 458.164 44.9392 458.004 45.7392C457.684 47.1792 457.3 49.1632 456.948 50.7952C455.892 55.3072 453.332 64.4272 449.972 69.8352L445.78 68.1712C449.588 63.0512 451.988 54.6032 452.884 50.5712C453.492 47.6912 453.844 44.9712 453.812 42.5712L458.548 43.0832ZM469.588 46.2832C471.54 49.0672 474.228 55.0192 475.22 58.0592L471.156 59.9472C470.324 56.3952 468.052 50.7632 465.748 47.9152L469.588 46.2832ZM445.588 49.6432C446.74 49.7072 447.828 49.6752 449.012 49.6432C451.572 49.5792 457.652 48.8752 460.02 48.8752C463.412 48.8752 465.812 50.3792 465.812 55.0192C465.812 58.7952 465.332 63.9792 463.988 66.7312C462.932 68.9712 461.14 69.6752 458.74 69.6752C457.492 69.6752 455.988 69.4832 454.9 69.2272L454.196 65.0032C455.444 65.3552 457.268 65.6752 458.1 65.6752C459.188 65.6752 460.02 65.3552 460.5 64.2992C461.396 62.5072 461.812 58.6032 461.812 55.4672C461.812 52.9072 460.724 52.5232 458.708 52.5232C456.82 52.5232 451.284 53.2272 449.524 53.4512C448.596 53.5792 446.932 53.8032 445.972 53.9632L445.588 49.6432ZM469.012 41.8672C469.812 43.0192 470.932 45.0672 471.54 46.2512L468.98 47.3392C468.308 46.0272 467.316 44.1392 466.452 42.8912L469.012 41.8672ZM472.788 40.3952C473.62 41.6112 474.804 43.6592 475.38 44.7792L472.82 45.8672C472.18 44.5232 471.124 42.6672 470.26 41.4512L472.788 40.3952ZM507.124 44.1392H511.156V66.1552C511.156 68.4592 510.612 69.6112 509.076 70.2192C507.476 70.8912 505.14 70.9552 501.844 70.9552C501.62 69.8032 500.852 67.9152 500.244 66.8592C502.548 67.0192 505.332 66.9872 506.1 66.9872C506.868 66.9552 507.124 66.7312 507.124 66.0592V44.1392ZM488.82 50.5392H492.564V65.4512H488.82V50.5392ZM490.42 50.5392H502.484V62.9872H490.42V59.3392H498.676V54.1872H490.42V50.5392ZM485.876 43.0832H514.868V46.9552H485.876V43.0832ZM530.452 40.7792L534.452 41.6432C533.3 44.5872 531.86 47.7232 530.644 49.7712L527.316 48.9072C528.468 46.7312 529.78 43.3392 530.452 40.7792ZM525.62 47.3392C529.076 47.2432 534.26 47.0192 539.22 46.7952L539.188 50.1232C534.484 50.4752 529.556 50.7632 525.908 50.9872L525.62 47.3392ZM527.508 52.4912H537.684V55.6592H531.06V70.9552H527.508V52.4912ZM535.86 52.4912H539.668V67.1152C539.668 68.7472 539.348 69.7072 538.26 70.2832C537.14 70.8592 535.7 70.9232 533.748 70.9232C533.556 69.8992 533.012 68.4272 532.532 67.4992C533.652 67.5632 534.932 67.5632 535.348 67.5312C535.732 67.5312 535.86 67.4352 535.86 67.0192V52.4912ZM529.14 57.3232H538.004V60.1712H529.14V57.3232ZM529.14 62.0272H538.004V64.8752H529.14V62.0272ZM542.164 41.0672H546.004V50.6672C546.004 51.7872 546.196 51.9472 547.412 51.9472C547.924 51.9472 550.228 51.9472 550.9 51.9472C551.956 51.9472 552.148 51.4672 552.276 48.6512C553.076 49.2592 554.644 49.8352 555.7 50.0592C555.284 54.2192 554.26 55.3712 551.284 55.3712C550.484 55.3712 547.604 55.3712 546.868 55.3712C543.092 55.3712 542.164 54.2832 542.164 50.7312V41.0672ZM551.764 42.9552L554.196 45.7392C551.348 47.1152 547.636 48.3312 544.468 49.1952C544.308 48.4272 543.796 47.2752 543.38 46.5392C546.356 45.6112 549.652 44.1712 551.764 42.9552ZM542.164 56.0112H545.972V66.0912C545.972 67.2752 546.196 67.4032 547.444 67.4032C547.988 67.4032 550.388 67.4032 551.092 67.4032C552.212 67.4032 552.404 66.8272 552.564 63.5632C553.364 64.1392 554.9 64.7472 555.956 64.9712C555.54 69.4832 554.516 70.7632 551.444 70.7632C550.644 70.7632 547.668 70.7632 546.9 70.7632C543.124 70.7632 542.164 69.6752 542.164 66.1232V56.0112ZM552.02 57.3552L554.516 60.1712C551.604 61.7392 547.732 63.0832 544.436 64.0112C544.244 63.2752 543.7 62.0592 543.316 61.3232C546.42 60.3312 549.844 58.7632 552.02 57.3552ZM534.804 44.2992L538.068 43.0832C539.636 45.3872 541.3 48.4272 541.908 50.5392L538.42 51.9472C537.876 49.8992 536.34 46.6992 534.804 44.2992Z" fill="black"/>
<path d="M224 87H333" stroke="#F7931E" stroke-width="3" stroke-linecap="round"/>
<path d="M121.006 108.271H124.156V109.741H122.49V120.381H121.006V108.271ZM123.372 108.271H124.856V116.825C124.856 117.427 124.786 117.903 124.422 118.183C124.072 118.449 123.68 118.491 123.078 118.491C123.05 118.057 122.854 117.357 122.644 116.951C122.91 116.951 123.134 116.951 123.246 116.951C123.33 116.951 123.372 116.923 123.372 116.783V108.271ZM116.512 107.221L117.968 107.501C117.632 109.041 117.058 110.609 116.4 111.603C116.12 111.379 115.49 111.001 115.126 110.819C115.77 109.937 116.26 108.565 116.512 107.221ZM116.792 108.635H120.642V110.119H116.344L116.792 108.635ZM115.63 111.785H120.684V113.297H115.63V111.785ZM118.472 114.543H120.628V115.957H118.472V114.543ZM115.826 114.081H117.114V118.533L115.826 118.785V114.081ZM115.168 118.169C116.568 118.043 118.71 117.791 120.754 117.539L120.796 118.925C118.948 119.219 116.988 119.485 115.504 119.681L115.168 118.169ZM117.8 109.265H119.256V118.323L117.8 118.589V109.265ZM114.076 107.207L115.588 107.781C114.818 108.999 113.656 110.315 112.592 111.183C112.396 110.833 112.004 110.203 111.752 109.895C112.62 109.209 113.6 108.089 114.076 107.207ZM114.3 110.161L115.756 110.679C114.958 112.387 113.698 114.263 112.536 115.439C112.382 115.089 111.92 114.277 111.654 113.913C112.634 112.975 113.67 111.561 114.3 110.161ZM113.348 113.227L114.86 111.701V111.715V120.367H113.348V113.227ZM131.926 118.323H139.906V119.975H131.926V118.323ZM132.5 111.561H139.57V113.171H132.5V111.561ZM135.174 107.361H136.896V119.121H135.174V107.361ZM126.9 109.811H131.492V111.337H126.9V109.811ZM128.902 114.599L130.568 112.611V120.381H128.902V114.599ZM128.902 107.235H130.568V110.525H128.902V107.235ZM130.4 113.087C130.89 113.423 132.472 114.823 132.85 115.173L131.828 116.531C131.282 115.803 130.106 114.515 129.476 113.899L130.4 113.087ZM130.876 109.811H131.212L131.506 109.755L132.444 110.371C131.38 113.101 129.266 115.551 127.18 116.867C127.026 116.419 126.634 115.593 126.382 115.271C128.286 114.235 130.134 112.177 130.876 110.119V109.811ZM147.158 109.321C148.88 109.559 151.68 109.489 153.178 109.307V111.113C151.47 111.281 148.922 111.281 147.172 111.113L147.158 109.321ZM148.278 115.299C148.166 115.775 148.11 116.111 148.11 116.475C148.11 117.105 148.656 117.483 150.084 117.483C151.33 117.483 152.366 117.371 153.584 117.105L153.626 118.995C152.716 119.177 151.582 119.275 150 119.275C147.592 119.275 146.43 118.407 146.43 116.979C146.43 116.419 146.514 115.873 146.682 115.159L148.278 115.299ZM145.002 108.383C144.904 108.677 144.722 109.391 144.666 109.643C144.47 110.567 143.98 113.367 143.98 114.767C143.98 115.047 143.994 115.397 144.036 115.677C144.246 115.201 144.47 114.725 144.68 114.249L145.548 114.935C145.142 116.111 144.68 117.623 144.54 118.365C144.498 118.575 144.456 118.883 144.456 119.023C144.47 119.177 144.47 119.415 144.484 119.611L142.874 119.709C142.594 118.757 142.328 117.049 142.328 115.145C142.328 113.031 142.748 110.679 142.902 109.587C142.958 109.209 143.028 108.677 143.042 108.229L145.002 108.383ZM159.59 110.329V110.917H165.54V110.329H159.59ZM159.59 108.747V109.321H165.54V108.747H159.59ZM157.98 107.669H167.22V111.995H157.98V107.669ZM156.328 112.499H168.844V113.843H156.328V112.499ZM162.74 114.361H167.318V115.649H162.74V114.361ZM158.47 114.403H161.662V115.565H158.47V114.403ZM158.47 116.153H161.662V117.315H158.47V116.153ZM164.462 115.523C165.246 117.231 166.898 118.519 169.152 119.051C168.802 119.345 168.368 119.961 168.158 120.353C165.736 119.653 164.07 118.085 163.118 115.901L164.462 115.523ZM166.828 114.361H167.122L167.402 114.305L168.438 114.697C167.612 117.623 165.638 119.415 163.146 120.353C162.964 119.961 162.544 119.359 162.236 119.051C164.406 118.365 166.212 116.755 166.828 114.599V114.361ZM156.202 118.197C157.602 118.113 159.66 117.959 161.62 117.791V119.149C159.744 119.331 157.784 119.513 156.314 119.639L156.202 118.197ZM160.794 112.933H162.404V120.367H160.794V112.933ZM157.42 112.975H158.96V118.687H157.42V112.975ZM174.01 112.681V117.833H172.4V114.235H170.832V112.681H174.01ZM174.01 117.175C174.542 118.099 175.536 118.505 176.978 118.561C178.658 118.645 181.976 118.603 183.922 118.449C183.74 118.827 183.474 119.597 183.404 120.087C181.654 120.171 178.672 120.199 176.964 120.115C175.284 120.045 174.15 119.639 173.31 118.561C172.75 119.107 172.162 119.639 171.462 120.241L170.664 118.575C171.252 118.197 171.938 117.693 172.554 117.175H174.01ZM170.874 108.523L172.162 107.585C172.96 108.201 173.94 109.139 174.374 109.797L172.988 110.861C172.61 110.175 171.672 109.209 170.874 108.523ZM174.598 108.187H183.614V109.489H174.598V108.187ZM176.838 112.471H181.346V113.479H176.838V112.471ZM178.182 107.221H179.806V108.957H178.182V107.221ZM178.476 111.687H179.68V114.529H178.476V111.687ZM174.962 110.469H182.298V111.743H176.474V117.987H174.962V110.469ZM177.188 114.263H178.322V117.357H177.188V114.263ZM177.832 114.263H180.996V116.909H177.832V115.985H179.834V115.201H177.832V114.263ZM181.766 110.469H183.306V116.503C183.306 117.189 183.194 117.553 182.746 117.805C182.284 118.029 181.682 118.043 180.856 118.043C180.786 117.637 180.59 117.049 180.394 116.671C180.87 116.699 181.388 116.699 181.556 116.699C181.71 116.685 181.766 116.643 181.766 116.475V110.469ZM180.422 109.111L181.99 109.461C181.71 110.007 181.472 110.497 181.262 110.861L179.932 110.539C180.1 110.119 180.31 109.517 180.422 109.111ZM176.208 109.531L177.594 109.209C177.832 109.601 178.056 110.147 178.112 110.525L176.656 110.875C176.6 110.511 176.418 109.951 176.208 109.531ZM186.148 109.937C186.75 110.007 187.506 110.035 188.01 110.035C189.746 110.035 191.636 109.741 192.994 109.307L193.036 110.931C191.832 111.267 189.816 111.631 188.024 111.617C187.464 111.617 186.876 111.603 186.274 111.575L186.148 109.937ZM191.594 107.837C191.412 108.579 191.076 109.951 190.698 111.141C190.054 113.157 188.794 115.761 187.604 117.413L185.91 116.545C187.17 115.005 188.43 112.555 188.976 111.043C189.312 110.035 189.62 108.733 189.662 107.655L191.594 107.837ZM194.884 112.205C194.842 112.793 194.856 113.381 194.87 113.997C194.898 114.823 195.024 116.909 195.024 117.693C195.024 118.995 194.324 120.017 192.322 120.017C190.586 120.017 189.214 119.233 189.214 117.693C189.214 116.335 190.362 115.271 192.308 115.271C194.758 115.271 196.69 116.503 197.852 117.553L196.928 119.065C195.92 118.127 194.324 116.685 192.21 116.685C191.398 116.685 190.866 117.035 190.866 117.525C190.866 118.043 191.314 118.407 192.084 118.407C193.036 118.407 193.344 117.875 193.344 117.091C193.344 116.251 193.19 113.675 193.12 112.205H194.884ZM197.292 112.947C196.48 112.289 194.884 111.379 193.918 110.945L194.828 109.573C195.836 110.007 197.558 110.945 198.286 111.463L197.292 112.947ZM205.524 107.557H207.442C207.316 109.909 207.134 116.741 201.408 120.255C201.114 119.821 200.568 119.303 199.994 118.911C205.622 115.789 205.426 109.391 205.524 107.557ZM207.386 107.921C207.428 109.139 207.722 116.125 213.462 118.813C212.93 119.219 212.426 119.779 212.174 120.241C206.14 117.245 205.874 109.531 205.762 108.089L207.386 107.921ZM221.05 110.119H227.924V111.715H221.05V110.119ZM224.802 107.235H226.58V118.309C226.58 119.261 226.384 119.723 225.81 119.989C225.236 120.269 224.354 120.311 223.136 120.311C223.052 119.835 222.8 119.079 222.562 118.617C223.332 118.645 224.2 118.631 224.452 118.631C224.704 118.631 224.802 118.547 224.802 118.309V107.235ZM224.662 110.889L226.02 111.715C224.998 114.151 223.038 116.811 221.064 118.295C220.784 117.847 220.266 117.259 219.846 116.923C221.806 115.677 223.724 113.171 224.662 110.889ZM215.03 110.105H220.658V111.715H215.03V110.105ZM217.186 107.221H218.88V120.367H217.186V107.221ZM217.13 111.183L218.222 111.575C217.69 113.885 216.696 116.587 215.492 118.057C215.324 117.539 214.904 116.825 214.624 116.377C215.716 115.145 216.696 113.003 217.13 111.183ZM218.754 111.967C219.202 112.317 220.728 113.871 221.064 114.249L220.084 115.691C219.594 114.893 218.474 113.437 217.928 112.793L218.754 111.967ZM237.374 109.517C237.178 110.945 236.898 112.583 236.408 114.235C235.568 117.063 234.364 118.799 232.838 118.799C231.27 118.799 229.982 117.077 229.982 114.711C229.982 111.491 232.796 108.719 236.422 108.719C239.88 108.719 242.078 111.127 242.078 114.193C242.078 117.133 240.272 119.219 236.744 119.765L235.68 118.113C236.226 118.043 236.618 117.973 236.996 117.889C238.774 117.455 240.174 116.181 240.174 114.123C240.174 111.925 238.802 110.357 236.38 110.357C233.412 110.357 231.788 112.779 231.788 114.543C231.788 115.957 232.348 116.643 232.88 116.643C233.482 116.643 234.014 115.747 234.602 113.857C235.008 112.541 235.316 110.931 235.456 109.461L237.374 109.517ZM246.53 109.083C247.566 109.195 248.882 109.251 250.352 109.251C251.724 109.251 253.334 109.167 254.412 109.055V110.917C253.432 111.001 251.696 111.085 250.366 111.085C248.896 111.085 247.678 111.015 246.53 110.931V109.083ZM247.72 115.005C247.58 115.509 247.482 115.957 247.482 116.433C247.482 117.329 248.322 117.973 250.352 117.973C252.242 117.973 254.02 117.763 255.266 117.427L255.28 119.387C254.062 119.681 252.382 119.863 250.408 119.863C247.202 119.863 245.592 118.785 245.592 116.867C245.592 116.055 245.76 115.369 245.872 114.851L247.72 115.005ZM254.776 107.627C255.126 108.145 255.616 109.041 255.882 109.559L254.762 110.035C254.468 109.461 254.034 108.621 253.656 108.089L254.776 107.627ZM256.428 106.997C256.792 107.529 257.31 108.411 257.562 108.901L256.442 109.391C256.162 108.803 255.7 107.991 255.322 107.459L256.428 106.997ZM265.822 118.267H270.652V119.751H265.822V118.267ZM265.038 114.403H271.464V120.297H269.84V115.887H266.578V120.353H265.038V114.403ZM264.548 107.879H270.96V109.419H264.548V107.879ZM270.176 107.879H271.744C271.744 107.879 271.73 108.285 271.716 108.481C271.646 111.407 271.548 112.625 271.198 113.073C270.904 113.437 270.596 113.549 270.148 113.605C269.77 113.661 269.126 113.661 268.44 113.661C268.398 113.171 268.216 112.527 267.95 112.107C268.538 112.163 269.112 112.163 269.378 112.163C269.574 112.163 269.714 112.135 269.826 112.009C270.036 111.771 270.12 110.763 270.176 108.117V107.879ZM266.55 108.509H268.202C267.992 110.875 267.446 112.849 264.968 114.025C264.772 113.633 264.324 113.045 263.974 112.765C266.074 111.855 266.396 110.315 266.55 108.509ZM261.02 107.235L262.476 107.781C261.902 108.845 261.258 110.091 260.712 110.875L259.592 110.385C260.096 109.559 260.698 108.215 261.02 107.235ZM262.63 108.887L263.988 109.503C262.98 111.113 261.608 113.059 260.544 114.277L259.578 113.731C260.614 112.457 261.902 110.399 262.63 108.887ZM258.864 110.553L259.662 109.405C260.404 110.049 261.272 110.931 261.636 111.575L260.768 112.877C260.432 112.205 259.578 111.225 258.864 110.553ZM262.21 112.233L263.316 111.771C263.862 112.709 264.394 113.941 264.562 114.753L263.372 115.285C263.218 114.473 262.742 113.199 262.21 112.233ZM258.85 113.395C260.138 113.353 262.028 113.283 263.876 113.199L263.862 114.529C262.14 114.655 260.348 114.767 258.99 114.865L258.85 113.395ZM262.518 115.719L263.694 115.341C264.044 116.139 264.408 117.189 264.562 117.889L263.33 118.323C263.19 117.623 262.826 116.545 262.518 115.719ZM259.452 115.453L260.838 115.691C260.698 117.035 260.39 118.435 259.984 119.331C259.69 119.149 259.06 118.855 258.71 118.715C259.116 117.889 259.34 116.643 259.452 115.453ZM261.02 114.137H262.49V120.381H261.02V114.137ZM280.144 108.901C279.052 110.693 276.91 112.625 274.558 113.871C274.348 113.451 273.872 112.821 273.508 112.471C276 111.281 278.184 109.041 279.15 107.179H280.97C282.412 109.545 284.638 111.393 286.934 112.275C286.5 112.723 286.122 113.297 285.814 113.815C283.574 112.681 281.278 110.721 280.144 108.901ZM281.698 112.345H283.448V120.367H281.698V112.345ZM276.868 112.415H278.59V114.151C278.59 116.139 278.31 118.645 275.552 120.367C275.258 120.003 274.6 119.443 274.152 119.177C276.616 117.707 276.868 115.733 276.868 114.109V112.415ZM293.36 111.007C294.668 111.235 297.104 111.187 298.292 111.007V111.979C297.008 112.123 294.68 112.123 293.372 111.979L293.36 111.007ZM293.828 115.903C293.72 116.335 293.66 116.671 293.66 116.995C293.66 117.547 294.044 118.087 295.688 118.087C296.756 118.087 297.692 117.991 298.652 117.763L298.676 118.771C297.932 118.927 296.924 119.023 295.676 119.023C293.672 119.023 292.772 118.351 292.772 117.223C292.772 116.827 292.832 116.395 292.964 115.819L293.828 115.903ZM291.08 110.083C291.008 110.287 290.912 110.671 290.864 110.887C290.636 112.003 290.264 114.139 290.264 115.495C290.264 116.071 290.3 116.575 290.372 117.163C290.576 116.623 290.852 115.903 291.056 115.411L291.56 115.807C291.26 116.659 290.816 117.919 290.708 118.495C290.672 118.663 290.648 118.891 290.648 119.035C290.66 119.155 290.672 119.323 290.684 119.455L289.832 119.515C289.592 118.663 289.388 117.283 289.388 115.651C289.388 113.887 289.784 111.835 289.928 110.839C289.964 110.563 290 110.263 290.012 109.999L291.08 110.083ZM304.91 108.803H313.492V109.741H304.91V108.803ZM304.448 111.309H313.87V112.247H304.448V111.309ZM307.262 117.231H311.126V118.043H307.262V117.231ZM306.926 107.361H307.92V112.079H306.926V107.361ZM310.398 107.361H311.42V112.079H310.398V107.361ZM306.898 115.131H307.598V118.883H306.898V115.131ZM310.748 115.131H311.434V118.687H310.748V115.131ZM312.428 113.437H313.422V119.093C313.422 119.625 313.324 119.905 312.932 120.059C312.554 120.199 311.896 120.199 310.902 120.199C310.86 119.947 310.734 119.583 310.622 119.303C311.336 119.331 311.994 119.331 312.19 119.331C312.372 119.317 312.428 119.261 312.428 119.093V113.437ZM305.022 113.437H312.848V114.375H305.974V120.227H305.022V113.437ZM301.69 108.257L302.32 107.501C303.174 107.879 304.224 108.509 304.742 108.999L304.098 109.839C303.594 109.335 302.558 108.663 301.69 108.257ZM301.004 112.135L301.578 111.351C302.46 111.645 303.58 112.191 304.154 112.639L303.566 113.535C303.02 113.073 301.914 112.485 301.004 112.135ZM301.382 119.401C302.04 118.323 302.978 116.489 303.664 114.893L304.49 115.523C303.86 117.007 303.034 118.743 302.32 120.045L301.382 119.401ZM308.648 111.939H309.642V114.109H309.558V117.763H308.732V114.109H308.648V111.939ZM322.2 114.977H327.548V115.971H322.2V114.977ZM319.064 115.579C320.072 118.477 322.326 119.037 325.252 119.037C325.7 119.037 328.08 119.037 328.682 119.023C328.528 119.275 328.36 119.751 328.304 120.045H325.196C321.794 120.045 319.456 119.331 318.196 115.929L319.064 115.579ZM321.724 112.513H322.802V119.471L321.724 119.121V112.513ZM318.588 109.041V111.799H326.05V109.041H318.588ZM317.552 108.047H327.142V112.807H317.552V108.047ZM318.364 113.857L319.47 113.983C319.134 116.279 318.35 118.855 316.558 120.241C316.376 120.031 316.026 119.681 315.802 119.527C317.468 118.253 318.154 115.873 318.364 113.857ZM333.022 109.349C332.952 109.671 332.91 110.343 332.896 110.707C332.882 111.575 332.896 112.863 332.994 114.011C333.232 116.349 333.904 117.903 334.912 117.903C335.626 117.903 336.284 116.461 336.648 115.061L337.53 116.055C336.676 118.421 335.836 119.233 334.884 119.233C333.554 119.233 332.294 117.917 331.902 114.291C331.776 113.087 331.748 111.379 331.748 110.567C331.748 110.245 331.748 109.643 331.664 109.321L333.022 109.349ZM340.302 109.727C341.562 111.351 342.57 114.333 342.78 116.699L341.646 117.147C341.408 114.627 340.554 111.743 339.224 110.105L340.302 109.727ZM350.788 108.103C350.704 108.411 350.606 108.943 350.55 109.209C350.34 110.217 350.046 111.799 349.654 113.199C349.15 115.187 348.212 118.085 347.47 119.611L346.252 119.205C347.092 117.749 348.072 114.907 348.604 112.933C348.94 111.645 349.304 109.881 349.402 109.153C349.458 108.761 349.486 108.285 349.458 107.991L350.788 108.103ZM347.694 110.441C349.234 110.441 351.292 110.189 353.028 109.755V110.847C351.292 111.239 349.178 111.477 347.666 111.477C347.05 111.477 346.56 111.463 346.042 111.421L346.014 110.329C346.672 110.413 347.176 110.441 347.694 110.441ZM352.118 112.359C352.846 112.289 353.784 112.247 354.68 112.247C355.492 112.247 356.346 112.275 357.102 112.359L357.074 113.423C356.346 113.339 355.534 113.255 354.708 113.255C353.84 113.255 352.972 113.311 352.118 113.409V112.359ZM352.398 115.761C352.286 116.223 352.202 116.657 352.202 117.021C352.202 117.679 352.58 118.323 354.568 118.323C355.492 118.323 356.444 118.225 357.312 118.057L357.27 119.177C356.514 119.289 355.576 119.373 354.554 119.373C352.356 119.373 351.152 118.701 351.152 117.315C351.152 116.783 351.236 116.251 351.362 115.663L352.398 115.761ZM365.068 108.299C364.984 108.607 364.872 109.139 364.816 109.405C364.62 110.413 364.326 112.009 363.934 113.395C363.43 115.383 362.492 118.281 361.75 119.807L360.518 119.401C361.372 117.959 362.352 115.103 362.87 113.129C363.22 111.841 363.584 110.091 363.682 109.349C363.738 108.957 363.766 108.481 363.738 108.187L365.068 108.299ZM361.974 110.637C363.514 110.637 365.572 110.399 367.308 109.951V111.057C365.572 111.449 363.458 111.673 361.946 111.673C361.33 111.673 360.84 111.659 360.322 111.617L360.294 110.539C360.952 110.623 361.456 110.637 361.974 110.637ZM366.398 112.569C367.126 112.499 368.05 112.443 368.96 112.443C369.772 112.443 370.626 112.471 371.382 112.555L371.354 113.619C370.626 113.535 369.814 113.465 368.988 113.465C368.106 113.465 367.252 113.507 366.398 113.605V112.569ZM366.678 115.971C366.566 116.419 366.482 116.867 366.482 117.231C366.482 117.889 366.86 118.533 368.848 118.533C369.758 118.533 370.724 118.421 371.592 118.253L371.55 119.387C370.794 119.485 369.856 119.583 368.834 119.583C366.636 119.583 365.432 118.897 365.432 117.511C365.432 116.979 365.516 116.461 365.642 115.859L366.678 115.971ZM369.856 108.733C370.22 109.223 370.724 110.091 371.018 110.651L370.262 110.987C369.982 110.427 369.492 109.573 369.114 109.041L369.856 108.733ZM371.41 108.159C371.788 108.677 372.32 109.545 372.586 110.077L371.83 110.413C371.536 109.797 371.06 109.013 370.668 108.481L371.41 108.159ZM377.122 109.349C377.052 109.671 377.01 110.343 376.996 110.707C376.982 111.575 376.996 112.863 377.094 114.011C377.332 116.349 378.004 117.903 379.012 117.903C379.726 117.903 380.384 116.461 380.748 115.061L381.63 116.055C380.776 118.421 379.936 119.233 378.984 119.233C377.654 119.233 376.394 117.917 376.002 114.291C375.876 113.087 375.848 111.379 375.848 110.567C375.848 110.245 375.848 109.643 375.764 109.321L377.122 109.349ZM384.402 109.727C385.662 111.351 386.67 114.333 386.88 116.699L385.746 117.147C385.508 114.627 384.654 111.743 383.324 110.105L384.402 109.727ZM389.452 109.811C389.984 109.797 390.432 109.769 390.712 109.741C391.622 109.643 394.254 109.391 396.844 109.167C398.37 109.041 399.672 108.957 400.61 108.929L400.624 110.049C399.812 110.035 398.594 110.063 397.88 110.259C395.878 110.903 394.66 113.045 394.66 114.697C394.66 117.427 397.222 118.295 399.49 118.393L399.098 119.541C396.494 119.443 393.554 118.071 393.554 114.935C393.554 112.751 394.884 110.973 396.172 110.217C394.66 110.371 391.104 110.721 389.578 111.043L389.452 109.811ZM406.098 109.349C406.028 109.671 405.986 110.343 405.972 110.707C405.958 111.575 405.972 112.863 406.07 114.011C406.308 116.349 406.98 117.903 407.988 117.903C408.702 117.903 409.36 116.461 409.724 115.061L410.606 116.055C409.752 118.421 408.912 119.233 407.96 119.233C406.63 119.233 405.37 117.917 404.978 114.291C404.852 113.087 404.824 111.379 404.824 110.567C404.824 110.245 404.824 109.643 404.74 109.321L406.098 109.349ZM413.378 109.727C414.638 111.351 415.646 114.333 415.856 116.699L414.722 117.147C414.484 114.627 413.63 111.743 412.3 110.105L413.378 109.727ZM425.684 108.005C425.656 108.243 425.628 108.523 425.614 108.943C425.586 109.503 425.586 111.379 425.586 112.555C425.586 114.403 425.796 116.853 425.796 117.791C425.796 118.771 425.152 119.765 423.332 119.765C421.316 119.765 420.21 119.051 420.21 117.693C420.21 116.419 421.428 115.565 423.444 115.565C426.398 115.565 428.708 117.161 429.786 118.043L429.142 119.037C427.882 117.875 425.81 116.475 423.318 116.475C421.974 116.475 421.26 116.993 421.26 117.637C421.26 118.295 421.806 118.771 423.192 118.771C424.004 118.771 424.69 118.533 424.69 117.553C424.69 116.475 424.55 113.787 424.55 112.555C424.55 111.295 424.55 109.825 424.55 108.845C424.55 108.607 424.536 108.187 424.494 108.005H425.684ZM420.336 109.517C421.232 109.685 422.982 109.825 423.906 109.825C425.684 109.825 427.56 109.699 429.38 109.405V110.427C427.798 110.609 425.796 110.791 423.92 110.791C422.954 110.791 421.232 110.665 420.35 110.553L420.336 109.517ZM420.266 112.499C421.26 112.653 422.856 112.751 423.78 112.751C425.81 112.751 427.672 112.611 429.492 112.345V113.395C427.588 113.633 425.88 113.731 423.78 113.731C422.814 113.731 421.274 113.661 420.28 113.549L420.266 112.499ZM441.154 108.019C441.126 108.187 441.084 108.733 441.084 108.901C441.042 109.811 441.07 112.513 441.084 113.633L440.02 113.087C440.02 112.471 440.006 109.685 439.964 108.915C439.936 108.537 439.894 108.145 439.866 108.019H441.154ZM433.706 109.979C435.61 109.951 439.11 109.825 441.266 109.825C442.974 109.825 444.71 109.825 445.368 109.839L445.354 110.875C444.57 110.833 443.31 110.805 441.252 110.805C438.844 110.805 435.848 110.903 433.734 111.057L433.706 109.979ZM441.056 114.039C441.056 115.915 440.188 116.853 438.914 116.853C437.738 116.853 436.604 116.027 436.604 114.501C436.604 113.115 437.752 112.079 439.082 112.079C440.706 112.079 441.532 113.283 441.532 114.893C441.532 116.797 440.608 118.897 437.36 119.863L436.422 118.953C438.97 118.351 440.454 117.105 440.454 114.795C440.454 113.535 439.838 113.003 439.082 113.003C438.34 113.003 437.654 113.577 437.654 114.487C437.654 115.369 438.312 115.873 439.082 115.873C439.95 115.873 440.51 115.145 440.286 113.647L441.056 114.039Z" fill="black"/>
</svg>
