<svg width="105" height="80" viewBox="0 0 105 80" fill="none" xmlns="http://www.w3.org/2000/svg">
<path d="M0.0700073 33.236H2.06617V35.7983C2.06617 36.8559 2.46838 37.6306 3.25791 38.1073C4.03254 38.5839 5.28386 38.8223 7.04168 38.8223C8.79949 38.8223 9.88695 38.5244 10.5275 37.9285C11.1681 37.3326 11.4809 36.1856 11.4809 34.5171V23.8213H13.5069V35.0981C13.5069 37.139 12.9855 38.5988 11.9278 39.4629C10.8701 40.3418 9.11232 40.7738 6.63946 40.7738C4.43475 40.7738 2.79611 40.3716 1.72354 39.5671C0.636083 38.7478 0.0998008 37.5263 0.0998008 35.8727V33.236H0.0700073Z" fill="#D22D25"/>
<path d="M41.9298 40.3266V27.5601H42.9428L51.0019 36.513V27.5601H52.9087V40.3266H51.8808L43.8366 31.3885V40.3266H41.9298Z" fill="#D22D25"/>
<path d="M60.2677 40.3266V29.3477H54.9049V27.5601H67.5671V29.3477H62.2192V40.3266H60.2677Z" fill="#D22D25"/>
<path d="M35.0773 51.6931V42.8594H35.6434L41.2893 49.4586V42.8594H42.3767V51.6931H41.8256L36.1499 45.0939V51.6931H35.0624H35.0773Z" fill="#211815"/>
<path d="M44.8347 51.6926V44.855H51.1658V45.8829H45.8775V47.5662H49.3484V48.5643H45.8775V50.6945H51.4637V51.6926H44.8198H44.8347Z" fill="#211815"/>
<path d="M54.592 51.6926V45.8084H51.717V44.855H58.495V45.8084H55.6348V51.6926H54.592Z" fill="#211815"/>
<path d="M60.8487 51.6926L58.5397 44.855H59.5973L61.236 49.8752L62.9491 44.855H63.8429L65.5411 49.8752L67.1947 44.855H68.2374L65.9731 51.6926H65.1985L63.4109 46.4489L61.5935 51.6926H60.8636H60.8487Z" fill="#211815"/>
<path d="M73.0342 51.9017C71.8425 51.9017 70.8593 51.559 70.0698 50.8589C69.2802 50.1737 68.8929 49.3096 68.8929 48.2669C68.8929 47.2241 69.2802 46.3899 70.0698 45.6897C70.8444 45.0045 71.8276 44.6768 73.0342 44.6768C74.2408 44.6768 75.2538 45.0045 76.0135 45.6748C76.7882 46.3452 77.1755 47.1943 77.1755 48.2669C77.1755 49.3394 76.7882 50.1588 76.0135 50.8589C75.2389 51.5442 74.2408 51.9017 73.0342 51.9017ZM73.0342 50.8738C73.9429 50.8738 74.6877 50.6206 75.2538 50.129C75.8199 49.6374 76.1029 49.0266 76.1029 48.2669C76.1029 47.5071 75.8199 46.9113 75.2538 46.4048C74.6728 45.8983 73.9429 45.645 73.0342 45.645C72.1255 45.645 71.4105 45.8983 70.8444 46.3899C70.2783 46.8964 69.9953 47.522 69.9953 48.2669C69.9953 49.0117 70.2783 49.6374 70.8593 50.129C71.4254 50.6206 72.1553 50.8738 73.0342 50.8738Z" fill="#211815"/>
<path d="M79.9761 48.6991V51.6784H78.9333V44.8408H83.5811C84.2514 44.8408 84.7877 45.0047 85.1899 45.3473C85.5921 45.6899 85.7858 46.1666 85.7858 46.7625C85.7858 47.2541 85.6368 47.6861 85.3389 48.0436C85.0261 48.4011 84.6238 48.6246 84.1173 48.6991L86.0092 51.6784H84.8622L82.9256 48.6991H79.991H79.9761ZM79.9761 47.701H83.5811C83.9535 47.701 84.2365 47.6265 84.4302 47.4626C84.6238 47.2988 84.7132 47.0604 84.7132 46.7774C84.7132 46.4944 84.6089 46.256 84.4153 46.0921C84.2216 45.9283 83.9386 45.8538 83.5662 45.8538H79.9612V47.701H79.9761Z" fill="#211815"/>
<path d="M87.7224 51.6926V44.855H88.7651V47.8939L92.3404 44.855H93.7406L90.8954 47.2831L94.1429 51.6926H92.966L90.1356 47.9088L88.7502 49.1154V51.6926H87.7075H87.7224Z" fill="#211815"/>
<path d="M31.6362 36.737C32.0384 35.8879 32.2618 34.9643 32.2618 33.9513C32.2618 31.9701 31.5468 30.3463 30.1018 29.1099C28.6717 27.8586 26.8096 27.2329 24.5304 27.2329C22.2512 27.2329 20.4487 27.8735 19.0038 29.1397C17.5439 30.4357 16.8139 32.0446 16.8139 33.9513C16.8139 35.8581 17.5439 37.5266 19.0038 38.7928C19.7188 39.4333 20.5381 39.91 21.4319 40.2229C21.5362 41.8466 22.2363 43.3214 23.5622 44.6472C24.9029 45.9879 26.3776 46.7029 28.0163 46.7923C29.64 46.8817 31.0254 46.3603 32.1725 45.2133C33.3493 44.0364 33.8856 42.651 33.7664 41.0571C33.6621 39.5078 32.9471 38.0628 31.666 36.737H31.6362ZM18.8399 33.9364C18.8399 32.5361 19.3613 31.3593 20.4189 30.4357C21.4915 29.5121 22.8471 29.0503 24.5155 29.0503C26.184 29.0503 27.5843 29.527 28.6568 30.4655C29.7294 31.3891 30.2508 32.551 30.2508 33.9364C30.2508 34.4727 30.1465 34.9643 29.9975 35.4261C29.0888 34.8749 28.1503 34.5472 27.1374 34.4876C25.4987 34.3833 24.1133 34.9047 22.9812 36.0369C22.3406 36.6774 21.9086 37.4074 21.6554 38.182C21.2234 37.9734 20.8063 37.7202 20.4338 37.4074C19.3613 36.4987 18.8101 35.3367 18.8101 33.9364H18.8399ZM29.2676 36.7817C29.0888 37.0052 28.8952 37.2137 28.6717 37.4074C27.6141 38.3459 26.2287 38.8077 24.5304 38.8077C24.0984 38.8077 23.6813 38.7779 23.294 38.7034C23.4728 38.1671 23.7707 37.6755 24.2176 37.2435C25.0518 36.4093 26.0648 36.0369 27.2416 36.1114C27.9567 36.1709 28.6419 36.4093 29.2974 36.7966L29.2676 36.7817ZM30.9807 44.0066C30.1465 44.8408 29.1484 45.2133 27.9716 45.1239C26.7947 45.0494 25.6924 44.5131 24.6943 43.5001C23.8154 42.6212 23.3238 41.6678 23.1748 40.6251C23.6217 40.6847 24.0686 40.7293 24.5453 40.7293C26.8096 40.7293 28.6717 40.0888 30.1167 38.7928C30.37 38.5693 30.5785 38.3161 30.7871 38.0628C31.5915 38.9715 32.0384 39.9547 32.1129 41.0124C32.1874 42.1892 31.8149 43.2022 30.9956 44.0215L30.9807 44.0066Z" fill="#D22D25"/>
<path d="M37.9971 29.7203C37.9524 29.0648 37.4012 28.5435 36.7309 28.5435C36.0605 28.5435 35.5093 29.0648 35.4646 29.7203V40.431H38.012V29.7203H37.9971Z" fill="#211815"/>
<path d="M38.2652 25.4895C38.2652 26.3684 37.5502 27.0834 36.6713 27.0834C35.7924 27.0834 35.0773 26.3684 35.0773 25.4895C35.0773 24.6106 35.7924 23.8955 36.6713 23.8955C37.5502 23.8955 38.2652 24.6106 38.2652 25.4895Z" fill="#211815"/>
<path d="M31.4574 20.2764C31.1893 20.7531 31.3383 21.3489 31.8149 21.632C32.2916 21.9001 32.8875 21.7511 33.1706 21.2744C39.7698 9.99762 51.9851 2.98127 65.0347 2.98127C85.3985 2.98127 101.949 19.5464 101.949 39.8954C101.949 60.2443 85.3836 76.8095 65.0347 76.8095C49.6761 76.8095 35.7626 67.1415 30.4147 52.7512C30.221 52.2448 29.6549 51.9766 29.1484 52.1703C28.6419 52.3639 28.3738 52.93 28.5675 53.4365C34.1984 68.6014 48.8568 78.7758 65.0347 78.7758C86.4859 78.7758 103.93 61.3318 103.93 39.8805C103.93 18.4292 86.4859 1 65.0347 1C51.285 1 38.4142 8.38878 31.4425 20.2764H31.4574Z" fill="#D22D25" stroke="#D22D25" stroke-width="1.01"/>
</svg>
