<svg width="181" height="216" viewBox="0 0 181 216" fill="none" xmlns="http://www.w3.org/2000/svg">
<path d="M12.802 15.182C11.502 15.182 10.228 14.688 9.29196 13.791L10.397 12.465C11.073 13.102 11.996 13.518 12.841 13.518C13.842 13.518 14.362 13.089 14.362 12.426C14.362 11.711 13.777 11.477 12.919 11.113L11.632 10.567C10.67 10.177 9.68196 9.384 9.68196 7.993C9.68196 6.42 11.073 5.211 13.01 5.211C14.128 5.211 15.246 5.653 16.026 6.446L15.064 7.655C14.44 7.148 13.803 6.862 13.01 6.862C12.165 6.862 11.632 7.239 11.632 7.863C11.632 8.552 12.321 8.812 13.14 9.137L14.401 9.657C15.558 10.138 16.325 10.892 16.325 12.27C16.325 13.843 15.012 15.182 12.802 15.182ZM22.5741 15V6.979H19.8571V5.38H27.2151V6.979H24.4981V15H22.5741ZM31.7781 15V5.38H37.6801V6.979H33.7021V9.202H37.0691V10.827H33.7021V13.388H37.8231V15H31.7781ZM42.7661 15V5.38H45.9251C48.0441 5.38 49.6821 6.121 49.6821 8.409C49.6821 10.606 48.0441 11.581 45.9771 11.581H44.6901V15H42.7661ZM44.6901 10.06H45.8471C47.1731 10.06 47.8101 9.501 47.8101 8.409C47.8101 7.278 47.1081 6.914 45.7821 6.914H44.6901V10.06Z" fill="white"/>
<path d="M21.4638 39.336C17.8398 39.336 15.4398 36.192 15.4398 30.048C15.4398 23.928 17.8398 20.928 21.4638 20.928C25.0638 20.928 27.4638 23.928 27.4638 30.048C27.4638 36.192 25.0638 39.336 21.4638 39.336ZM21.4638 36.576C22.9998 36.576 24.1278 35.04 24.1278 30.048C24.1278 25.08 22.9998 23.64 21.4638 23.64C19.9278 23.64 18.7758 25.08 18.7758 30.048C18.7758 35.04 19.9278 36.576 21.4638 36.576ZM37.084 39.336C34.276 39.336 32.404 38.232 31.06 36.912L32.716 34.68C33.7 35.664 34.972 36.48 36.604 36.48C38.476 36.48 39.748 35.304 39.748 33.192C39.748 31.128 38.548 29.976 36.772 29.976C35.716 29.976 35.14 30.24 34.108 30.912L32.476 29.856L32.98 21.24H42.484V24.192H36.028L35.692 27.96C36.388 27.648 37.012 27.48 37.828 27.48C40.804 27.48 43.3 29.232 43.3 33.12C43.3 37.056 40.348 39.336 37.084 39.336Z" fill="white"/>
<path d="M81.89 79.6268C86.966 79.6268 91.08 75.5128 91.08 70.44C91.08 65.3624 86.966 61.25 81.89 61.25C76.8156 61.25 72.7016 65.3624 72.7016 70.44C72.7016 75.5128 76.8156 79.6268 81.89 79.6268Z" fill="white"/>
<path d="M128.786 114.851C128.619 113.738 127.581 112.972 126.464 113.137L121.758 113.845L121.354 111.168C121.188 110.08 120.175 109.333 119.088 109.494L118.483 109.585C118.443 109.264 118.373 108.944 118.238 108.633L113.87 98.5341C112.799 96.1397 109.853 93.0591 107.565 91.776C107.565 91.776 94.0894 83.509 92.9878 83.1067C92.3503 82.8764 91.6704 82.7726 90.9794 82.7515L84.2421 96.2242L76.0711 85.2641C75.5601 85.5981 75.1156 85.9518 74.8072 86.3282L62.699 100.74L52.7319 104.415C50.8436 105.111 49.8296 107.161 50.4265 109.084L50.4736 109.231C51.0591 111.121 53.5608 112.054 55.4879 111.609L63.0574 109.919C65.0836 109.452 67.0076 108.616 68.7304 107.455L75.1739 101.931L76.7849 115.509C76.931 116.622 76.9763 116.883 76.4182 117.858L71.7622 125.368C69.9666 128.267 68.6574 131.441 67.8867 134.765L64.4492 149.572C64.0322 151.951 65.6188 154.221 67.997 154.651L68.1625 154.68C70.4142 155.084 72.5994 153.697 73.1866 151.487L78.566 135.578L86.7925 123.961L93.6255 135.395C94.0505 136.24 94.6102 137.007 95.2868 137.668L107.995 150.092C109.598 151.66 112.135 151.729 113.821 150.253L114.024 150.076C114.887 149.32 115.411 148.25 115.48 147.104C115.549 145.959 115.156 144.833 114.389 143.983L103.657 132.031L97.8286 114.945L96.6705 97.376L104.379 100.659L111.368 111.087C110.945 111.517 110.696 112.109 110.792 112.753L111.196 115.435L106.488 116.142C105.372 116.308 104.606 117.347 104.775 118.463L106.707 131.326C106.876 132.439 107.914 133.208 109.029 133.039L129.007 130.038C130.123 129.868 130.889 128.828 130.721 127.715L128.786 114.851ZM83.7394 102.324C83.7394 101.6 84.3248 101.014 85.0469 101.014C85.7704 101.014 86.3561 101.6 86.3561 102.324C86.3561 103.047 85.7704 103.633 85.0469 103.633C84.3248 103.633 83.7394 103.047 83.7394 102.324ZM85.6229 111.415C84.901 111.415 84.3137 110.827 84.3137 110.104C84.3137 109.382 84.901 108.796 85.6229 108.796C86.3464 108.796 86.9321 109.382 86.9321 110.104C86.9321 110.827 86.3462 111.415 85.6229 111.415ZM112.74 112.816C113.746 113.611 115.135 113.822 116.356 113.267L116.463 113.222C117.231 112.875 117.8 112.278 118.149 111.577L119.374 111.392L119.458 111.454L119.86 114.13L113.092 115.149L112.74 112.816Z" fill="white"/>
<path d="M81.1389 88.9983L83.7816 92.5429L85.639 88.8279L84.9026 82.9893C83.2642 83.1386 81.7846 83.3883 80.4724 83.7144L81.1389 88.9983Z" fill="white"/>
<path d="M66.276 178.064H71.54V179.84H66.276V178.064ZM70.996 178.064H72.788C72.788 178.064 72.772 178.672 72.772 178.896C72.628 185.488 72.5 187.824 72.02 188.528C71.668 189.04 71.332 189.216 70.836 189.312C70.372 189.408 69.7 189.408 68.98 189.376C68.948 188.864 68.756 188.096 68.468 187.6C69.076 187.664 69.604 187.664 69.892 187.664C70.132 187.664 70.276 187.616 70.42 187.376C70.74 186.928 70.884 184.704 70.996 178.464V178.064ZM67.764 174.576H69.54C69.508 181.6 69.508 186.608 66.324 189.488C66.068 189.04 65.46 188.368 65.028 188.096C67.892 185.552 67.748 181.184 67.764 174.576ZM58.66 184.848H65.892V186.192H58.66V184.848ZM58.42 182.704H66.052V184.096H58.42V182.704ZM58.212 175.568H66.292V176.976H58.212V175.568ZM61.316 178.832H63.076V187.84H61.316V178.832ZM59.652 174.432H61.396V178H59.652V174.432ZM62.948 174.432H64.708V178H62.948V174.432ZM58.068 187.376C60.1 187.248 63.204 186.976 66.1 186.704L66.116 188.192C63.332 188.496 60.356 188.784 58.276 188.976L58.068 187.376ZM60.276 179.568V180.736H64.148V179.568H60.276ZM58.628 178.288H65.892V182.032H58.628V178.288ZM75.028 175.136H80.276V176.752H75.028V175.136ZM81.428 183.376H87.94V184.976H81.428V183.376ZM74.804 180.032H80.756V181.712H74.804V180.032ZM77.412 180.72H79.236V187.376C79.236 188.24 79.092 188.752 78.532 189.056C77.988 189.344 77.268 189.376 76.26 189.376C76.212 188.864 75.956 188.064 75.716 187.552C76.308 187.584 76.964 187.584 77.156 187.584C77.348 187.568 77.412 187.52 77.412 187.344V180.72ZM87.316 183.376H89.252C89.252 183.376 89.236 183.856 89.204 184.112C88.932 186.88 88.66 188.128 88.196 188.624C87.844 189.008 87.492 189.136 87.028 189.2C86.628 189.248 85.956 189.264 85.22 189.232C85.188 188.704 84.996 187.952 84.708 187.472C85.284 187.52 85.812 187.536 86.068 187.536C86.308 187.536 86.452 187.52 86.596 187.36C86.884 187.088 87.124 186.08 87.316 183.632V183.376ZM83.924 181.952H85.828C85.572 185.232 84.9 187.952 81.108 189.456C80.9 188.992 80.404 188.32 80.004 187.968C83.316 186.752 83.7 184.56 83.924 181.952ZM75.396 178.48L76.596 177.248C77.892 177.712 79.652 178.544 80.564 179.184L79.268 180.56C78.452 179.92 76.724 179.008 75.396 178.48ZM80.292 180.032H80.548L80.804 179.952L81.956 180.336C81.7 181.792 81.284 183.44 80.852 184.528L79.572 183.92C79.86 182.992 80.148 181.504 80.292 180.304V180.032ZM86.708 176.816L88.708 177.12C87.62 180.096 85.236 181.632 82.1 182.528C81.876 182.096 81.284 181.312 80.9 180.928C83.844 180.336 85.972 179.104 86.708 176.816ZM83.508 174.4L85.3 174.896C84.5 176.624 83.204 178.288 82.004 179.328C81.636 179.024 80.884 178.496 80.436 178.256C81.684 177.344 82.868 175.888 83.508 174.4ZM83.732 177.232C84.836 179.056 87.076 180.384 89.876 180.912C89.46 181.296 88.916 182.048 88.66 182.544C85.7 181.792 83.476 180.128 82.132 177.744L83.732 177.232ZM77.236 180.608L78.468 181.088C77.86 183.216 76.788 185.632 75.428 186.864C75.252 186.32 74.836 185.52 74.532 185.008C75.7 184.016 76.74 182.208 77.236 180.608ZM83.46 176.032H89.444V177.616H82.692L83.46 176.032ZM79.812 175.136H80.228L80.516 175.072L81.748 175.84C81.028 177.008 79.764 178.288 78.612 179.088C78.276 178.8 77.732 178.4 77.364 178.176C78.356 177.472 79.38 176.288 79.812 175.472V175.136ZM94.932 181.536H102.692V183.056H94.932V181.536ZM94.692 184.272H102.948V185.84H94.692V184.272ZM99.492 182.016H101.172V189.152H99.492V182.016ZM96.372 182.08H98.004V185.152C98.004 186.176 97.572 188.288 95.892 189.44C95.636 189.104 95.06 188.592 94.66 188.336C96.02 187.504 96.372 185.952 96.372 185.136V182.08ZM93.028 177.216H97.06V178.464H93.028V177.216ZM100.452 177.216H104.5V178.464H100.452V177.216ZM103.748 175.024H105.636V187.216C105.636 188.176 105.46 188.72 104.884 189.04C104.292 189.36 103.46 189.408 102.228 189.392C102.18 188.88 101.924 187.984 101.668 187.488C102.372 187.52 103.172 187.52 103.412 187.52C103.668 187.52 103.748 187.424 103.748 187.184V175.024ZM93.204 175.024H98.276V180.72H93.204V179.344H96.468V176.4H93.204V175.024ZM104.724 175.024V176.4H101.14V179.376H104.724V180.752H99.316V175.024H104.724ZM92.068 175.024H93.956V189.44H92.068V175.024ZM116.228 187.088H121.332V188.816H116.228V187.088ZM115.268 182.736H122.356V189.376H120.452V184.464H117.092V189.44H115.268V182.736ZM114.244 179.696C116.148 179.616 119.044 179.456 121.764 179.28L121.748 180.992C119.172 181.2 116.42 181.408 114.436 181.552L114.244 179.696ZM119.284 177.68L120.804 176.912C121.812 178.256 122.868 180.048 123.252 181.264L121.588 182.144C121.252 180.944 120.26 179.088 119.284 177.68ZM117.028 174.4L119.156 174.8C118.5 176.848 117.636 179.184 116.916 180.688L115.3 180.272C115.956 178.688 116.676 176.224 117.028 174.4ZM108.068 177.6H113.252V179.376H108.068V177.6ZM110.228 174.4L112.036 174.608C111.364 178 110.372 182.304 109.588 185.184L108.02 184.336C108.756 181.824 109.684 177.584 110.228 174.4ZM108.98 184.096L110.02 182.752C111.7 183.792 113.812 185.344 114.74 186.544L113.588 188.08C112.692 186.88 110.66 185.2 108.98 184.096ZM112.548 177.6H112.868L113.204 177.552L114.34 177.76C113.972 184 112.436 187.536 109.252 189.504C108.996 189.04 108.484 188.336 108.1 187.968C110.82 186.544 112.244 183.008 112.548 177.952V177.6ZM40.0006 200.184C39.8406 200.392 39.5366 200.776 39.3926 201C38.6406 202.248 37.1206 204.28 35.5366 205.4L33.8726 204.072C35.1686 203.288 36.4166 201.88 36.8326 201.096C35.8566 201.096 29.4886 201.096 28.4806 201.096C27.8246 201.096 27.2806 201.128 26.5286 201.208V198.968C27.1526 199.064 27.8246 199.144 28.4806 199.144C29.4886 199.144 36.2726 199.144 37.1046 199.144C37.5526 199.144 38.4326 199.08 38.7366 199L40.0006 200.184ZM33.4886 202.328C33.4886 206.296 33.3926 209.56 29.0406 211.912L27.1686 210.392C27.6966 210.216 28.2726 209.944 28.8646 209.496C30.8806 208.088 31.2646 206.408 31.2646 203.784C31.2646 203.272 31.2486 202.856 31.1686 202.328H33.4886ZM55.6006 200.36C55.4406 200.664 55.3286 201.128 55.2486 201.464C54.8806 203.032 54.1766 205.512 52.8326 207.304C51.3926 209.208 49.2646 210.808 46.4006 211.72L44.6566 209.8C47.8406 209.064 49.6326 207.672 50.9286 206.056C52.0006 204.712 52.5926 202.904 52.8166 201.528C51.8406 201.528 46.5606 201.528 45.3606 201.528C44.6246 201.528 43.8726 201.576 43.4566 201.592V199.336C43.9366 199.4 44.8326 199.464 45.3606 199.464C46.5606 199.464 51.8726 199.464 52.7686 199.464C53.0726 199.464 53.5846 199.448 54.0166 199.352L55.6006 200.36ZM64.8646 203.512C66.8326 204.648 69.7926 206.696 71.2806 207.88L69.7446 209.704C68.3526 208.392 65.3126 206.152 63.4406 204.968L64.8646 203.512ZM72.4006 200.792C72.2086 201.096 72.0006 201.544 71.8566 201.944C71.3766 203.416 70.4006 205.464 68.9606 207.24C67.4566 209.112 65.4086 210.904 62.3526 212.056L60.4966 210.456C63.8406 209.416 65.7446 207.736 67.1206 206.136C68.1926 204.872 69.1846 203.032 69.4886 201.784H64.0806L64.8166 199.976H69.3766C69.8726 199.976 70.4006 199.896 70.7686 199.784L72.4006 200.792ZM67.1046 198.328C66.7206 198.888 66.3046 199.624 66.1126 199.96C65.0406 201.896 62.9926 204.344 60.6886 205.928L58.9766 204.6C61.7766 202.872 63.2486 200.68 64.0646 199.288C64.3046 198.904 64.6406 198.168 64.7846 197.608L67.1046 198.328ZM76.1126 203.592C76.7046 203.64 77.8566 203.704 78.6886 203.704C80.5766 203.704 85.8566 203.704 87.2806 203.704C88.0326 203.704 88.7366 203.624 89.1686 203.592V206.12C88.7846 206.104 87.9686 206.024 87.2966 206.024C85.8406 206.024 80.5766 206.024 78.6886 206.024C77.7926 206.024 76.7206 206.072 76.1126 206.12V203.592ZM104.567 200.36C104.407 200.664 104.295 201.128 104.215 201.464C103.847 203.032 103.143 205.512 101.799 207.304C100.359 209.208 98.2314 210.808 95.3674 211.72L93.6234 209.8C96.8074 209.064 98.5994 207.672 99.8954 206.056C100.967 204.712 101.559 202.904 101.783 201.528C100.807 201.528 95.5274 201.528 94.3274 201.528C93.5914 201.528 92.8394 201.576 92.4234 201.592V199.336C92.9034 199.4 93.7994 199.464 94.3274 199.464C95.5274 199.464 100.839 199.464 101.735 199.464C102.039 199.464 102.551 199.448 102.983 199.352L104.567 200.36ZM117.751 201.048C117.687 201.448 117.671 201.96 117.671 202.392C117.735 204.488 117.831 208.344 117.863 210.888C117.879 211.72 117.239 212.296 116.295 212.296C115.527 212.296 114.535 212.264 113.815 212.216L113.703 210.392C114.343 210.472 115.111 210.52 115.527 210.52C115.831 210.52 115.959 210.36 115.959 210.024C115.959 208.232 115.895 204.488 115.799 202.392C115.799 201.992 115.751 201.496 115.671 201.048H117.751ZM110.039 203.256C110.423 203.32 111.063 203.352 111.495 203.352C112.391 203.352 118.951 203.352 119.575 203.352C119.991 203.352 120.615 203.304 120.887 203.256V205.208C120.519 205.192 120.007 205.176 119.671 205.176C119.175 205.176 112.231 205.176 111.543 205.176C111.079 205.176 110.487 205.208 110.039 205.24V203.256ZM109.351 209.48C111.927 208.296 114.471 206.136 115.335 204.568L116.375 204.584L116.407 206.136C115.575 207.64 112.983 209.896 110.743 211.064L109.351 209.48ZM125.639 199.656C126.279 199.672 126.887 199.688 127.319 199.688C128.487 199.688 134.983 199.688 136.135 199.688C136.535 199.688 137.127 199.688 137.719 199.672C137.687 200.152 137.687 200.728 137.687 201.224C137.687 202.2 137.687 208.088 137.687 209.064C137.687 209.688 137.703 211.224 137.719 211.288H135.495C135.495 211.224 135.543 209.976 135.543 209.096C135.543 208.168 135.543 201.736 135.543 201.736H127.799C127.799 201.736 127.799 208.152 127.799 209.096C127.799 209.864 127.815 211.208 127.815 211.288H125.623C125.623 211.208 125.655 209.8 125.655 209.032C125.655 208.072 125.655 202.152 125.655 201.224C125.655 200.76 125.655 200.12 125.639 199.656ZM136.327 208.376V210.408H126.711V208.376H136.327ZM141.719 203.592C142.311 203.64 143.463 203.704 144.295 203.704C146.183 203.704 151.463 203.704 152.887 203.704C153.639 203.704 154.343 203.624 154.775 203.592V206.12C154.391 206.104 153.575 206.024 152.903 206.024C151.447 206.024 146.183 206.024 144.295 206.024C143.399 206.024 142.327 206.072 141.719 206.12V203.592Z" fill="white"/>
</svg>
