<svg width="181" height="193" viewBox="0 0 181 193" fill="none" xmlns="http://www.w3.org/2000/svg">
<path d="M12.802 15.182C11.502 15.182 10.228 14.688 9.29196 13.791L10.397 12.465C11.073 13.102 11.996 13.518 12.841 13.518C13.842 13.518 14.362 13.089 14.362 12.426C14.362 11.711 13.777 11.477 12.919 11.113L11.632 10.567C10.67 10.177 9.68196 9.384 9.68196 7.993C9.68196 6.42 11.073 5.211 13.01 5.211C14.128 5.211 15.246 5.653 16.026 6.446L15.064 7.655C14.44 7.148 13.803 6.862 13.01 6.862C12.165 6.862 11.632 7.239 11.632 7.863C11.632 8.552 12.321 8.812 13.14 9.137L14.401 9.657C15.558 10.138 16.325 10.892 16.325 12.27C16.325 13.843 15.012 15.182 12.802 15.182ZM22.5741 15V6.979H19.8571V5.38H27.2151V6.979H24.4981V15H22.5741ZM31.7781 15V5.38H37.6801V6.979H33.7021V9.202H37.0691V10.827H33.7021V13.388H37.8231V15H31.7781ZM42.7661 15V5.38H45.9251C48.0441 5.38 49.6821 6.121 49.6821 8.409C49.6821 10.606 48.0441 11.581 45.9771 11.581H44.6901V15H42.7661ZM44.6901 10.06H45.8471C47.1731 10.06 47.8101 9.501 47.8101 8.409C47.8101 7.278 47.1081 6.914 45.7821 6.914H44.6901V10.06Z" fill="white"/>
<path d="M21.4638 39.336C17.8398 39.336 15.4398 36.192 15.4398 30.048C15.4398 23.928 17.8398 20.928 21.4638 20.928C25.0638 20.928 27.4638 23.928 27.4638 30.048C27.4638 36.192 25.0638 39.336 21.4638 39.336ZM21.4638 36.576C22.9998 36.576 24.1278 35.04 24.1278 30.048C24.1278 25.08 22.9998 23.64 21.4638 23.64C19.9278 23.64 18.7758 25.08 18.7758 30.048C18.7758 35.04 19.9278 36.576 21.4638 36.576ZM31.468 39V36.984C36.316 32.64 39.148 29.304 39.148 26.568C39.148 24.792 38.212 23.688 36.508 23.688C35.188 23.688 34.156 24.528 33.244 25.536L31.3 23.616C32.932 21.864 34.54 20.928 36.964 20.928C40.3 20.928 42.556 23.064 42.556 26.376C42.556 29.616 39.868 33.072 36.628 36.24C37.516 36.144 38.692 36.024 39.532 36.024H43.372V39H31.468Z" fill="white"/>
<path d="M125.765 142.989L125.609 142.972C125.623 142.985 125.494 143.464 125.063 144.042C124.429 144.923 123.217 146.013 121.666 146.809C120.112 147.616 118.234 148.154 116.206 148.153C113.84 148.145 111.252 147.453 108.489 145.463C105.842 143.54 104.47 141.999 103.555 140.449C102.87 139.277 102.407 138.023 101.966 136.406C101.303 133.992 100.734 130.807 99.4984 126.645C98.2601 122.479 96.344 117.354 92.9673 110.893C90.2737 105.761 87.9613 98.1055 87.9765 90.8587C87.9765 87.8192 88.3714 84.8555 89.252 82.1472C90.1351 79.4348 91.489 76.9763 93.4584 74.8463C98.1161 69.838 103.487 67.8624 108.594 67.848C112.291 67.8451 115.837 68.9229 118.713 70.7304C121.596 72.5362 123.777 75.0476 124.891 77.8413L130.075 75.5915C128.421 71.4655 125.373 68.082 121.612 65.7207C117.845 63.3607 113.331 62.0029 108.594 62.0001C102.062 61.9857 95.0793 64.6526 89.4151 70.7886C86.8216 73.5838 85.0414 76.8475 83.9304 80.274C82.8168 83.7031 82.3602 87.2965 82.3589 90.8585C82.3753 99.3629 84.9221 107.699 88.0326 113.685C90.8839 119.149 92.5846 123.482 93.7284 127.065C94.5855 129.755 95.1315 132.025 95.61 134.088C96.3329 137.163 96.8869 139.872 98.2708 142.601C98.9606 143.954 99.8563 145.267 101.007 146.531C102.159 147.796 103.558 149.015 105.28 150.263C108.922 152.908 112.736 154.009 116.206 154C120.317 153.995 123.9 152.53 126.536 150.564C127.858 149.573 128.955 148.455 129.781 147.227C130.596 145.995 131.207 144.642 131.226 142.989H125.765Z" fill="white"/>
<path d="M113.983 108.186C112.016 108.567 110.224 109.733 108.989 111.482C107.745 113.23 107.058 115.521 107.061 118.131C107.061 119.528 107.254 121.023 107.659 122.601C108.357 125.32 109.556 127.54 111.152 129.125C112.739 130.708 114.768 131.632 116.873 131.626C119.064 131.632 121.231 130.633 122.984 128.845C124.144 127.669 124.857 126.17 125.28 124.571C125.705 122.966 125.856 121.227 125.859 119.38C125.856 116.297 125.423 112.894 124.857 109.372C124.29 105.853 123.583 102.22 123.005 98.7561C122.369 95.0085 121.367 91.0055 119.341 87.7134C118.326 86.073 117.029 84.6025 115.369 83.5446C113.715 82.4854 111.71 81.8786 109.48 81.8843C109.31 81.8843 109.14 81.887 108.97 81.8942C106.25 81.984 103.936 83.0392 102.37 84.7581C100.796 86.4698 99.9837 88.6826 99.6792 90.9611C99.5187 92.1617 100.322 93.2695 101.476 93.4352C102.628 93.6023 103.692 92.7657 103.851 91.5664V91.565C104.068 89.9404 104.614 88.6526 105.409 87.796C106.212 86.9465 107.28 86.3656 109.129 86.277L109.48 86.27C111.008 86.2757 112.161 86.6496 113.169 87.2865C114.67 88.2345 115.892 89.909 116.837 92.1003C117.782 94.279 118.422 96.9116 118.854 99.507C119.397 102.753 120.023 106.051 120.548 109.212C119.123 108.414 117.528 107.994 115.906 107.996C115.265 107.996 114.622 108.059 113.983 108.186ZM121.592 118.262C121.596 118.296 121.607 118.328 121.613 118.362C121.624 118.7 121.645 119.057 121.645 119.38C121.648 120.964 121.504 122.341 121.22 123.406C120.935 124.479 120.531 125.21 120.046 125.701C118.919 126.831 117.846 127.236 116.873 127.24C115.936 127.236 114.991 126.863 114.057 125.948C113.133 125.035 112.263 123.556 111.73 121.47C111.41 120.222 111.274 119.106 111.274 118.13C111.277 116.303 111.74 114.985 112.375 114.089C113.019 113.195 113.831 112.684 114.767 112.494C115.15 112.418 115.531 112.381 115.906 112.381C117.303 112.384 118.598 112.887 119.606 113.836C120.61 114.791 121.374 116.202 121.592 118.262Z" fill="white"/>
<path d="M71.9643 90.1804C71.3799 89.1337 70.0908 88.7785 69.0855 89.3894C68.0787 89.9989 67.74 91.3395 68.3242 92.3875C68.7879 93.2169 69.2239 94.0579 69.6133 94.9159C73.9637 104.478 73.4248 115.154 69.0551 123.894C68.5189 124.97 68.9194 126.293 69.9506 126.852C70.9848 127.41 72.2548 126.995 72.7925 125.92C77.7436 116.023 78.3566 103.89 73.4205 93.0371C72.9682 92.0419 72.4744 91.0925 71.9643 90.1804Z" fill="white"/>
<path d="M62.8973 94.9473C62.3116 93.9008 61.0223 93.5454 60.0158 94.1534C59.0104 94.7646 58.6704 96.1067 59.2531 97.153C59.5837 97.7425 59.8896 98.3294 60.1597 98.9247C63.21 105.632 62.83 113.108 59.7675 119.239C59.23 120.312 59.6319 121.637 60.6631 122.197C61.6945 122.756 62.9672 122.338 63.505 121.265C67.1504 113.981 67.603 105.044 63.9686 97.0488C63.6324 96.3106 63.269 95.614 62.8973 94.9473Z" fill="white"/>
<path d="M54.3954 100.795C54.1675 100.295 53.9262 99.8538 53.704 99.4526C53.1199 98.4046 51.8306 98.0478 50.8238 98.6546C49.8171 99.2627 49.4743 100.606 50.0586 101.653V101.654C50.263 102.021 50.4439 102.358 50.5865 102.671C52.3379 106.524 52.1131 110.791 50.3548 114.313C49.8157 115.388 50.2176 116.71 51.249 117.27C52.2804 117.831 53.5518 117.414 54.0879 116.34L54.0907 116.339C56.137 112.256 56.6251 107.353 55.1496 102.746C54.9384 102.09 54.6861 101.437 54.3954 100.795Z" fill="white"/>
<path d="M54.74 175.408C54.676 175.888 54.628 176.608 54.628 177.072C54.628 178.048 54.628 183.936 54.628 185.136C54.628 185.84 54.948 186.016 55.668 186.144C56.148 186.224 56.804 186.256 57.524 186.256C59.188 186.256 61.78 186.048 63.092 185.696V188.032C61.572 188.256 59.156 188.352 57.396 188.352C56.356 188.352 55.38 188.288 54.692 188.176C53.316 187.92 52.5 187.168 52.5 185.776C52.5 183.936 52.5 178.064 52.5 177.072C52.5 176.592 52.452 175.792 52.388 175.408H54.74ZM53.7 180.32C55.748 179.872 58.564 178.992 60.228 178.288C60.804 178.064 61.332 177.808 61.972 177.424L62.836 179.456C62.212 179.712 61.492 180.016 60.964 180.208C59.076 180.944 55.876 181.904 53.7 182.416V180.32ZM81.124 177.184C80.964 177.392 80.66 177.776 80.516 178C79.764 179.248 78.244 181.28 76.66 182.4L74.996 181.072C76.292 180.288 77.54 178.88 77.956 178.096C76.98 178.096 70.612 178.096 69.604 178.096C68.948 178.096 68.404 178.128 67.652 178.208V175.968C68.276 176.064 68.948 176.144 69.604 176.144C70.612 176.144 77.396 176.144 78.228 176.144C78.676 176.144 79.556 176.08 79.86 176L81.124 177.184ZM74.612 179.328C74.612 183.296 74.516 186.56 70.164 188.912L68.292 187.392C68.82 187.216 69.396 186.944 69.988 186.496C72.004 185.088 72.388 183.408 72.388 180.784C72.388 180.272 72.372 179.856 72.292 179.328H74.612ZM95.332 175.584C95.3 176.032 95.284 176.544 95.284 177.2C95.284 178.016 95.284 179.568 95.284 180.352C95.284 183.808 94.612 185.28 93.412 186.592C92.356 187.76 90.708 188.528 89.54 188.912L87.86 187.136C89.46 186.768 90.74 186.16 91.716 185.12C92.804 183.92 93.028 182.72 93.028 180.224C93.028 179.424 93.028 177.888 93.028 177.2C93.028 176.544 92.98 176.032 92.916 175.584H95.332ZM87.924 175.728C87.892 176.096 87.86 176.448 87.86 176.944C87.86 177.648 87.86 181.456 87.86 182.352C87.86 182.752 87.892 183.376 87.924 183.744H85.588C85.62 183.456 85.668 182.832 85.668 182.336C85.668 181.424 85.668 177.648 85.668 176.944C85.668 176.656 85.652 176.096 85.604 175.728H87.924ZM102.996 175.84C104.1 176.592 106.18 178.256 107.124 179.232L105.492 180.896C104.66 180 102.644 178.256 101.476 177.456L102.996 175.84ZM100.98 186.496C103.492 186.144 105.556 185.328 107.108 184.416C109.844 182.784 111.924 180.352 112.948 178.192L114.18 180.432C112.98 182.608 110.852 184.816 108.276 186.368C106.644 187.344 104.58 188.224 102.34 188.608L100.98 186.496ZM128.244 174.896C128.644 175.488 129.204 176.496 129.508 177.088L128.228 177.648C127.892 176.992 127.396 176.032 126.964 175.424L128.244 174.896ZM130.132 174.176C130.548 174.784 131.14 175.792 131.428 176.352L130.148 176.896C129.812 176.24 129.3 175.296 128.868 174.704L130.132 174.176ZM129.668 178.416C129.492 178.736 129.268 179.168 129.14 179.568C128.708 180.992 127.796 183.136 126.356 184.912C124.836 186.768 122.9 188.24 119.892 189.424L118.004 187.744C121.284 186.752 123.06 185.36 124.452 183.776C125.54 182.528 126.468 180.608 126.724 179.424H121.332L122.068 177.6C122.788 177.6 126.132 177.6 126.644 177.6C127.14 177.6 127.668 177.536 128.036 177.408L129.668 178.416ZM124.452 175.888C124.084 176.448 123.668 177.184 123.476 177.52C122.404 179.456 120.484 181.712 118.196 183.28L116.388 181.952C119.204 180.24 120.596 178.176 121.396 176.8C121.636 176.416 121.972 175.664 122.116 175.12L124.452 175.888Z" fill="white"/>
</svg>
