<svg width="181" height="193" viewBox="0 0 181 193" fill="none" xmlns="http://www.w3.org/2000/svg">
<path d="M12.802 15.182C11.502 15.182 10.228 14.688 9.29196 13.791L10.397 12.465C11.073 13.102 11.996 13.518 12.841 13.518C13.842 13.518 14.362 13.089 14.362 12.426C14.362 11.711 13.777 11.477 12.919 11.113L11.632 10.567C10.67 10.177 9.68196 9.384 9.68196 7.993C9.68196 6.42 11.073 5.211 13.01 5.211C14.128 5.211 15.246 5.653 16.026 6.446L15.064 7.655C14.44 7.148 13.803 6.862 13.01 6.862C12.165 6.862 11.632 7.239 11.632 7.863C11.632 8.552 12.321 8.812 13.14 9.137L14.401 9.657C15.558 10.138 16.325 10.892 16.325 12.27C16.325 13.843 15.012 15.182 12.802 15.182ZM22.5741 15V6.979H19.8571V5.38H27.2151V6.979H24.4981V15H22.5741ZM31.7781 15V5.38H37.6801V6.979H33.7021V9.202H37.0691V10.827H33.7021V13.388H37.8231V15H31.7781ZM42.7661 15V5.38H45.9251C48.0441 5.38 49.6821 6.121 49.6821 8.409C49.6821 10.606 48.0441 11.581 45.9771 11.581H44.6901V15H42.7661ZM44.6901 10.06H45.8471C47.1731 10.06 47.8101 9.501 47.8101 8.409C47.8101 7.278 47.1081 6.914 45.7821 6.914H44.6901V10.06Z" fill="white"/>
<path d="M21.4638 39.336C17.8398 39.336 15.4398 36.192 15.4398 30.048C15.4398 23.928 17.8398 20.928 21.4638 20.928C25.0638 20.928 27.4638 23.928 27.4638 30.048C27.4638 36.192 25.0638 39.336 21.4638 39.336ZM21.4638 36.576C22.9998 36.576 24.1278 35.04 24.1278 30.048C24.1278 25.08 22.9998 23.64 21.4638 23.64C19.9278 23.64 18.7758 25.08 18.7758 30.048C18.7758 35.04 19.9278 36.576 21.4638 36.576ZM38.524 39V28.08C38.524 27.048 38.62 25.44 38.668 24.384H38.572C38.116 25.344 37.636 26.328 37.132 27.288L34.396 31.704H43.924V34.416H30.964V31.992L37.564 21.24H41.812V39H38.524Z" fill="white"/>
<path d="M37.7632 95.9165V150.514H81.2235V130.66H99.7768V150.514H143.237V95.9165H37.7632ZM59.4323 139.937H51.2436V130.93H59.4323V139.937ZM59.4323 116.877H51.2436V107.871H59.4323V116.877ZM94.5943 116.877H86.4024V107.871H94.5943V116.877ZM129.757 139.937H121.562V130.93H129.757V139.937ZM129.757 116.877H121.562V107.871H129.757V116.877Z" fill="white"/>
<path d="M107.991 65.4858H92.0901V90.9272H107.991V65.4858Z" fill="white"/>
<path d="M69.829 65.4858H53.928V90.9272H69.829V65.4858Z" fill="white"/>
<path d="M88.9099 65.4858H73.0058V90.9272H88.9099V65.4858Z" fill="white"/>
<path d="M50.7447 65.4858H37.9177V90.9272H50.7447V65.4858Z" fill="white"/>
<path d="M143.079 65.4858H130.252V90.9272H143.079V65.4858Z" fill="white"/>
<path d="M127.072 65.4858H111.171V90.9272H127.072V65.4858Z" fill="white"/>
<path d="M39.732 183.904H42.612V185.152H39.732V183.904ZM38.74 175.888H43.652V177.296H38.74V175.888ZM38.42 179.44H48.1V180.928H38.42V179.44ZM40.148 181.632H43.444V187.424H40.148V186.112H41.956V182.96H40.148V181.632ZM39.012 181.632H40.484V188.352H39.012V181.632ZM40.372 174.464H42.02V176.832H40.372V174.464ZM46.42 181.52L47.956 181.856C47.012 185.2 45.252 187.824 42.836 189.472C42.628 189.152 42.084 188.512 41.748 188.224C44.068 186.848 45.636 184.48 46.42 181.52ZM39.06 177.52L40.292 177.232C40.532 177.856 40.708 178.704 40.724 179.264L39.428 179.584C39.428 179.04 39.268 178.176 39.06 177.52ZM45.348 175.744L46.612 175.088C47.268 175.872 47.892 176.928 48.18 177.648L46.852 178.4C46.596 177.664 45.956 176.544 45.348 175.744ZM41.908 177.232L43.364 177.504C43.108 178.24 42.868 178.992 42.676 179.52L41.492 179.264C41.652 178.672 41.844 177.824 41.908 177.232ZM33.268 175.024H38.804V176.704H33.268V175.024ZM34.66 178.448H37.46V180H34.66V178.448ZM34.66 181.712H37.46V183.264H34.66V181.712ZM33.908 175.936H35.476V185.984H33.908V175.936ZM36.516 175.92H38.116V189.44H36.516V175.92ZM32.964 185.616C34.1 185.456 35.748 185.152 37.396 184.864L37.524 186.48C36.052 186.8 34.532 187.12 33.284 187.376L32.964 185.616ZM43.892 174.416H45.588C45.524 181.184 45.956 187.184 46.676 187.216C46.868 187.216 46.996 186.464 47.06 185.184C47.332 185.568 48.02 186.08 48.292 186.256C47.892 188.864 47.124 189.44 46.58 189.424C44.34 189.392 43.972 183.312 43.892 174.416ZM54.612 180.864H64.74V182.48H54.612V180.864ZM56.356 183.248H62.932V184.752H56.356V183.248ZM56.964 181.456L58.612 181.872C57.796 183.728 56.356 185.328 54.836 186.32C54.564 186 53.924 185.424 53.556 185.168C55.028 184.336 56.308 183.008 56.964 181.456ZM62.628 183.248H64.42C64.42 183.248 64.404 183.68 64.372 183.904C64.148 187.04 63.892 188.336 63.46 188.816C63.156 189.168 62.804 189.296 62.388 189.344C62.02 189.392 61.412 189.408 60.756 189.392C60.74 188.928 60.58 188.272 60.34 187.872C60.836 187.92 61.268 187.936 61.476 187.936C61.7 187.936 61.828 187.904 61.956 187.744C62.212 187.456 62.452 186.352 62.628 183.504V183.248ZM57.716 178.16V178.928H61.86V178.16H57.716ZM57.716 176.144V176.912H61.86V176.144H57.716ZM56.02 174.816H63.636V180.256H56.02V174.816ZM49.924 177.776H54.82V179.6H49.924V177.776ZM51.54 174.608H53.332V184.56H51.54V174.608ZM49.572 184.896C50.804 184.432 52.756 183.616 54.612 182.816L55.012 184.464C53.412 185.296 51.684 186.16 50.276 186.832L49.572 184.896ZM60.804 183.552L62.1 184.256C61.492 186.176 60.148 188.4 58.724 189.504C58.388 189.136 57.828 188.704 57.348 188.432C58.9 187.472 60.212 185.408 60.804 183.552ZM58.372 183.568L59.636 184.32C58.836 185.968 57.156 187.824 55.636 188.8C55.332 188.4 54.82 187.936 54.372 187.664C55.956 186.864 57.604 185.136 58.372 183.568ZM70.5 179.136V180.128H77.22V179.136H70.5ZM70.5 181.696V182.688H77.22V181.696H70.5ZM70.5 176.592V177.584H77.22V176.592H70.5ZM68.644 174.912H79.172V184.368H68.644V174.912ZM74.596 183.072H76.548V186.912C76.548 187.424 76.66 187.504 77.236 187.504C77.508 187.504 78.58 187.504 78.916 187.504C79.476 187.504 79.572 187.232 79.652 185.344C80.036 185.664 80.884 185.984 81.412 186.112C81.204 188.656 80.692 189.312 79.092 189.312C78.692 189.312 77.348 189.312 76.98 189.312C75.06 189.312 74.596 188.736 74.596 186.912V183.072ZM70.676 183.728H72.74C72.468 186.64 71.716 188.528 67.396 189.504C67.236 188.992 66.724 188.208 66.324 187.792C70.036 187.104 70.468 185.872 70.676 183.728ZM86.228 179.888H93.604V181.536H86.228V179.888ZM83.364 183.472H97.684V185.248H83.364V183.472ZM89.524 182.448H91.492V187.392C91.492 188.384 91.252 188.88 90.484 189.168C89.732 189.424 88.708 189.456 87.348 189.456C87.22 188.912 86.868 188.096 86.564 187.6C87.588 187.632 88.788 187.632 89.108 187.632C89.428 187.632 89.524 187.552 89.524 187.328V182.448ZM92.98 179.888H93.46L93.86 179.792L95.076 180.72C93.972 181.904 92.388 183.152 90.82 183.904C90.596 183.584 90.084 183.056 89.796 182.8C91.028 182.16 92.388 181.024 92.98 180.24V179.888ZM83.556 176.96H97.508V180.88H95.604V178.656H85.364V180.88H83.556V176.96ZM94.644 174.528L96.724 175.136C95.988 176.192 95.156 177.28 94.5 177.984L92.932 177.408C93.54 176.624 94.26 175.424 94.644 174.528ZM84.628 175.312L86.26 174.576C86.836 175.2 87.476 176.064 87.732 176.688L85.988 177.488C85.764 176.896 85.172 175.984 84.628 175.312ZM88.66 174.96L90.356 174.32C90.868 175.024 91.412 176 91.62 176.64L89.796 177.344C89.636 176.704 89.14 175.696 88.66 174.96ZM108.596 177.04C108.372 178.672 108.052 180.544 107.492 182.432C106.532 185.664 105.156 187.648 103.412 187.648C101.62 187.648 100.148 185.68 100.148 182.976C100.148 179.296 103.364 176.128 107.508 176.128C111.46 176.128 113.972 178.88 113.972 182.384C113.972 185.744 111.908 188.128 107.876 188.752L106.66 186.864C107.284 186.784 107.732 186.704 108.164 186.608C110.196 186.112 111.796 184.656 111.796 182.304C111.796 179.792 110.228 178 107.46 178C104.068 178 102.212 180.768 102.212 182.784C102.212 184.4 102.852 185.184 103.46 185.184C104.148 185.184 104.756 184.16 105.428 182C105.892 180.496 106.244 178.656 106.404 176.976L108.596 177.04ZM122.772 174.432H124.74V176.992H122.772V174.432ZM116.916 175.824H130.628V179.264H128.644V177.504H118.82V179.264H116.916V175.824ZM118.34 178.768H129.332V180.32H118.34V178.768ZM116.788 183.84H130.852V185.504H116.788V183.84ZM118.596 181.28H129.012V182.832H118.596V181.28ZM124.724 184.176C125.668 186.288 127.748 187.456 131.076 187.808C130.676 188.208 130.18 188.976 129.94 189.488C126.276 188.896 124.228 187.376 122.996 184.528L124.724 184.176ZM122.724 177.856H124.66V182.304C124.66 185.12 123.492 187.872 117.668 189.44C117.46 189.024 116.9 188.288 116.484 187.888C122.02 186.624 122.724 184.432 122.724 182.288V177.856ZM141.108 176.448H147.716V178.192H141.108V176.448ZM143.076 178.576H144.676V186.512H143.076V178.576ZM141.268 174.4L143.156 174.784C142.596 177.056 141.62 179.2 140.372 180.56C140.068 180.208 139.348 179.504 138.932 179.2C140.052 178.08 140.852 176.288 141.268 174.4ZM139.172 182.688L146.164 179.456L146.82 181.024L139.844 184.272L139.172 182.688ZM140.5 179.744H142.212V187.04C142.212 187.712 142.324 187.808 143.124 187.808C143.476 187.808 145.14 187.808 145.588 187.808C146.228 187.808 146.356 187.536 146.436 186.112C146.82 186.384 147.524 186.656 148.004 186.768C147.796 188.8 147.284 189.408 145.732 189.408C145.284 189.408 143.348 189.408 142.932 189.408C141.012 189.408 140.5 188.88 140.5 187.024V179.744ZM145.668 179.792H145.54L145.876 179.552L146.18 179.36L147.364 179.776L147.284 180.032C147.284 182.32 147.284 183.936 147.236 184.432C147.204 185.024 146.98 185.36 146.548 185.536C146.164 185.712 145.636 185.728 145.22 185.728C145.172 185.296 145.044 184.672 144.868 184.32C145.06 184.336 145.284 184.336 145.412 184.336C145.54 184.336 145.62 184.304 145.636 184.112C145.668 183.904 145.668 182.416 145.668 179.792ZM133.012 176.864H139.828V178.64H133.012V176.864ZM135.508 180.352H138.1V182.096H135.508V180.352ZM135.492 174.432H137.332V177.44H135.492V174.432ZM134.58 177.936H136.388C136.308 182.416 136.1 186.736 134.164 189.424C133.844 188.976 133.268 188.384 132.788 188.096C134.468 185.76 134.532 181.904 134.58 177.936ZM137.492 180.352H139.22C139.22 180.352 139.22 180.88 139.22 181.088C139.14 186.224 139.06 188.112 138.66 188.688C138.356 189.136 138.052 189.296 137.604 189.376C137.22 189.456 136.612 189.456 135.956 189.44C135.924 188.928 135.748 188.208 135.492 187.744C135.988 187.792 136.42 187.792 136.66 187.792C136.852 187.792 136.996 187.76 137.124 187.552C137.348 187.2 137.428 185.536 137.492 180.704V180.352Z" fill="white"/>
</svg>
