<svg width="181" height="193" viewBox="0 0 181 193" fill="none" xmlns="http://www.w3.org/2000/svg">
<path d="M12.802 15.182C11.502 15.182 10.228 14.688 9.29196 13.791L10.397 12.465C11.073 13.102 11.996 13.518 12.841 13.518C13.842 13.518 14.362 13.089 14.362 12.426C14.362 11.711 13.777 11.477 12.919 11.113L11.632 10.567C10.67 10.177 9.68196 9.384 9.68196 7.993C9.68196 6.42 11.073 5.211 13.01 5.211C14.128 5.211 15.246 5.653 16.026 6.446L15.064 7.655C14.44 7.148 13.803 6.862 13.01 6.862C12.165 6.862 11.632 7.239 11.632 7.863C11.632 8.552 12.321 8.812 13.14 9.137L14.401 9.657C15.558 10.138 16.325 10.892 16.325 12.27C16.325 13.843 15.012 15.182 12.802 15.182ZM22.5741 15V6.979H19.8571V5.38H27.2151V6.979H24.4981V15H22.5741ZM31.7781 15V5.38H37.6801V6.979H33.7021V9.202H37.0691V10.827H33.7021V13.388H37.8231V15H31.7781ZM42.7661 15V5.38H45.9251C48.0441 5.38 49.6821 6.121 49.6821 8.409C49.6821 10.606 48.0441 11.581 45.9771 11.581H44.6901V15H42.7661ZM44.6901 10.06H45.8471C47.1731 10.06 47.8101 9.501 47.8101 8.409C47.8101 7.278 47.1081 6.914 45.7821 6.914H44.6901V10.06Z" fill="white"/>
<path d="M21.4638 39.336C17.8398 39.336 15.4398 36.192 15.4398 30.048C15.4398 23.928 17.8398 20.928 21.4638 20.928C25.0638 20.928 27.4638 23.928 27.4638 30.048C27.4638 36.192 25.0638 39.336 21.4638 39.336ZM21.4638 36.576C22.9998 36.576 24.1278 35.04 24.1278 30.048C24.1278 25.08 22.9998 23.64 21.4638 23.64C19.9278 23.64 18.7758 25.08 18.7758 30.048C18.7758 35.04 19.9278 36.576 21.4638 36.576ZM32.404 39V36.144H36.244V24.912H33.004V22.728C34.804 22.392 36.004 21.936 37.156 21.24H39.772V36.144H43.108V39H32.404Z" fill="white"/>
<path d="M156.674 70.168C156.121 67.3745 154.875 64.7342 153.057 62.5145C152.687 62.0485 152.301 61.6339 151.879 61.2133C148.644 57.9611 144.143 56.0957 139.532 56.0957H41.4677C36.8046 56.0957 32.419 57.9141 29.1187 61.2152C28.701 61.6318 28.3137 62.0506 27.9303 62.5314C26.1197 64.7417 24.8788 67.3784 24.3393 70.1758C24.1138 71.2743 24 72.4126 24 73.5642V142.438C24 144.834 24.4868 147.167 25.4518 149.385C26.287 151.355 27.5541 153.222 29.1176 154.785C29.5114 155.177 29.9027 155.539 30.3204 155.891C33.4464 158.48 37.4047 159.905 41.4677 159.905H139.532C143.621 159.905 147.575 158.475 150.693 155.863C151.11 155.525 151.496 155.171 151.882 154.785C153.394 153.275 154.595 151.541 155.458 149.628L155.572 149.355C156.519 147.179 157 144.853 157 142.438V73.5642C157 72.4277 156.89 71.2819 156.674 70.168ZM33.0458 67.2438C33.2929 66.8822 33.6082 66.511 34.0106 66.1055C36.0079 64.1092 38.6568 63.0107 41.4674 63.0107H139.532C142.367 63.0107 145.016 64.111 146.992 66.1094C147.333 66.4541 147.659 66.8368 147.943 67.2191L148.693 68.227L96.3499 113.846C94.7363 115.261 92.6587 116.039 90.4992 116.039C88.3611 116.039 86.2853 115.263 84.6524 113.848L32.3619 68.24L33.0458 67.2438ZM30.95 143.046C30.9217 142.858 30.9152 142.65 30.9152 142.438V74.9903L71.5348 110.425L31.3251 145.483L30.95 143.046ZM144.765 151.599C143.193 152.506 141.382 152.987 139.532 152.987H41.4677C39.6163 152.987 37.8065 152.506 36.2355 151.599L34.5917 150.646L76.1376 114.44L80.6907 118.401C83.4219 120.772 86.9048 122.079 90.4997 122.079C94.1079 122.079 97.5965 120.772 100.326 118.401L104.877 114.439L146.409 150.648L144.765 151.599ZM150.083 142.438C150.083 142.646 150.079 142.852 150.053 143.036L149.693 145.497L109.466 110.444L150.083 75.0074V142.438Z" fill="white"/>
<path d="M64.516 175.008C64.452 175.312 64.388 176 64.372 176.4C64.292 177.664 64.244 179.392 64.244 180.88C64.244 182.624 64.34 185.392 64.34 186.32C64.34 188.288 63.636 188.832 62.58 188.832C61.028 188.832 58.82 187.488 58.82 185.792C58.82 184.24 60.82 182.608 63.044 181.824C64.468 181.312 66.084 181.056 67.3 181.056C69.764 181.056 71.716 182.336 71.716 184.544C71.716 186.448 70.724 187.872 68.18 188.496C67.444 188.656 66.724 188.704 66.068 188.768L65.348 186.688C66.052 186.688 66.756 186.688 67.3 186.576C68.596 186.352 69.636 185.696 69.636 184.544C69.636 183.44 68.676 182.816 67.284 182.816C65.924 182.816 64.516 183.104 63.268 183.6C61.828 184.144 60.804 185.008 60.804 185.696C60.804 186.208 61.556 186.64 61.972 186.64C62.26 186.64 62.468 186.512 62.468 185.952C62.468 185.12 62.388 182.896 62.388 180.96C62.388 179.136 62.404 177.152 62.404 176.416C62.404 176.096 62.356 175.296 62.308 175.008H64.516ZM69.076 176.752C70.292 177.344 72.148 178.384 73.012 178.992L72.036 180.624C71.268 179.984 69.188 178.784 68.196 178.304L69.076 176.752ZM59.252 177.632C60.196 177.744 60.884 177.744 61.46 177.744C63.124 177.744 65.62 177.44 67.268 176.96L67.316 178.944C65.508 179.36 62.932 179.648 61.524 179.648C60.468 179.648 59.844 179.632 59.3 179.568L59.252 177.632ZM79.828 182.128H85.236V187.168H79.828V185.6H83.444V183.696H79.828V182.128ZM79.012 182.128H80.788V188.08H79.012V182.128ZM76.388 177.344H80.404V178.656H76.388V177.344ZM83.812 177.344H87.86V178.656H83.812V177.344ZM87.06 175.024H88.996V187.136C88.996 188.224 88.772 188.768 88.116 189.088C87.444 189.408 86.436 189.44 84.964 189.44C84.9 188.896 84.58 187.984 84.308 187.488C85.236 187.536 86.34 187.52 86.644 187.52C86.948 187.52 87.06 187.408 87.06 187.12V175.024ZM76.548 175.024H81.604V181.024H76.548V179.552H79.812V176.496H76.548V175.024ZM88.1 175.024V176.48H84.516V179.584H88.1V181.04H82.692V175.024H88.1ZM75.444 175.024H77.348V189.44H75.444V175.024ZM94.82 179.584H102.852V181.264H94.82V179.584ZM94.628 187.184H102.884V188.864H94.628V187.184ZM93.78 182.864H103.972V189.472H102.004V184.56H95.668V189.472H93.78V182.864ZM98.756 176.32C97.444 178.192 94.98 180.304 92.34 181.712C92.084 181.264 91.556 180.56 91.14 180.16C93.908 178.816 96.484 176.4 97.668 174.432H99.668C101.412 176.896 103.988 178.928 106.564 179.968C106.084 180.448 105.636 181.104 105.3 181.696C102.836 180.4 100.148 178.224 98.756 176.32ZM119.7 175.456C119.652 175.712 119.62 176.416 119.604 176.832C119.572 177.92 119.572 178.832 119.54 179.648C119.508 181.072 119.46 182.8 119.3 183.616C119.124 184.464 118.708 184.672 117.892 184.672C117.332 184.672 116.036 184.528 115.492 184.432L115.524 182.672C116.02 182.784 116.692 182.864 117.012 182.864C117.316 182.864 117.46 182.816 117.508 182.496C117.588 181.888 117.62 180.736 117.652 179.632C117.652 178.8 117.652 177.872 117.652 176.928C117.652 176.512 117.588 175.76 117.54 175.456H119.7ZM113.396 175.936C113.332 176.464 113.3 176.912 113.3 177.6C113.3 179.056 113.236 183.28 113.268 184.592C113.316 186.176 113.444 186.528 115.844 186.528C117.412 186.528 119.444 186.336 120.628 186.112L120.548 188.304C119.476 188.416 117.524 188.56 115.988 188.56C111.86 188.56 111.348 187.68 111.284 184.912C111.252 183.536 111.268 178.672 111.268 177.712C111.268 177.04 111.22 176.496 111.14 175.936H113.396ZM108.052 179.552C108.5 179.552 109.236 179.52 110.052 179.424C111.668 179.28 117.684 178.688 120.772 178.496C121.204 178.464 121.828 178.416 122.308 178.384V180.336C122.02 180.32 121.172 180.352 120.756 180.352C118.26 180.432 112.036 181.104 110.18 181.312C109.684 181.376 108.692 181.52 108.26 181.584L108.052 179.552Z" fill="white"/>
</svg>
