<svg width="181" height="193" viewBox="0 0 181 193" fill="none" xmlns="http://www.w3.org/2000/svg">
<path d="M12.802 15.182C11.502 15.182 10.228 14.688 9.29196 13.791L10.397 12.465C11.073 13.102 11.996 13.518 12.841 13.518C13.842 13.518 14.362 13.089 14.362 12.426C14.362 11.711 13.777 11.477 12.919 11.113L11.632 10.567C10.67 10.177 9.68196 9.384 9.68196 7.993C9.68196 6.42 11.073 5.211 13.01 5.211C14.128 5.211 15.246 5.653 16.026 6.446L15.064 7.655C14.44 7.148 13.803 6.862 13.01 6.862C12.165 6.862 11.632 7.239 11.632 7.863C11.632 8.552 12.321 8.812 13.14 9.137L14.401 9.657C15.558 10.138 16.325 10.892 16.325 12.27C16.325 13.843 15.012 15.182 12.802 15.182ZM22.5741 15V6.979H19.8571V5.38H27.2151V6.979H24.4981V15H22.5741ZM31.7781 15V5.38H37.6801V6.979H33.7021V9.202H37.0691V10.827H33.7021V13.388H37.8231V15H31.7781ZM42.7661 15V5.38H45.9251C48.0441 5.38 49.6821 6.121 49.6821 8.409C49.6821 10.606 48.0441 11.581 45.9771 11.581H44.6901V15H42.7661ZM44.6901 10.06H45.8471C47.1731 10.06 47.8101 9.501 47.8101 8.409C47.8101 7.278 47.1081 6.914 45.7821 6.914H44.6901V10.06Z" fill="white"/>
<path d="M21.4638 39.336C17.8398 39.336 15.4398 36.192 15.4398 30.048C15.4398 23.928 17.8398 20.928 21.4638 20.928C25.0638 20.928 27.4638 23.928 27.4638 30.048C27.4638 36.192 25.0638 39.336 21.4638 39.336ZM21.4638 36.576C22.9998 36.576 24.1278 35.04 24.1278 30.048C24.1278 25.08 22.9998 23.64 21.4638 23.64C19.9278 23.64 18.7758 25.08 18.7758 30.048C18.7758 35.04 19.9278 36.576 21.4638 36.576ZM37.012 39.336C34.204 39.336 32.308 38.304 31.06 36.864L32.74 34.632C33.796 35.664 35.068 36.48 36.676 36.48C38.5 36.48 39.724 35.568 39.724 33.984C39.724 32.232 38.692 31.152 34.828 31.152V28.608C38.092 28.608 39.148 27.504 39.148 25.92C39.148 24.528 38.284 23.688 36.772 23.688C35.5 23.688 34.468 24.288 33.412 25.272L31.612 23.088C33.148 21.768 34.852 20.928 36.916 20.928C40.348 20.928 42.676 22.608 42.676 25.656C42.676 27.552 41.62 28.968 39.724 29.688V29.808C41.74 30.384 43.276 31.848 43.276 34.2C43.276 37.464 40.42 39.336 37.012 39.336Z" fill="white"/>
<path d="M150.409 87.9887L132.387 103.688L132.312 105.269C132.256 106.16 131.96 107.422 131.458 108.742C131.18 109.429 130.863 110.117 130.529 110.804L110.092 93.1724C109.293 92.4849 108.234 92.169 107.194 92.2995C107.007 92.3361 92.0151 94.2137 77.0772 100.512C75.5896 101.143 74.4757 101.33 73.7318 101.33C73.1204 101.33 72.7664 101.217 72.4871 101.088C72.0788 100.884 71.7996 100.624 71.5218 100.085C71.2425 99.5645 71.0574 98.8023 71.0574 97.9842C71.0574 96.834 71.4657 95.6617 71.9301 95.0866C72.5072 94.343 73.213 93.3215 74.1781 92.0022C75.6279 90.0517 77.5962 87.5243 79.9388 85.0533C82.2793 82.582 84.9918 80.2052 87.8347 78.5325C91.6794 76.2663 94.9688 75.7093 98.0712 75.6892C99.9854 75.6892 101.823 75.9325 103.627 76.192C105.41 76.4514 107.138 76.7871 109.014 76.7871C110.204 76.7871 111.467 76.6566 112.786 76.1178H112.804C114.849 75.2451 116.854 73.9621 118.88 72.5129C121.891 70.3211 124.862 67.7392 127.129 65.6762C127.575 65.2862 127.983 64.8959 128.355 64.5422L123.284 59.1371C122.168 60.1768 120.718 61.4776 119.158 62.7969C117.561 64.172 115.832 65.5655 114.197 66.7177C112.563 67.8879 111.002 68.817 109.943 69.2433C109.887 69.2814 109.591 69.3558 109.014 69.3558C108.123 69.3741 106.599 69.1326 104.723 68.853C102.847 68.5755 100.597 68.2579 98.0712 68.2579C95.8798 68.2399 93.4445 68.5192 90.8809 69.225C88.3352 68.5192 85.9023 68.2579 83.6905 68.2579C81.1631 68.2579 78.9348 68.5753 77.0572 68.853C75.1811 69.1326 73.6571 69.3738 72.7481 69.3558C72.1911 69.3558 71.8935 69.2814 71.8371 69.2433C70.7032 68.7969 69.0122 67.7574 67.2668 66.4945C64.6104 64.5803 61.7855 62.1273 59.6501 60.1768C59.073 59.6561 58.5522 59.1736 58.0878 58.7471L52.9986 64.1522C54.0944 65.1755 55.5242 66.4945 57.1225 67.8879C58.9062 69.4101 60.8948 71.045 62.9014 72.5129C64.9261 73.9624 66.9329 75.2454 68.9759 76.1178C70.2952 76.6566 71.5776 76.7871 72.7479 76.7871C74.6237 76.7871 76.3711 76.4715 78.1546 76.192C78.2836 76.1739 78.3958 76.1739 78.5067 76.1539C76.0355 78.273 73.8801 80.5774 72.0601 82.7128C70.5181 84.5145 69.2351 86.2055 68.1956 87.5989C67.1922 88.9741 66.4119 90.0882 66.0582 90.5346C64.3672 92.7281 63.6433 95.3662 63.625 97.9842C63.6433 100.437 64.2946 103.001 65.9838 105.157C66.8202 106.216 67.9361 107.163 69.2732 107.795C70.6105 108.426 72.1527 108.762 73.7313 108.762C75.7199 108.762 77.7826 108.277 79.9743 107.349C86.8491 104.451 93.9468 102.5 99.2775 101.31C101.954 100.717 104.184 100.307 105.744 100.047C106.041 99.9911 106.283 99.955 106.524 99.917L129.879 120.038V120.058H129.897C129.897 120.132 129.859 120.336 129.692 120.651C129.414 121.172 128.801 121.86 128.021 122.342C127.24 122.825 126.33 123.104 125.475 123.104C125.159 123.104 124.862 123.161 124.564 123.215C124.044 123.104 123.505 122.956 122.986 122.732C121.369 122.101 119.863 121.098 118.805 120.225C118.267 119.797 117.838 119.407 117.561 119.129L117.245 118.831L117.171 118.757V118.739C116.612 118.144 115.852 117.846 115.108 117.846C114.439 117.846 113.771 118.088 113.232 118.57C112.098 119.612 112.024 121.377 113.065 122.51C113.158 122.622 114.551 124.144 116.853 125.725C117.988 126.505 119.381 127.303 120.961 127.934C121.313 128.065 121.703 128.214 122.093 128.324C122.206 128.566 122.335 128.809 122.502 129.03H122.483L122.502 129.05C122.558 129.161 122.67 129.607 122.65 130.146C122.67 131.167 122.298 132.505 121.759 133.248C121.498 133.638 121.239 133.862 120.979 134.01C120.7 134.159 120.44 134.252 119.938 134.27H119.753C119.66 134.252 119.548 134.27 119.455 134.288C119.437 134.288 119.437 134.288 119.437 134.288C117.022 134.288 114.774 133.248 113.119 132.115C112.283 131.557 111.615 130.983 111.169 130.572C110.946 130.369 110.779 130.202 110.686 130.09L110.574 129.979L110.556 129.959V129.941C110.017 129.309 109.237 128.994 108.457 128.994C107.807 128.994 107.155 129.217 106.635 129.682C105.465 130.685 105.336 132.45 106.357 133.602C106.45 133.731 107.751 135.199 109.981 136.723C111.448 137.726 113.381 138.766 115.665 139.361C115.629 139.418 115.609 139.492 115.591 139.546C115.293 140.216 114.885 140.885 113.733 141.553C112.971 142 112.414 142.223 112.024 142.354C111.634 142.464 111.428 142.482 111.151 142.482C110.779 142.482 110.24 142.408 109.349 142.223C109.18 142.185 109.014 142.185 108.847 142.166C108.79 142.148 108.736 142.13 108.661 142.092C107.751 141.646 106.617 140.865 105.78 140.198C105.372 139.882 105.02 139.566 104.777 139.361L104.499 139.102L104.443 139.046H104.425C103.311 137.968 101.546 138.024 100.486 139.12C99.4261 140.234 99.4642 141.999 100.578 143.059C100.634 143.114 101.805 144.247 103.458 145.418C103.737 145.641 104.071 145.846 104.387 146.049C103.942 146.775 103.458 147.276 102.993 147.591C102.251 148.112 101.453 148.353 100.411 148.353C99.4824 148.353 98.3866 148.13 97.2905 147.666C96.9185 147.517 96.5648 147.294 96.2126 147.109C96.4158 146.31 96.5285 145.51 96.5285 144.694C96.5285 143.021 96.0821 141.312 95.1351 139.788C93.5365 137.224 90.8623 135.702 88.0551 135.461C88.0551 135.366 88.0752 135.256 88.0752 135.163C88.0752 133.323 87.5725 131.447 86.5513 129.774C84.6371 126.69 81.3111 124.963 77.9311 124.963H77.8748C77.726 124.963 77.5952 124.981 77.4665 124.981C77.2997 123.531 76.835 122.102 76.0167 120.8C74.4381 118.255 71.911 116.658 69.18 116.156C69.1602 114.354 68.6595 112.514 67.6561 110.879C65.7238 107.777 62.3799 106.068 58.9798 106.068C57.14 106.068 55.2639 106.569 53.5912 107.61L50.024 109.82C49.9316 109.635 49.8209 109.43 49.7465 109.245C49.1133 107.759 48.7233 106.271 48.687 105.27L48.6123 103.689L30.5901 87.9895L25.5 93.3956L41.4611 107.312C41.7386 108.984 42.2593 110.581 42.8728 112.067C43.2628 113.034 43.7091 113.945 44.1537 114.8C43.1884 116.396 42.6496 118.236 42.6496 120.076C42.6496 121.916 43.1503 123.792 44.1918 125.463C45.7704 127.99 48.2977 129.589 51.0285 130.09C51.0468 131.891 51.5493 133.731 52.5524 135.366C54.4849 138.469 57.8286 140.198 61.2289 140.198C61.3594 140.198 61.4884 140.178 61.6189 140.16C61.804 141.609 62.2684 143.039 63.0868 144.358C65.019 147.463 68.3629 149.172 71.763 149.172C72.0969 149.172 72.4325 149.134 72.7664 149.097C72.9335 150.396 73.3616 151.697 74.0855 152.868C75.8509 155.693 78.897 157.271 81.9817 157.253C83.6544 157.253 85.3637 156.806 86.8859 155.859L91.5309 152.98C92.4419 153.575 93.3887 154.094 94.4122 154.504C96.27 155.302 98.3132 155.785 100.412 155.785C102.716 155.803 105.17 155.172 107.269 153.686C108.624 152.739 109.776 151.438 110.723 149.895C110.872 149.895 111.003 149.914 111.152 149.914C112.117 149.914 113.158 149.785 114.216 149.449C115.257 149.134 116.297 148.651 117.413 148.019C120.069 146.514 121.668 144.304 122.448 142.427C122.615 141.999 122.746 141.609 122.856 141.237C123.487 141.034 124.119 140.791 124.678 140.457C126.721 139.287 128.058 137.485 128.895 135.682C129.713 133.862 130.083 131.966 130.083 130.146C130.083 129.959 130.065 129.792 130.047 129.607C131.402 129.068 132.61 128.288 133.632 127.395C134.691 126.466 135.582 125.389 136.234 124.164C136.883 122.956 137.329 121.544 137.329 120.02C137.329 119.017 137.125 117.977 136.68 116.992C136.549 116.676 136.344 116.397 136.141 116.099C136.939 114.688 137.738 113.109 138.389 111.4C138.89 110.099 139.298 108.742 139.541 107.33L155.5 93.3956L150.409 87.9887ZM54.5029 122.324L54.3359 122.435C53.8715 122.714 53.369 122.845 52.8683 122.845C51.9393 122.845 51.0285 122.398 50.5077 121.544C50.2119 121.079 50.0814 120.577 50.0814 120.076C50.0995 119.147 50.5458 118.254 51.4002 117.715L57.513 113.907C57.9954 113.629 58.4781 113.498 58.9808 113.498C59.9279 113.498 60.8206 113.963 61.3394 114.799L64.4982 112.847L61.3394 114.818C61.637 115.282 61.7677 115.765 61.7677 116.267C61.7494 116.917 61.5265 117.548 61.0984 118.051L55.8403 121.32C55.3573 121.618 54.931 121.952 54.5029 122.324ZM62.6965 132.337C62.2319 132.635 61.7294 132.766 61.2287 132.766C60.2996 132.766 59.3889 132.301 58.8681 131.447C58.5723 130.982 58.4418 130.497 58.4418 129.997C58.4598 129.347 58.683 128.714 59.1111 128.213L64.3675 124.944C64.8519 124.646 65.2785 124.292 65.6883 123.94L65.8734 123.828C66.3558 123.53 66.8387 123.402 67.3412 123.402C68.2883 123.42 69.181 123.866 69.6997 124.72C69.9973 125.185 70.1281 125.667 70.1281 126.17C70.1098 127.117 69.6637 128.008 68.809 128.547L62.6965 132.337ZM79.3434 137.521L73.2125 141.33C72.7479 141.609 72.2634 141.74 71.7627 141.74C70.8157 141.74 69.9229 141.275 69.4042 140.439C69.1066 139.956 68.9759 139.472 68.9759 138.971C68.9759 138.024 69.4405 137.131 70.2952 136.61L76.4077 132.802C76.8721 132.524 77.3728 132.394 77.8755 132.394C78.8043 132.394 79.6953 132.84 80.2343 133.695C80.5136 134.16 80.6444 134.66 80.6444 135.163C80.6444 136.091 80.198 136.982 79.3434 137.521ZM88.2247 146.272L82.9669 149.541C82.651 149.746 82.3354 149.82 81.9817 149.82C81.3683 149.82 80.7551 149.523 80.4032 148.948C80.2163 148.632 80.1239 148.316 80.1239 147.963C80.1239 147.331 80.4395 146.736 80.9965 146.402V146.384L86.2547 143.113C86.5904 142.927 86.9062 142.835 87.2398 142.835C87.8711 142.853 88.4662 143.151 88.8184 143.726C89.0233 144.042 89.0977 144.357 89.0977 144.693C89.0974 145.325 88.7998 145.92 88.2247 146.272Z" fill="white"/>
<path d="M20.948 177.168C20.82 177.344 20.532 177.824 20.388 178.16C19.732 179.68 18.548 181.856 17.172 183.456C15.38 185.52 12.964 187.504 10.484 188.672L8.82 186.944C11.412 185.984 13.876 184.032 15.38 182.368C16.436 181.168 17.412 179.584 17.78 178.448C17.108 178.448 13.028 178.448 12.34 178.448C11.684 178.448 10.804 178.528 10.452 178.56V176.272C10.884 176.336 11.876 176.384 12.34 176.384C13.188 176.384 17.284 176.384 17.988 176.384C18.692 176.384 19.316 176.304 19.652 176.192L20.948 177.168ZM17.38 182.128C19.028 183.472 21.3 185.856 22.34 187.136L20.516 188.72C19.332 187.072 17.588 185.168 15.876 183.616L17.38 182.128ZM31.108 180.512C33.076 181.648 36.036 183.696 37.524 184.88L35.988 186.704C34.596 185.392 31.556 183.152 29.684 181.968L31.108 180.512ZM38.644 177.792C38.452 178.096 38.244 178.544 38.1 178.944C37.62 180.416 36.644 182.464 35.204 184.24C33.7 186.112 31.652 187.904 28.596 189.056L26.74 187.456C30.084 186.416 31.988 184.736 33.364 183.136C34.436 181.872 35.428 180.032 35.732 178.784H30.324L31.06 176.976H35.62C36.116 176.976 36.644 176.896 37.012 176.784L38.644 177.792ZM33.348 175.328C32.964 175.888 32.548 176.624 32.356 176.96C31.284 178.896 29.236 181.344 26.932 182.928L25.22 181.6C28.02 179.872 29.492 177.68 30.308 176.288C30.548 175.904 30.884 175.168 31.028 174.608L33.348 175.328ZM48.964 178.512C49.268 179.184 50.052 181.28 50.276 182.016L48.372 182.672C48.164 181.904 47.46 179.968 47.076 179.136L48.964 178.512ZM54.868 179.664C54.692 180.192 54.596 180.528 54.5 180.848C54.084 182.464 53.396 184.128 52.308 185.52C50.82 187.456 48.836 188.784 46.964 189.504L45.284 187.792C47.028 187.312 49.268 186.096 50.58 184.432C51.668 183.088 52.452 180.96 52.628 178.944L54.868 179.664ZM45.252 179.344C45.652 180.16 46.436 182.112 46.74 183.008L44.788 183.728C44.532 182.88 43.716 180.736 43.332 180.048L45.252 179.344ZM71.764 177.36C71.604 177.664 71.492 178.128 71.412 178.464C71.044 180.032 70.34 182.512 68.996 184.304C67.556 186.208 65.428 187.808 62.564 188.72L60.82 186.8C64.004 186.064 65.796 184.672 67.092 183.056C68.164 181.712 68.756 179.904 68.98 178.528C68.004 178.528 62.724 178.528 61.524 178.528C60.788 178.528 60.036 178.576 59.62 178.592V176.336C60.1 176.4 60.996 176.464 61.524 176.464C62.724 176.464 68.036 176.464 68.932 176.464C69.236 176.464 69.748 176.448 70.18 176.352L71.764 177.36ZM83.636 177.04C83.412 178.672 83.092 180.544 82.532 182.432C81.572 185.664 80.196 187.648 78.452 187.648C76.66 187.648 75.188 185.68 75.188 182.976C75.188 179.296 78.404 176.128 82.548 176.128C86.5 176.128 89.012 178.88 89.012 182.384C89.012 185.744 86.948 188.128 82.916 188.752L81.7 186.864C82.324 186.784 82.772 186.704 83.204 186.608C85.236 186.112 86.836 184.656 86.836 182.304C86.836 179.792 85.268 178 82.5 178C79.108 178 77.252 180.768 77.252 182.784C77.252 184.4 77.892 185.184 78.5 185.184C79.188 185.184 79.796 184.16 80.468 182C80.932 180.496 81.284 178.656 81.444 176.976L83.636 177.04ZM106.052 177.92C105.828 178.176 105.636 178.4 105.508 178.592C104.26 180.656 101.892 183.536 99.412 185.36L97.812 183.888C99.924 182.416 101.716 180.24 102.548 178.768C101.14 178.768 95.316 178.768 94.1 178.768C93.444 178.768 92.58 178.848 92.244 178.896V176.64C92.676 176.72 93.54 176.8 94.1 176.8C95.108 176.8 101.252 176.8 102.964 176.8C103.588 176.8 104.116 176.736 104.468 176.624L106.052 177.92ZM97.62 185.6C96.676 184.656 95.044 183.2 94.1 182.528L95.78 181.152C96.644 181.808 98.244 183.104 99.46 184.272C100.516 185.296 101.78 186.624 102.548 187.552L100.66 189.056C100.004 188.16 98.66 186.656 97.62 185.6ZM115.524 178.512C115.828 179.184 116.612 181.28 116.836 182.016L114.932 182.672C114.724 181.904 114.02 179.968 113.636 179.136L115.524 178.512ZM121.428 179.664C121.252 180.192 121.156 180.528 121.06 180.848C120.644 182.464 119.956 184.128 118.868 185.52C117.38 187.456 115.396 188.784 113.524 189.504L111.844 187.792C113.588 187.312 115.828 186.096 117.14 184.432C118.228 183.088 119.012 180.96 119.188 178.944L121.428 179.664ZM111.812 179.344C112.212 180.16 112.996 182.112 113.3 183.008L111.348 183.728C111.092 182.88 110.276 180.736 109.892 180.048L111.812 179.344ZM126.532 176.512C127.764 176.544 130.228 176.528 131.988 176.272C133.604 176.032 135.22 175.68 136.02 175.296L137.348 177.056C136.804 177.2 136.372 177.312 136.116 177.376C135.124 177.632 133.844 177.84 132.612 178.016C130.788 178.272 128.436 178.336 127.044 178.368L126.532 176.512ZM127.22 187.552C130.052 186.256 131.316 184.144 131.316 181.152C131.316 181.152 131.316 180.112 131.316 177.84L133.412 177.6C133.412 178.976 133.412 181.104 133.412 181.104C133.412 184.336 132.356 187.072 129.268 188.928L127.22 187.552ZM125.332 180.352C125.78 180.384 126.308 180.432 126.82 180.432C127.828 180.432 136.388 180.432 137.46 180.432C137.796 180.432 138.548 180.384 138.9 180.352V182.416C138.468 182.384 137.94 182.352 137.492 182.352C136.484 182.352 127.78 182.352 126.836 182.352C126.34 182.352 125.748 182.384 125.332 182.416V180.352ZM144.596 175.84C145.7 176.592 147.78 178.256 148.724 179.232L147.092 180.896C146.26 180 144.244 178.256 143.076 177.456L144.596 175.84ZM142.58 186.496C145.092 186.144 147.156 185.328 148.708 184.416C151.444 182.784 153.524 180.352 154.548 178.192L155.78 180.432C154.58 182.608 152.452 184.816 149.876 186.368C148.244 187.344 146.18 188.224 143.94 188.608L142.58 186.496ZM169.844 174.896C170.244 175.488 170.804 176.496 171.108 177.088L169.828 177.648C169.492 176.992 168.996 176.032 168.564 175.424L169.844 174.896ZM171.732 174.176C172.148 174.784 172.74 175.792 173.028 176.352L171.748 176.896C171.412 176.24 170.9 175.296 170.468 174.704L171.732 174.176ZM171.268 178.416C171.092 178.736 170.868 179.168 170.74 179.568C170.308 180.992 169.396 183.136 167.956 184.912C166.436 186.768 164.5 188.24 161.492 189.424L159.604 187.744C162.884 186.752 164.66 185.36 166.052 183.776C167.14 182.528 168.068 180.608 168.324 179.424H162.932L163.668 177.6C164.388 177.6 167.732 177.6 168.244 177.6C168.74 177.6 169.268 177.536 169.636 177.408L171.268 178.416ZM166.052 175.888C165.684 176.448 165.268 177.184 165.076 177.52C164.004 179.456 162.084 181.712 159.796 183.28L157.988 181.952C160.804 180.24 162.196 178.176 162.996 176.8C163.236 176.416 163.572 175.664 163.716 175.12L166.052 175.888Z" fill="white"/>
</svg>
