<svg width="228" height="60" viewBox="0 0 228 60" fill="none" xmlns="http://www.w3.org/2000/svg">
<path d="M22.83 5.968L24.954 6.58C23.964 8.578 22.362 10.522 20.85 11.71C20.454 11.314 19.59 10.63 19.086 10.306C20.598 9.298 22.038 7.642 22.83 5.968ZM22.686 7.858H35.088V9.766H22.164L22.686 7.858ZM19.464 12.052H35.736V13.978H19.464V12.052ZM19.77 16.282H35.484V18.208H19.77V16.282ZM25.098 8.542H26.916V17.29H25.098V8.542ZM21.912 8.542H23.82V17.308H21.912V8.542ZM28.23 8.542H30.03V17.308H28.23V8.542ZM31.398 8.542H33.378V17.308H31.398V8.542ZM24.558 19.216L26.556 18.982C26.79 20.08 27.006 21.502 27.024 22.384L24.9 22.69C24.9 21.808 24.774 20.332 24.558 19.216ZM28.14 19.252L30.174 18.91C30.624 19.972 31.074 21.394 31.236 22.276L29.076 22.708C28.95 21.826 28.554 20.368 28.14 19.252ZM31.722 19.162L33.792 18.514C34.602 19.612 35.628 21.142 36.078 22.15L33.882 22.888C33.486 21.898 32.532 20.314 31.722 19.162ZM21.318 18.586L23.424 19.09C23.01 20.476 22.236 21.952 21.372 22.888L19.284 22.06C20.112 21.304 20.904 19.9 21.318 18.586ZM43.602 6.058H45.6V22.834H43.602V6.058ZM40.884 11.962H48.264V13.978H40.884V11.962ZM43.224 13.042L44.412 13.618C43.836 16.03 42.72 19.162 41.532 20.89C41.334 20.224 40.866 19.27 40.542 18.658C41.622 17.326 42.72 14.824 43.224 13.042ZM45.564 14.086C46.086 14.554 47.832 16.642 48.228 17.146L46.896 18.838C46.428 17.812 45.222 15.814 44.574 14.932L45.564 14.086ZM40.848 7.444L42.36 7.048C42.828 8.362 43.188 10.072 43.278 11.206L41.658 11.638C41.622 10.504 41.28 8.758 40.848 7.444ZM46.788 6.958L48.606 7.354C48.138 8.812 47.598 10.522 47.148 11.584L45.798 11.206C46.158 10.054 46.59 8.236 46.788 6.958ZM53.592 5.95H55.626V22.852H53.592V5.95ZM48.21 17.218L57.462 15.562L57.786 17.56L48.552 19.234L48.21 17.218ZM49.236 8.416L50.298 6.94C51.306 7.552 52.584 8.452 53.178 9.118L52.044 10.756C51.504 10.054 50.244 9.064 49.236 8.416ZM48.426 12.952L49.434 11.404C50.478 11.962 51.828 12.826 52.476 13.492L51.396 15.202C50.784 14.536 49.47 13.564 48.426 12.952ZM71.178 11.206H77.622V13.15H71.178V11.206ZM71.196 15.454H77.64V17.416H71.196V15.454ZM71.178 19.72H77.64V21.664H71.178V19.72ZM70.152 6.94H78.648V22.618H76.47V8.974H72.222V22.726H70.152V6.94ZM62.592 9.676H69.522V11.728H62.592V9.676ZM65.202 5.968H67.272V22.87H65.202V5.968ZM65.076 11.062L66.372 11.512C65.778 14.446 64.59 17.902 63.168 19.774C62.97 19.162 62.466 18.28 62.142 17.74C63.438 16.174 64.59 13.366 65.076 11.062ZM67.11 12.646C67.632 13.15 69.396 15.328 69.792 15.814L68.568 17.56C68.046 16.498 66.768 14.536 66.12 13.636L67.11 12.646ZM94.578 11.008L95.91 9.586C97.458 10.468 99.69 11.818 100.788 12.736L99.366 14.356C98.358 13.42 96.18 11.98 94.578 11.008ZM95.82 13.6H96.9V16.336C96.9 17.542 97.674 19.828 100.968 21.052C100.572 21.556 99.996 22.384 99.708 22.906C97.44 22.042 96.144 20.026 95.802 18.928C95.442 20.026 94.002 21.97 91.518 22.906C91.284 22.42 90.708 21.556 90.33 21.142C93.786 19.918 94.704 17.56 94.704 16.336V13.6H95.82ZM94.848 5.968H96.972C96.792 10.27 96.216 13.006 91.86 14.5C91.662 13.978 91.122 13.204 90.672 12.79C94.434 11.638 94.722 9.55 94.848 5.968ZM92.202 7.03L93.966 7.39C93.786 8.596 93.318 9.928 92.544 10.738L90.852 10.018C91.518 9.37 92.022 8.164 92.202 7.03ZM92.004 14.86L93.876 15.238C93.642 16.606 93.084 18.064 92.202 18.946L90.42 18.028C91.194 17.362 91.752 16.084 92.004 14.86ZM98.556 6.922L100.644 7.57C100.032 8.632 99.384 9.748 98.88 10.486L97.278 9.892C97.746 9.082 98.286 7.822 98.556 6.922ZM98.664 14.716L100.788 15.382C100.158 16.498 99.456 17.704 98.898 18.478L97.224 17.866C97.728 17.02 98.34 15.688 98.664 14.716ZM84.786 11.494H90.222V13.114H84.786V11.494ZM84.84 6.526H90.168V8.164H84.84V6.526ZM84.786 13.942H90.222V15.58H84.786V13.942ZM83.922 8.956H90.816V10.666H83.922V8.956ZM85.722 16.444H90.24V21.916H85.722V20.206H88.404V18.154H85.722V16.444ZM84.75 16.444H86.568V22.636H84.75V16.444ZM114 12.124C115.26 12.124 116.286 13.15 116.286 14.41C116.286 15.688 115.26 16.714 114 16.714C112.722 16.714 111.696 15.688 111.696 14.41C111.696 13.15 112.722 12.124 114 12.124ZM131.82 11.278V12.394H139.38V11.278H131.82ZM131.82 14.158V15.274H139.38V14.158H131.82ZM131.82 8.416V9.532H139.38V8.416H131.82ZM129.732 6.526H141.576V17.164H129.732V6.526ZM136.428 15.706H138.624V20.026C138.624 20.602 138.75 20.692 139.398 20.692C139.704 20.692 140.91 20.692 141.288 20.692C141.918 20.692 142.026 20.386 142.116 18.262C142.548 18.622 143.502 18.982 144.096 19.126C143.862 21.988 143.286 22.726 141.486 22.726C141.036 22.726 139.524 22.726 139.11 22.726C136.95 22.726 136.428 22.078 136.428 20.026V15.706ZM132.018 16.444H134.34C134.034 19.72 133.188 21.844 128.328 22.942C128.148 22.366 127.572 21.484 127.122 21.016C131.298 20.242 131.784 18.856 132.018 16.444ZM151.404 7.642H153.51V22.852H151.404V7.642ZM148.974 10.882H155.292V12.898H148.974V10.882ZM151.584 11.836L152.844 12.394C152.16 14.968 150.9 18.172 149.532 19.954C149.334 19.324 148.848 18.424 148.524 17.884C149.766 16.444 151.026 13.834 151.584 11.836ZM154.194 6.148L155.634 7.822C153.834 8.488 151.404 8.92 149.352 9.136C149.28 8.686 148.992 7.948 148.758 7.48C150.702 7.21 152.862 6.724 154.194 6.148ZM153.33 13.33C153.78 13.708 155.346 15.328 155.688 15.742L154.446 17.434C154.032 16.57 152.952 14.932 152.394 14.176L153.33 13.33ZM159.27 5.968H161.412V11.728H159.27V5.968ZM155.742 6.796H165.174V8.11H155.742V6.796ZM156.066 8.722H164.76V9.964H156.066V8.722ZM155.184 10.576H165.534V11.926H155.184V10.576ZM158.244 15.85V16.624H162.618V15.85H158.244ZM158.244 17.848V18.622H162.618V17.848H158.244ZM158.244 13.87V14.608H162.618V13.87H158.244ZM156.3 12.538H164.652V19.954H156.3V12.538ZM160.944 20.782L162.384 19.738C163.554 20.44 164.994 21.304 165.804 21.88L163.932 22.888C163.248 22.348 162.006 21.448 160.944 20.782ZM158.316 19.648L159.99 20.764C158.892 21.61 157.092 22.492 155.634 22.96C155.31 22.564 154.716 21.97 154.302 21.61C155.742 21.196 157.452 20.35 158.316 19.648ZM179.178 11.206H185.622V13.15H179.178V11.206ZM179.196 15.454H185.64V17.416H179.196V15.454ZM179.178 19.72H185.64V21.664H179.178V19.72ZM178.152 6.94H186.648V22.618H184.47V8.974H180.222V22.726H178.152V6.94ZM170.592 9.676H177.522V11.728H170.592V9.676ZM173.202 5.968H175.272V22.87H173.202V5.968ZM173.076 11.062L174.372 11.512C173.778 14.446 172.59 17.902 171.168 19.774C170.97 19.162 170.466 18.28 170.142 17.74C171.438 16.174 172.59 13.366 173.076 11.062ZM175.11 12.646C175.632 13.15 177.396 15.328 177.792 15.814L176.568 17.56C176.046 16.498 174.768 14.536 174.12 13.636L175.11 12.646ZM202.578 11.008L203.91 9.586C205.458 10.468 207.69 11.818 208.788 12.736L207.366 14.356C206.358 13.42 204.18 11.98 202.578 11.008ZM203.82 13.6H204.9V16.336C204.9 17.542 205.674 19.828 208.968 21.052C208.572 21.556 207.996 22.384 207.708 22.906C205.44 22.042 204.144 20.026 203.802 18.928C203.442 20.026 202.002 21.97 199.518 22.906C199.284 22.42 198.708 21.556 198.33 21.142C201.786 19.918 202.704 17.56 202.704 16.336V13.6H203.82ZM202.848 5.968H204.972C204.792 10.27 204.216 13.006 199.86 14.5C199.662 13.978 199.122 13.204 198.672 12.79C202.434 11.638 202.722 9.55 202.848 5.968ZM200.202 7.03L201.966 7.39C201.786 8.596 201.318 9.928 200.544 10.738L198.852 10.018C199.518 9.37 200.022 8.164 200.202 7.03ZM200.004 14.86L201.876 15.238C201.642 16.606 201.084 18.064 200.202 18.946L198.42 18.028C199.194 17.362 199.752 16.084 200.004 14.86ZM206.556 6.922L208.644 7.57C208.032 8.632 207.384 9.748 206.88 10.486L205.278 9.892C205.746 9.082 206.286 7.822 206.556 6.922ZM206.664 14.716L208.788 15.382C208.158 16.498 207.456 17.704 206.898 18.478L205.224 17.866C205.728 17.02 206.34 15.688 206.664 14.716ZM192.786 11.494H198.222V13.114H192.786V11.494ZM192.84 6.526H198.168V8.164H192.84V6.526ZM192.786 13.942H198.222V15.58H192.786V13.942ZM191.922 8.956H198.816V10.666H191.922V8.956ZM193.722 16.444H198.24V21.916H193.722V20.206H196.404V18.154H193.722V16.444ZM192.75 16.444H194.568V22.636H192.75V16.444Z" fill="#3C2C25"/>
<path d="M6.96 41.482C6.912 41.77 6.88 42.202 6.864 42.586C6.816 43.53 6.736 45.978 6.736 47.642C6.736 49.306 6.816 51.802 6.816 52.81C6.816 54.282 6.272 54.762 5.392 54.762C4.144 54.762 2.064 53.546 2.064 52.106C2.064 50.698 3.968 49.21 5.952 48.458C7.376 47.898 8.976 47.61 10.24 47.61C12.592 47.61 14.272 48.874 14.272 50.794C14.272 52.73 13.056 53.962 10.848 54.474C10.144 54.634 9.424 54.666 8.864 54.698L8.416 53.418C9.024 53.418 9.696 53.434 10.304 53.306C11.696 53.034 12.976 52.282 12.976 50.794C12.976 49.434 11.744 48.714 10.24 48.714C8.8 48.714 7.488 49.018 6.128 49.562C4.56 50.17 3.328 51.242 3.328 52.058C3.328 52.778 4.448 53.418 5.072 53.418C5.44 53.418 5.648 53.162 5.648 52.634C5.648 51.706 5.568 49.482 5.568 47.706C5.568 45.866 5.632 43.258 5.632 42.602C5.632 42.298 5.6 41.738 5.552 41.482H6.96ZM11.936 43.258C13.072 43.85 14.816 44.938 15.584 45.578L14.944 46.602C14.16 45.866 12.368 44.762 11.344 44.218L11.936 43.258ZM2.336 44.346C3.216 44.458 3.792 44.474 4.368 44.474C5.952 44.474 8.496 44.138 10.08 43.658L10.112 44.906C8.464 45.306 5.84 45.658 4.4 45.658C3.504 45.658 2.896 45.626 2.368 45.578L2.336 44.346ZM23.44 42.506H34.416V43.546H23.44V42.506ZM23.616 44.81H32.88V45.818H23.616V44.81ZM21.776 47.098H31.424V48.138H21.776V47.098ZM23.648 40.778L24.912 41.066C24.128 43.53 22.816 45.738 21.296 47.162C21.056 46.954 20.512 46.57 20.192 46.394C21.76 45.098 22.992 43.034 23.648 40.778ZM27.952 48.41L29.104 48.794C27.376 51.85 24.56 54.186 21.52 55.674C21.344 55.418 20.896 54.954 20.624 54.746C23.696 53.434 26.416 51.194 27.952 48.41ZM30.976 47.098H32.208C32.208 51.242 32.448 54.362 33.664 54.362C33.984 54.362 34.048 53.45 34.08 52.09C34.32 52.346 34.672 52.634 34.928 52.794C34.816 54.81 34.56 55.53 33.584 55.546C31.296 55.53 31.04 52.058 30.976 47.098ZM22.176 49.85L23.024 49.066C25.488 50.394 28.48 52.49 29.936 54.058L28.976 54.954C27.616 53.402 24.656 51.242 22.176 49.85ZM46.88 50.234H53.504V51.274H46.88V50.234ZM45.888 54.058H54.224V55.13H45.888V54.058ZM46.608 41.61H52.784V42.682H46.608V41.61ZM49.584 48.154H50.768V54.698H49.584V48.154ZM52.448 41.61H52.672L52.896 41.562L53.648 41.882C52.512 45.626 49.744 47.834 46.608 48.89C46.48 48.586 46.192 48.154 45.952 47.898C48.832 47.066 51.52 44.954 52.448 41.834V41.61ZM48.32 42.65C49.344 45.162 51.52 47.098 54.416 47.85C54.16 48.09 53.824 48.522 53.664 48.842C50.672 47.914 48.464 45.818 47.312 42.938L48.32 42.65ZM39.616 42.538H46.272V43.61H39.616V42.538ZM39.424 51.674H46.4V52.746H39.424V51.674ZM42.384 40.81H43.472V45.21H42.384V40.81ZM42.496 45.258H43.376V49.914H43.472V55.562H42.384V49.914H42.496V45.258ZM40.8 48.01V49.498H45.088V48.01H40.8ZM40.8 45.706V47.162H45.088V45.706H40.8ZM39.888 44.81H46.032V50.378H39.888V44.81ZM65.28 43.45C67.024 43.754 70.272 43.69 71.856 43.45V44.746C70.144 44.938 67.04 44.938 65.296 44.746L65.28 43.45ZM65.904 49.978C65.76 50.554 65.68 51.002 65.68 51.434C65.68 52.17 66.192 52.89 68.384 52.89C69.808 52.89 71.056 52.762 72.336 52.458L72.368 53.802C71.376 54.01 70.032 54.138 68.368 54.138C65.696 54.138 64.496 53.242 64.496 51.738C64.496 51.21 64.576 50.634 64.752 49.866L65.904 49.978ZM62.24 42.218C62.144 42.49 62.016 43.002 61.952 43.29C61.648 44.778 61.152 47.626 61.152 49.434C61.152 50.202 61.2 50.874 61.296 51.658C61.568 50.938 61.936 49.978 62.208 49.322L62.88 49.85C62.48 50.986 61.888 52.666 61.744 53.434C61.696 53.658 61.664 53.962 61.664 54.154C61.68 54.314 61.696 54.538 61.712 54.714L60.576 54.794C60.256 53.658 59.984 51.818 59.984 49.642C59.984 47.29 60.512 44.554 60.704 43.226C60.752 42.858 60.8 42.458 60.816 42.106L62.24 42.218ZM83.76 41.482C83.712 41.77 83.68 42.202 83.664 42.586C83.616 43.53 83.536 45.978 83.536 47.642C83.536 49.306 83.616 51.802 83.616 52.81C83.616 54.282 83.072 54.762 82.192 54.762C80.944 54.762 78.864 53.546 78.864 52.106C78.864 50.698 80.768 49.21 82.752 48.458C84.176 47.898 85.776 47.61 87.04 47.61C89.392 47.61 91.072 48.874 91.072 50.794C91.072 52.73 89.856 53.962 87.648 54.474C86.944 54.634 86.224 54.666 85.664 54.698L85.216 53.418C85.824 53.418 86.496 53.434 87.104 53.306C88.496 53.034 89.776 52.282 89.776 50.794C89.776 49.434 88.544 48.714 87.04 48.714C85.6 48.714 84.288 49.018 82.928 49.562C81.36 50.17 80.128 51.242 80.128 52.058C80.128 52.778 81.248 53.418 81.872 53.418C82.24 53.418 82.448 53.162 82.448 52.634C82.448 51.706 82.368 49.482 82.368 47.706C82.368 45.866 82.432 43.258 82.432 42.602C82.432 42.298 82.4 41.738 82.352 41.482H83.76ZM88.736 43.258C89.872 43.85 91.616 44.938 92.384 45.578L91.744 46.602C90.96 45.866 89.168 44.762 88.144 44.218L88.736 43.258ZM79.136 44.346C80.016 44.458 80.592 44.474 81.168 44.474C82.752 44.474 85.296 44.138 86.88 43.658L86.912 44.906C85.264 45.306 82.64 45.658 81.2 45.658C80.304 45.658 79.696 45.626 79.168 45.578L79.136 44.346ZM101.856 48.586H107.328V53.274H101.856V52.266H106.208V49.594H101.856V48.586ZM101.328 48.586H102.448V54.234H101.328V48.586ZM98.432 43.818H102.88V44.714H98.432V43.818ZM105.808 43.818H110.336V44.714H105.808V43.818ZM109.808 41.498H111.008V53.93C111.008 54.73 110.816 55.114 110.304 55.322C109.76 55.514 108.832 55.53 107.424 55.53C107.376 55.194 107.168 54.634 106.992 54.298C108.048 54.346 109.104 54.33 109.408 54.314C109.712 54.314 109.808 54.218 109.808 53.914V41.498ZM98.528 41.498H103.648V47.146H98.528V46.17H102.512V42.474H98.528V41.498ZM110.432 41.498V42.458H106.24V46.186H110.432V47.146H105.088V41.498H110.432ZM97.856 41.498H99.04V55.546H97.856V41.498ZM119.568 46.042H127.648V47.114H119.568V46.042ZM119.28 53.818H127.856V54.89H119.28V53.818ZM118.736 49.13H128.528V55.546H127.312V50.218H119.904V55.546H118.736V49.13ZM123.552 42.042C122.24 43.994 119.616 46.266 116.88 47.754C116.72 47.482 116.4 47.05 116.128 46.794C118.944 45.37 121.616 42.922 122.88 40.858H124.096C125.824 43.242 128.624 45.466 131.184 46.602C130.88 46.89 130.592 47.306 130.384 47.658C127.872 46.346 125.056 44.09 123.552 42.042ZM146.624 41.914C146.592 42.186 146.56 42.73 146.56 43.082C146.544 44.074 146.544 45.194 146.512 46.01C146.48 47.242 146.432 48.97 146.272 49.802C146.128 50.522 145.76 50.73 145.04 50.73C144.448 50.73 143.344 50.586 142.928 50.506L142.944 49.386C143.504 49.514 144.176 49.594 144.544 49.594C144.944 49.594 145.104 49.53 145.168 49.162C145.264 48.554 145.328 47.162 145.344 46.026C145.36 45.13 145.36 44.01 145.36 43.13C145.36 42.762 145.312 42.202 145.264 41.914H146.624ZM140.304 42.426C140.256 42.794 140.24 43.226 140.24 43.722C140.224 45.45 140.176 49.85 140.208 50.954C140.272 52.682 140.288 53.29 143.056 53.29C144.8 53.29 146.784 53.114 147.824 52.922L147.776 54.266C146.704 54.378 144.752 54.538 143.12 54.538C139.424 54.538 139.072 53.674 139.008 51.13C138.976 49.786 138.992 44.506 138.992 43.77C138.992 43.29 138.976 42.906 138.896 42.426H140.304ZM135.52 46.25C136.016 46.25 136.608 46.218 137.184 46.154C138.912 46.01 145.008 45.37 148.288 45.194C148.704 45.178 149.168 45.146 149.536 45.114V46.378C149.296 46.362 148.688 46.378 148.288 46.378C145.728 46.426 139.296 47.098 137.264 47.338C136.784 47.402 136.096 47.498 135.648 47.562L135.52 46.25ZM165.264 42.458C164.912 42.714 164.416 43.146 164.16 43.37C163.056 44.33 160.752 46.138 159.568 47.13C158.608 47.962 158.592 48.202 159.632 49.066C161.088 50.266 163.92 52.538 165.616 54.25L164.48 55.29C164.144 54.906 163.76 54.522 163.376 54.122C162.24 52.97 159.824 50.89 158.32 49.658C156.816 48.394 156.992 47.706 158.432 46.49C159.648 45.482 162.08 43.562 163.152 42.474C163.472 42.154 163.888 41.69 164.064 41.402L165.264 42.458ZM179.792 41.898C179.696 42.25 179.568 42.858 179.504 43.162C179.28 44.314 178.944 46.138 178.496 47.722C177.92 49.994 176.848 53.306 176 55.05L174.592 54.586C175.568 52.938 176.688 49.674 177.28 47.418C177.68 45.946 178.096 43.946 178.208 43.098C178.272 42.65 178.304 42.106 178.272 41.77L179.792 41.898ZM176.256 44.57C178.016 44.57 180.368 44.298 182.352 43.786V45.05C180.368 45.498 177.952 45.754 176.224 45.754C175.52 45.754 174.96 45.738 174.368 45.69L174.336 44.458C175.088 44.554 175.664 44.57 176.256 44.57ZM181.312 46.778C182.144 46.698 183.2 46.634 184.24 46.634C185.168 46.634 186.144 46.666 187.008 46.762L186.976 47.978C186.144 47.882 185.216 47.802 184.272 47.802C183.264 47.802 182.288 47.85 181.312 47.962V46.778ZM181.632 50.666C181.504 51.178 181.408 51.69 181.408 52.106C181.408 52.858 181.84 53.594 184.112 53.594C185.152 53.594 186.256 53.466 187.248 53.274L187.2 54.57C186.336 54.682 185.264 54.794 184.096 54.794C181.584 54.794 180.208 54.01 180.208 52.426C180.208 51.818 180.304 51.226 180.448 50.538L181.632 50.666ZM185.264 42.394C185.68 42.954 186.256 43.946 186.592 44.586L185.728 44.97C185.408 44.33 184.848 43.354 184.416 42.746L185.264 42.394ZM187.04 41.738C187.472 42.33 188.08 43.322 188.384 43.93L187.52 44.314C187.184 43.61 186.64 42.714 186.192 42.106L187.04 41.738ZM200.768 42.922C200.672 42.57 200.528 42.09 200.368 41.658L201.744 41.498C201.888 42.426 202.304 43.802 202.672 44.842C203.168 46.218 203.984 47.706 204.672 48.634C204.88 48.954 205.12 49.226 205.36 49.482L204.72 50.394C203.952 50.202 202 50.026 200.848 49.946L200.944 48.89C201.84 48.97 203.024 49.066 203.6 49.13C202.928 48.106 202.048 46.522 201.52 45.066C201.168 44.154 200.944 43.418 200.768 42.922ZM194.912 44.17C197.584 44.474 200.112 44.49 201.936 44.298C203.2 44.154 204.784 43.866 206.032 43.434L206.176 44.698C205.04 45.018 203.52 45.274 202.352 45.418C200.32 45.658 197.776 45.674 194.944 45.434L194.912 44.17ZM197.392 49.258C196.912 50.042 196.624 50.73 196.624 51.482C196.624 53.018 198.016 53.674 200.4 53.706C202.016 53.706 203.408 53.546 204.512 53.306L204.464 54.586C203.456 54.762 202.112 54.938 200.32 54.922C197.28 54.906 195.36 53.818 195.36 51.642C195.36 50.746 195.68 49.914 196.144 48.97L197.392 49.258ZM215.168 43.098C215.088 43.466 215.04 44.234 215.024 44.65C215.008 45.642 215.024 47.114 215.136 48.426C215.408 51.098 216.176 52.874 217.328 52.874C218.144 52.874 218.896 51.226 219.312 49.626L220.32 50.762C219.344 53.466 218.384 54.394 217.296 54.394C215.776 54.394 214.336 52.89 213.888 48.746C213.744 47.37 213.712 45.418 213.712 44.49C213.712 44.122 213.712 43.434 213.616 43.066L215.168 43.098ZM223.488 43.53C224.928 45.386 226.08 48.794 226.32 51.498L225.024 52.01C224.752 49.13 223.776 45.834 222.256 43.962L223.488 43.53Z" fill="#3C2C25"/>
</svg>
