<svg width="101" height="100" viewBox="0 0 101 100" fill="none" xmlns="http://www.w3.org/2000/svg">
<circle cx="50.93" cy="50" r="50" fill="#F7931E"/>
<path d="M32.1361 65V52.66H27.9561V50.2H39.2761V52.66H35.0961V65H32.1361ZM49.6534 65.28C45.7134 65.28 43.0334 62.36 43.0334 57.54C43.0334 52.72 45.7134 49.94 49.6534 49.94C53.5734 49.94 56.2534 52.74 56.2534 57.54C56.2534 62.36 53.5734 65.28 49.6534 65.28ZM49.6534 62.72C51.8534 62.72 53.2534 60.7 53.2534 57.54C53.2534 54.38 51.8534 52.48 49.6534 52.48C47.4334 52.48 46.0534 54.38 46.0534 57.54C46.0534 60.7 47.4334 62.72 49.6534 62.72ZM61.9641 65V50.2H66.8241C70.0841 50.2 72.6041 51.34 72.6041 54.86C72.6041 58.24 70.0841 59.74 66.9041 59.74H64.9241V65H61.9641ZM64.9241 57.4H66.7041C68.7441 57.4 69.7241 56.54 69.7241 54.86C69.7241 53.12 68.6441 52.56 66.6041 52.56H64.9241V57.4Z" fill="white"/>
<path d="M50.363 27.75C50.2737 27.5953 50.1086 27.5 49.93 27.5C49.7514 27.5 49.5863 27.5953 49.497 27.75L42.5688 39.75C42.4795 39.9047 42.4795 40.0953 42.5688 40.25C42.6581 40.4047 42.8232 40.5 43.0018 40.5H56.8582C57.0368 40.5 57.2019 40.4047 57.2912 40.25C57.3805 40.0953 57.3805 39.9047 57.2912 39.75L50.363 27.75Z" fill="white" stroke="white" stroke-linejoin="round"/>
</svg>
